<svg width="9" height="10" viewBox="0 0 9 10" fill="none" xmlns="http://www.w3.org/2000/svg">
<path d="M8.1 4.16722H2.7V3.00067C2.7 2.12575 3.375 1.33416 4.32 1.25083C5.4 1.16751 6.3 1.9591 6.3 2.91734C6.3 3.16732 6.48 3.33397 6.75 3.33397H7.2C7.47 3.33397 7.65 3.16732 7.65 2.91734C7.65 1.33416 6.3 0.0426134 4.59 0.000950682C2.835 -0.040712 1.35 1.29249 1.35 2.91734V4.16722H0.9C0.405 4.16722 0 4.54219 0 5.00048V7.91686C0 9.08342 0.99 10 2.25 10H6.75C8.01 10 9 9.08342 9 7.91686V5.00048C9 4.54219 8.595 4.16722 8.1 4.16722ZM4.95 7.37525V7.91686C4.95 8.12518 4.725 8.33349 4.5 8.33349C4.275 8.33349 4.05 8.12518 4.05 7.91686V7.37525C3.78 7.25026 3.6 6.95862 3.6 6.66698C3.6 6.20869 4.005 5.83373 4.5 5.83373C4.995 5.83373 5.4 6.20869 5.4 6.66698C5.4 6.95862 5.22 7.25026 4.95 7.37525Z" fill="#1CA64D"/>
</svg>
