<svg width="17" height="20" viewBox="0 0 17 20" fill="none" xmlns="http://www.w3.org/2000/svg">
<path d="M10.9723 2.17369L11.175 1.87032L11.3739 1.57103L11.8217 0.899461C11.8765 0.816858 11.8543 0.705733 11.7724 0.650541C11.6891 0.595349 11.578 0.617574 11.5228 0.700547L11.0431 1.42064L10.8412 1.72327L10.6364 2.02997C9.9874 1.77846 9.26398 1.63733 8.49981 1.63733C7.73638 1.63733 7.01296 1.77846 6.36399 2.02997L6.16026 1.72327L5.95838 1.42064L5.47795 0.700177C5.42313 0.617574 5.31164 0.595349 5.22866 0.650171C5.14643 0.704992 5.12421 0.816487 5.17903 0.89909L5.62649 1.57065L5.82615 1.86995L6.02876 2.17332C4.5045 2.88304 3.47363 4.22765 3.47363 5.76673H13.5275C13.5275 4.22802 12.4966 2.88341 10.9723 2.17369ZM6.34621 4.33063C6.04802 4.33063 5.80725 4.08948 5.80725 3.79204C5.80725 3.4946 6.04802 3.25383 6.34621 3.25383C6.64365 3.25383 6.88442 3.4946 6.88442 3.79204C6.88442 4.08948 6.64365 4.33063 6.34621 4.33063ZM10.6545 4.33063C10.3571 4.33063 10.1163 4.08948 10.1163 3.79204C10.1163 3.4946 10.3571 3.25383 10.6545 3.25383C10.9527 3.25383 11.1935 3.4946 11.1935 3.79204C11.1935 4.08948 10.9527 4.33063 10.6545 4.33063Z" fill="black"/>
<path d="M3.55105 6.48535H3.47363V7.38102V8.11185V14.3852C3.47363 15.0123 3.98333 15.5224 4.61044 15.5224H5.43128C5.40387 15.6172 5.38831 15.7176 5.38831 15.8213V15.8813V16.2403V18.096C5.38831 18.6906 5.87097 19.1732 6.46585 19.1732C7.06074 19.1732 7.54302 18.6906 7.54302 18.096V16.2403V15.8813V15.8213C7.54302 15.718 7.5271 15.6172 7.50043 15.5224H9.50067C9.47326 15.6172 9.45808 15.7176 9.45808 15.8213V15.8813V16.2403V18.096C9.45808 18.6906 9.94073 19.1732 10.5352 19.1732C11.1298 19.1732 11.6124 18.6906 11.6124 18.096V16.2403V15.8813V15.8213C11.6124 15.718 11.5972 15.6172 11.5698 15.5224H12.3903C13.0174 15.5224 13.5275 15.0123 13.5275 14.3852V8.11185V7.38102V6.48535H13.45H3.55105V6.48535Z" fill="black"/>
<path d="M1.67776 6.48535C1.08287 6.48535 0.600586 6.96726 0.600586 7.56289V12.1705C0.600586 12.765 1.08287 13.2477 1.67776 13.2477C2.27227 13.2477 2.75493 12.765 2.75493 12.1705V7.56252C2.75493 6.96726 2.27264 6.48535 1.67776 6.48535Z" fill="black"/>
<path d="M15.3233 6.48535C14.728 6.48535 14.2461 6.96726 14.2461 7.56289V12.1705C14.2461 12.765 14.728 13.2477 15.3233 13.2477C15.9178 13.2477 16.3997 12.765 16.3997 12.1705V7.56252C16.3997 6.96726 15.9178 6.48535 15.3233 6.48535Z" fill="black"/>
</svg>
