<svg width="20" height="22" viewBox="0 0 20 22" fill="none" xmlns="http://www.w3.org/2000/svg">
<g filter="url(#filter0_d_3970_5568)">
<path d="M13.75 5H13.125V3.85714C13.125 2.28 11.725 1 10 1C8.275 1 6.875 2.28 6.875 3.85714V5H6.25C5.55937 5 5 5.51143 5 6.14286V11.8571C5 12.4886 5.55937 13 6.25 13H13.75C14.4406 13 15 12.4886 15 11.8571V6.14286C15 5.51143 14.4406 5 13.75 5ZM10 10.1429C9.30937 10.1429 8.75 9.63143 8.75 9C8.75 8.36857 9.30937 7.85714 10 7.85714C10.6906 7.85714 11.25 8.36857 11.25 9C11.25 9.63143 10.6906 10.1429 10 10.1429ZM11.9375 5H8.0625V3.85714C8.0625 2.88 8.93125 2.08571 10 2.08571C11.0687 2.08571 11.9375 2.88 11.9375 3.85714V5Z" fill="black"/>
<path d="M13.75 5H13.125V3.85714C13.125 2.28 11.725 1 10 1C8.275 1 6.875 2.28 6.875 3.85714V5H6.25C5.55937 5 5 5.51143 5 6.14286V11.8571C5 12.4886 5.55937 13 6.25 13H13.75C14.4406 13 15 12.4886 15 11.8571V6.14286C15 5.51143 14.4406 5 13.75 5ZM10 10.1429C9.30937 10.1429 8.75 9.63143 8.75 9C8.75 8.36857 9.30937 7.85714 10 7.85714C10.6906 7.85714 11.25 8.36857 11.25 9C11.25 9.63143 10.6906 10.1429 10 10.1429ZM11.9375 5H8.0625V3.85714C8.0625 2.88 8.93125 2.08571 10 2.08571C11.0687 2.08571 11.9375 2.88 11.9375 3.85714V5Z" fill="#FBC53C"/>
<path d="M13.75 4.5H13.625V3.85714C13.625 1.96263 11.958 0.5 10 0.5C8.04197 0.5 6.375 1.96263 6.375 3.85714V4.5H6.25C5.32635 4.5 4.5 5.19406 4.5 6.14286V11.8571C4.5 12.8059 5.32635 13.5 6.25 13.5H13.75C14.6737 13.5 15.5 12.8059 15.5 11.8571V6.14286C15.5 5.19406 14.6737 4.5 13.75 4.5ZM10 9.64286C9.5424 9.64286 9.25 9.31406 9.25 9C9.25 8.68594 9.5424 8.35714 10 8.35714C10.4576 8.35714 10.75 8.68594 10.75 9C10.75 9.31406 10.4576 9.64286 10 9.64286ZM11.4375 4.5H8.5625V3.85714C8.5625 3.19737 9.16428 2.58571 10 2.58571C10.8357 2.58571 11.4375 3.19737 11.4375 3.85714V4.5Z" stroke="white"/>
</g>
<defs>
<filter id="filter0_d_3970_5568" x="0" y="0" width="20" height="22" filterUnits="userSpaceOnUse" color-interpolation-filters="sRGB">
<feFlood flood-opacity="0" result="BackgroundImageFix"/>
<feColorMatrix in="SourceAlpha" type="matrix" values="0 0 0 0 0 0 0 0 0 0 0 0 0 0 0 0 0 0 127 0" result="hardAlpha"/>
<feOffset dy="4"/>
<feGaussianBlur stdDeviation="2"/>
<feComposite in2="hardAlpha" operator="out"/>
<feColorMatrix type="matrix" values="0 0 0 0 0 0 0 0 0 0 0 0 0 0 0 0 0 0 0.25 0"/>
<feBlend mode="normal" in2="BackgroundImageFix" result="effect1_dropShadow_3970_5568"/>
<feBlend mode="normal" in="SourceGraphic" in2="effect1_dropShadow_3970_5568" result="shape"/>
</filter>
</defs>
</svg>
