<svg width="16" height="15" viewBox="0 0 16 15" fill="none" xmlns="http://www.w3.org/2000/svg">
<g filter="url(#filter0_b_5792_866)">
<rect width="16" height="15" rx="3" fill="#1877F2"/>
</g>
<path d="M11.9944 3.23138C12.0035 3.19633 12.0014 3.15961 11.9884 3.12561C11.9754 3.09161 11.9521 3.06176 11.9211 3.03963C11.8901 3.01749 11.8529 3.004 11.8138 3.00076C11.7747 2.99752 11.7354 3.00468 11.7006 3.02137L3.31906 7.05632C3.22632 7.10121 3.14807 7.16769 3.09215 7.2491C3.03623 7.33052 3.00461 7.424 3.00047 7.52018C2.99632 7.61636 3.0198 7.71184 3.06853 7.79706C3.11727 7.88228 3.18956 7.95423 3.27814 8.0057L5.14408 9.08845C5.16283 9.09939 5.18495 9.10443 5.2071 9.1028C5.22925 9.10118 5.25022 9.09297 5.26684 9.07943L10.2414 4.99639C10.2604 4.97993 10.2854 4.97075 10.3115 4.97075C10.3376 4.97074 10.3627 4.97992 10.3816 4.99638C10.4005 5.01285 10.4119 5.03534 10.4133 5.05925C10.4147 5.08315 10.406 5.10664 10.3892 5.12488L6.41381 9.70309C6.40487 9.71341 6.39839 9.72534 6.3948 9.73812C6.39121 9.75089 6.39059 9.76422 6.39298 9.77722C6.39538 9.79023 6.40073 9.80263 6.40869 9.81361C6.41665 9.8246 6.42704 9.83392 6.43918 9.84097L9.07113 11.3697C9.15123 11.416 9.24222 11.4441 9.33653 11.4517C9.43085 11.4593 9.52576 11.4461 9.6134 11.4132C9.70104 11.3803 9.77886 11.3287 9.84041 11.2626C9.90196 11.1966 9.94545 11.118 9.96727 11.0334L11.9944 3.23138Z" fill="white"/>
<path d="M5.81598 10.1983C5.80048 10.1893 5.78264 10.1843 5.76432 10.1837C5.746 10.1832 5.72786 10.1872 5.71178 10.1953C5.69571 10.2034 5.68228 10.2153 5.6729 10.2297C5.66352 10.2442 5.65853 10.2607 5.65844 10.2775C5.65844 10.6743 5.65844 11.6244 5.65844 11.6244C5.65845 11.6987 5.68246 11.7713 5.72743 11.8331C5.77239 11.8948 5.83629 11.943 5.91105 11.9714C5.98581 11.9998 6.06807 12.0073 6.14744 11.9928C6.2268 11.9783 6.29971 11.9425 6.35694 11.89L7.18269 11.1322C7.19347 11.1222 7.20167 11.1102 7.20671 11.0969C7.21175 11.0836 7.21348 11.0695 7.2118 11.0555C7.21011 11.0415 7.20504 11.0281 7.19696 11.0161C7.18888 11.0042 7.17799 10.994 7.1651 10.9865L5.81598 10.1983Z" fill="white"/>
<defs>
<filter id="filter0_b_5792_866" x="-9" y="-9" width="34" height="33" filterUnits="userSpaceOnUse" color-interpolation-filters="sRGB">
<feFlood flood-opacity="0" result="BackgroundImageFix"/>
<feGaussianBlur in="BackgroundImage" stdDeviation="4.5"/>
<feComposite in2="SourceAlpha" operator="in" result="effect1_backgroundBlur_5792_866"/>
<feBlend mode="normal" in="SourceGraphic" in2="effect1_backgroundBlur_5792_866" result="shape"/>
</filter>
</defs>
</svg>
