<svg width="13" height="14" viewBox="0 0 13 14" fill="none" xmlns="http://www.w3.org/2000/svg">
<path d="M6.5 6.58824C8.29493 6.58824 9.75 5.11341 9.75 3.29412C9.75 1.47483 8.29493 0 6.5 0C4.70507 0 3.25 1.47483 3.25 3.29412C3.25 5.11341 4.70507 6.58824 6.5 6.58824Z" fill="black"/>
<path d="M13 12.3529V13.1765C13 13.3949 12.9144 13.6044 12.762 13.7588C12.6097 13.9132 12.403 14 12.1875 14H0.8125C0.597012 14 0.390349 13.9132 0.237976 13.7588C0.0856026 13.6044 0 13.3949 0 13.1765V12.3529C0 11.0425 0.513615 9.78565 1.42785 8.859C2.34209 7.93235 3.58207 7.41176 4.875 7.41176H8.125C9.41793 7.41176 10.6579 7.93235 11.5721 8.859C12.4864 9.78565 13 11.0425 13 12.3529Z" fill="black"/>
</svg>
