<svg width="14" height="13" viewBox="0 0 14 13" fill="none" xmlns="http://www.w3.org/2000/svg">
<path d="M2.46889 12.5C0.928229 12.5 -0.0338869 10.8313 0.738042 9.49793L5.37441 1.48965C6.14474 0.159085 8.06579 0.159084 8.83612 1.48965L13.4725 9.49793C14.2444 10.8313 13.2823 12.5 11.7416 12.5H2.46889ZM7.10526 10.2895C7.31404 10.2895 7.48916 10.2187 7.63063 10.0773C7.77162 9.93628 7.84211 9.7614 7.84211 9.55263C7.84211 9.34386 7.77162 9.16898 7.63063 9.028C7.48916 8.88653 7.31404 8.81579 7.10526 8.81579C6.89649 8.81579 6.72162 8.88653 6.58063 9.028C6.43916 9.16898 6.36842 9.34386 6.36842 9.55263C6.36842 9.7614 6.43916 9.93628 6.58063 10.0773C6.72162 10.2187 6.89649 10.2895 7.10526 10.2895ZM6.36842 7.3421C6.36842 7.74905 6.69832 8.07895 7.10526 8.07895C7.51221 8.07895 7.84211 7.74905 7.84211 7.3421V5.13158C7.84211 4.72463 7.51221 4.39474 7.10526 4.39474C6.69832 4.39474 6.36842 4.72463 6.36842 5.13158V7.3421Z" fill="#EC1723"/>
</svg>
