<svg width="16" height="16" viewBox="0 0 16 16" fill="none" xmlns="http://www.w3.org/2000/svg">
<g clip-path="url(#clip0_8699_2477)">
<path d="M1 15C1 15.5531 1.44719 16 2 16H7V9H1V15ZM15 4H13.6831C14.0569 3.28375 14.1522 2.42031 13.6819 1.45625C13.2312 0.530938 12.2687 -0.000487165 11.2344 3.3511e-07C9.92812 0.000487835 9.08437 0.66625 8 2.13438C6.91562 0.66625 6.07187 0.000487835 4.76562 3.3511e-07C3.73125 -0.000487165 2.76937 0.530938 2.31812 1.45625C1.84781 2.42031 1.94312 3.28438 2.31719 4H1C0.447812 4 0 4.44781 0 5V7C0 7.55 0.45 7.99906 0.971875 7.99906H14.9719C15.5219 7.99906 15.9719 7.55 15.9719 7V5C16 4.44688 15.5531 4 15 4ZM4.80937 4C4.11906 4 3.55937 3.44031 3.55937 2.75C3.55937 2.05969 4.11906 1.5 4.80937 1.5C5.43125 1.5 5.89062 1.60313 7.5 4H4.80937ZM11.1906 4H8.5C10.1094 1.60313 10.5684 1.5 11.1903 1.5C11.8806 1.5 12.4403 2.05969 12.4403 2.75C12.4403 3.44031 11.8812 4 11.1906 4ZM9 16H14C14.5528 16 15 15.5531 15 15L15 9H9.02812L9 16Z" fill="black"/>
</g>
<defs>
<clipPath id="clip0_8699_2477">
<rect width="16" height="16" fill="white"/>
</clipPath>
</defs>
</svg>
