<svg width="15" height="13" viewBox="0 0 15 13" fill="none" xmlns="http://www.w3.org/2000/svg">
<path d="M3.9094 2.69202C3.77762 2.69202 3.64329 2.69991 3.51889 2.73115C3.44603 2.74968 3.37418 2.78092 3.30407 2.8094C3.27696 2.82048 3.25259 2.83595 3.22597 2.84853C3.21491 2.85366 3.21747 2.86268 3.20648 2.86806C3.14037 2.90087 3.07352 2.92466 3.01122 2.96591C3.00247 2.97161 2.98086 2.97962 2.97217 2.98551C2.95386 2.99803 2.95105 3.0113 2.93312 3.02457C2.88213 3.06126 2.82478 3.10033 2.77692 3.14202C2.73324 3.18134 2.70063 3.2353 2.65976 3.27894C2.52155 3.42098 2.38634 3.5723 2.28875 3.74847C2.12117 4.0429 2.00958 4.36543 1.95684 4.70713C1.93141 4.70175 1.90105 4.69974 1.87874 4.70713C1.70798 4.76272 1.66993 5.08852 1.78114 5.43096C1.84638 5.63192 1.94378 5.79156 2.05444 5.88109C2.20315 6.46018 2.52286 6.94787 2.93312 7.25024V7.58267L2.60115 7.8957L1.95684 8.22875C1.431 8.48981 0.900527 8.75025 0.375306 9.01131C0.0842032 9.18722 -0.0234591 9.52842 0.00428907 9.85271C0.0178364 10.0562 -0.061273 10.3229 0.140968 10.4587C0.333099 10.5576 0.576709 10.5013 0.785279 10.5176H1.91776C2.03129 10.3686 2.17319 10.2308 2.34732 10.1263L2.36682 10.1069H2.38637C3.26799 9.67303 4.13842 9.23042 5.02229 8.79595L6.03762 8.30701C5.98007 8.27821 5.9194 8.25692 5.86192 8.22875L5.21761 7.8957L4.88564 7.58267V7.25024C5.14525 7.0593 5.36469 6.78259 5.53002 6.46769C5.30727 6.10709 5.13582 5.69265 5.02229 5.25504C4.83366 5.06097 4.65683 4.84548 4.55368 4.53102C4.44752 4.2073 4.41722 3.8728 4.45608 3.59196C4.49051 3.34317 4.60979 3.10765 4.84659 2.98551C4.77686 2.94012 4.68614 2.90475 4.61228 2.86806C4.57505 2.84978 4.55293 2.82493 4.51469 2.8094C4.48751 2.79832 4.4642 2.79945 4.43659 2.78981C4.35355 2.76101 4.26907 2.72633 4.18272 2.71155C4.1761 2.71055 4.16985 2.71268 4.16317 2.71155C4.08213 2.69878 3.99243 2.69108 3.9094 2.69202Z" fill="black"/>
<path d="M8.4387 0C8.21751 0 7.99945 -1.52852e-05 7.79014 0.0625891C7.6683 0.0625891 7.54958 0.125239 7.43212 0.187844C7.3865 0.187844 7.34027 0.187828 7.29528 0.250433H7.24405C7.13345 0.313037 7.02473 0.375672 6.91977 0.438276H6.86853C6.83791 0.500881 6.81355 0.50085 6.78356 0.563455C6.69796 0.626059 6.60798 0.62609 6.52738 0.751298C6.45428 0.813903 6.39117 0.876461 6.32244 0.939066C6.09057 1.18948 5.88932 1.43993 5.72543 1.75295C5.44395 2.19118 5.23382 2.75462 5.14516 3.31806H5.02569C4.7389 3.44327 4.6683 3.94412 4.85506 4.50756C4.96465 4.88319 5.14703 5.13357 5.33292 5.25878C5.58259 6.26045 6.1115 7.07428 6.80043 7.57511V8.13857L6.25434 8.63943L5.16222 9.20289C4.27904 9.64112 3.39923 10.0793 2.51705 10.5176C2.02813 10.768 1.839 11.394 1.88561 11.8948C1.90836 12.2705 1.78483 12.7087 2.12448 12.8965C2.4472 13.0843 2.83221 12.9592 3.18261 12.9592H10.6231C11.9158 12.9592 13.2048 13.0218 14.4975 12.9592C14.9168 12.9592 15.033 12.5209 14.9924 12.1453C14.9999 11.6444 15.0299 11.081 14.6338 10.7053C14.3107 10.3923 13.8509 10.2671 13.4566 10.0167C12.8774 9.76628 12.2944 9.45331 11.7159 9.20289L10.6231 8.63943L10.077 8.13857V7.57511C10.7661 7.07428 11.2954 6.26045 11.5447 5.25878C11.7309 5.13357 11.9133 4.88319 12.0226 4.50756C12.2095 3.94412 12.1389 3.44327 11.8521 3.31806H11.7327C11.644 2.75462 11.4341 2.19118 11.1523 1.75295C10.9886 1.43993 10.7874 1.18948 10.555 0.939066C10.4862 0.876461 10.4237 0.813903 10.35 0.751298H10.3331C10.1195 0.563485 9.8814 0.375642 9.63335 0.250433C9.57087 0.250433 9.51026 0.187844 9.4459 0.187844C9.40029 0.187844 9.35593 0.125255 9.30907 0.125255C9.16973 0.0626502 9.0279 0.0626044 8.88232 0H8.4387Z" fill="black"/>
</svg>
