<svg width="9" height="12" viewBox="0 0 9 12" fill="none" xmlns="http://www.w3.org/2000/svg">
<path d="M9 6.872V2.0274C6.625 1.9847 4.5682 0 4.5682 0C4.5682 0 2.5113 1.9847 0.136299 2.0274H0V6.7533C0 6.9541 0.043402 7.2937 0.043602 7.2947C0.184602 8.0529 0.897398 10.1274 4.4993 11.9947C4.4995 11.9965 4.5 11.9982 4.5002 12C4.5016 11.999 4.503 11.9985 4.5047 11.9977C4.5061 11.9985 4.5075 11.999 4.5089 12C4.5093 11.9982 4.5096 11.9965 4.5098 11.9947C8.0676 10.1504 8.8061 8.1045 8.9594 7.3237C8.9865 7.1859 9 6.872 9 6.872Z" fill="#EC1723"/>
<path d="M5.2152 4.55006L4.7639 5.00766C4.5909 4.96086 4.4088 4.96086 4.2358 5.00756C4.0628 5.05426 3.905 5.14606 3.7784 5.27376C3.6518 5.40136 3.5607 5.56046 3.5144 5.73486C3.4681 5.90926 3.4681 6.09296 3.5145 6.26736L2.8108 6.97426C2.4742 6.71716 2.1938 6.38296 2 5.99996C2.2909 5.42486 2.7682 4.96746 3.3527 4.70366C3.9371 4.43986 4.5934 4.38576 5.2126 4.55006H5.2152ZM6.1841 5.02566C6.5232 5.28276 6.8037 5.61696 7 5.99996C6.7089 6.57616 6.2307 7.03426 5.6452 7.29816C5.0597 7.56196 4.4022 7.61546 3.7823 7.44986L4.2336 6.99226C4.4065 7.03906 4.5887 7.03906 4.7617 6.99236C4.9347 6.94566 5.0924 6.85386 5.219 6.72616C5.3457 6.59856 5.4367 6.43946 5.4831 6.26506C5.5294 6.09066 5.5293 5.90696 5.4829 5.73256L6.1866 5.02566H6.1841ZM5.9378 4.18396C6.0384 4.08256 6.2023 4.08256 6.3029 4.18396C6.4023 4.28416 6.4023 4.44576 6.3029 4.54606L3.0596 7.81596C2.9591 7.91736 2.7951 7.91736 2.6946 7.81596C2.5952 7.71576 2.5952 7.55416 2.6946 7.45386L5.9378 4.18396Z" fill="white"/>
</svg>
