<svg width="13" height="13" viewBox="0 0 13 13" fill="none" xmlns="http://www.w3.org/2000/svg">
<g opacity="0.8">
<path fill-rule="evenodd" clip-rule="evenodd" d="M0.585786 0.585786C0 1.17157 0 2.11438 0 4V9C0 10.8856 0 11.8284 0.585786 12.4142C1.17157 13 2.11438 13 4 13H9C10.8856 13 11.8284 13 12.4142 12.4142C13 11.8284 13 10.8856 13 9V4C13 2.11438 13 1.17157 12.4142 0.585786C11.8284 0 10.8856 0 9 0H4C2.11438 0 1.17157 0 0.585786 0.585786ZM11 6.61698V6.38636C11 6.01426 10.9478 5.68226 10.8433 5.39037C10.7411 5.09626 10.5958 4.84559 10.4073 4.63837C10.221 4.43115 9.99849 4.27295 9.73959 4.16377C9.48297 4.05459 9.19796 4 8.88456 4C8.57343 4 8.28842 4.05459 8.02952 4.16377C7.7729 4.27295 7.55034 4.43115 7.36185 4.63837C7.17562 4.84559 7.03142 5.09626 6.92922 5.39037C6.82702 5.68226 6.77593 6.01426 6.77593 6.38636V6.61698C6.77593 6.98685 6.82702 7.31885 6.92922 7.61297C7.03369 7.90709 7.18017 8.15775 7.36866 8.36497C7.55715 8.56996 7.77971 8.72705 8.03634 8.83623C8.29523 8.94541 8.58024 9 8.89137 9C9.20477 9 9.48978 8.94541 9.7464 8.83623C10.0053 8.72705 10.2279 8.56996 10.4141 8.36497C10.6003 8.15775 10.7445 7.90709 10.8467 7.61297C10.9489 7.31885 11 6.98685 11 6.61698ZM9.96783 6.37968V6.61698C9.96783 6.87322 9.94398 7.10049 9.89629 7.2988C9.8486 7.49487 9.77933 7.66087 9.68849 7.79679C9.59765 7.93048 9.48524 8.03186 9.35125 8.10094C9.21726 8.17001 9.06397 8.20455 8.89137 8.20455C8.71877 8.20455 8.56548 8.17001 8.43149 8.10094C8.2975 8.03186 8.18395 7.93048 8.09084 7.79679C7.99773 7.66087 7.92733 7.49487 7.87964 7.2988C7.83195 7.10049 7.8081 6.87322 7.8081 6.61698V6.37968C7.8081 6.12121 7.83195 5.89394 7.87964 5.69786C7.92733 5.50178 7.99659 5.3369 8.08743 5.20321C8.18054 5.06952 8.29296 4.96925 8.42468 4.90241C8.55867 4.83333 8.71196 4.7988 8.88456 4.7988C9.05715 4.7988 9.21045 4.83333 9.34444 4.90241C9.47843 4.96925 9.59198 5.06952 9.68509 5.20321C9.7782 5.3369 9.8486 5.50178 9.89629 5.69786C9.94398 5.89394 9.96783 6.12121 9.96783 6.37968ZM6.03671 8.93316V4.06684H5.01817V7.33222L3.02195 4.06684H2V8.93316H3.02195V5.67112L5.01476 8.93316H6.03671Z" fill="#6C6C6C"/>
<path fill-rule="evenodd" clip-rule="evenodd" d="M0.585786 0.585786C0 1.17157 0 2.11438 0 4V9C0 10.8856 0 11.8284 0.585786 12.4142C1.17157 13 2.11438 13 4 13H9C10.8856 13 11.8284 13 12.4142 12.4142C13 11.8284 13 10.8856 13 9V4C13 2.11438 13 1.17157 12.4142 0.585786C11.8284 0 10.8856 0 9 0H4C2.11438 0 1.17157 0 0.585786 0.585786ZM11 6.61698V6.38636C11 6.01426 10.9478 5.68226 10.8433 5.39037C10.7411 5.09626 10.5958 4.84559 10.4073 4.63837C10.221 4.43115 9.99849 4.27295 9.73959 4.16377C9.48297 4.05459 9.19796 4 8.88456 4C8.57343 4 8.28842 4.05459 8.02952 4.16377C7.7729 4.27295 7.55034 4.43115 7.36185 4.63837C7.17562 4.84559 7.03142 5.09626 6.92922 5.39037C6.82702 5.68226 6.77593 6.01426 6.77593 6.38636V6.61698C6.77593 6.98685 6.82702 7.31885 6.92922 7.61297C7.03369 7.90709 7.18017 8.15775 7.36866 8.36497C7.55715 8.56996 7.77971 8.72705 8.03634 8.83623C8.29523 8.94541 8.58024 9 8.89137 9C9.20477 9 9.48978 8.94541 9.7464 8.83623C10.0053 8.72705 10.2279 8.56996 10.4141 8.36497C10.6003 8.15775 10.7445 7.90709 10.8467 7.61297C10.9489 7.31885 11 6.98685 11 6.61698ZM9.96783 6.37968V6.61698C9.96783 6.87322 9.94398 7.10049 9.89629 7.2988C9.8486 7.49487 9.77933 7.66087 9.68849 7.79679C9.59765 7.93048 9.48524 8.03186 9.35125 8.10094C9.21726 8.17001 9.06397 8.20455 8.89137 8.20455C8.71877 8.20455 8.56548 8.17001 8.43149 8.10094C8.2975 8.03186 8.18395 7.93048 8.09084 7.79679C7.99773 7.66087 7.92733 7.49487 7.87964 7.2988C7.83195 7.10049 7.8081 6.87322 7.8081 6.61698V6.37968C7.8081 6.12121 7.83195 5.89394 7.87964 5.69786C7.92733 5.50178 7.99659 5.3369 8.08743 5.20321C8.18054 5.06952 8.29296 4.96925 8.42468 4.90241C8.55867 4.83333 8.71196 4.7988 8.88456 4.7988C9.05715 4.7988 9.21045 4.83333 9.34444 4.90241C9.47843 4.96925 9.59198 5.06952 9.68509 5.20321C9.7782 5.3369 9.8486 5.50178 9.89629 5.69786C9.94398 5.89394 9.96783 6.12121 9.96783 6.37968ZM6.03671 8.93316V4.06684H5.01817V7.33222L3.02195 4.06684H2V8.93316H3.02195V5.67112L5.01476 8.93316H6.03671Z" fill="url(#paint0_linear_1317_400)"/>
<path fill-rule="evenodd" clip-rule="evenodd" d="M0.585786 0.585786C0 1.17157 0 2.11438 0 4V9C0 10.8856 0 11.8284 0.585786 12.4142C1.17157 13 2.11438 13 4 13H9C10.8856 13 11.8284 13 12.4142 12.4142C13 11.8284 13 10.8856 13 9V4C13 2.11438 13 1.17157 12.4142 0.585786C11.8284 0 10.8856 0 9 0H4C2.11438 0 1.17157 0 0.585786 0.585786ZM11 6.61698V6.38636C11 6.01426 10.9478 5.68226 10.8433 5.39037C10.7411 5.09626 10.5958 4.84559 10.4073 4.63837C10.221 4.43115 9.99849 4.27295 9.73959 4.16377C9.48297 4.05459 9.19796 4 8.88456 4C8.57343 4 8.28842 4.05459 8.02952 4.16377C7.7729 4.27295 7.55034 4.43115 7.36185 4.63837C7.17562 4.84559 7.03142 5.09626 6.92922 5.39037C6.82702 5.68226 6.77593 6.01426 6.77593 6.38636V6.61698C6.77593 6.98685 6.82702 7.31885 6.92922 7.61297C7.03369 7.90709 7.18017 8.15775 7.36866 8.36497C7.55715 8.56996 7.77971 8.72705 8.03634 8.83623C8.29523 8.94541 8.58024 9 8.89137 9C9.20477 9 9.48978 8.94541 9.7464 8.83623C10.0053 8.72705 10.2279 8.56996 10.4141 8.36497C10.6003 8.15775 10.7445 7.90709 10.8467 7.61297C10.9489 7.31885 11 6.98685 11 6.61698ZM9.96783 6.37968V6.61698C9.96783 6.87322 9.94398 7.10049 9.89629 7.2988C9.8486 7.49487 9.77933 7.66087 9.68849 7.79679C9.59765 7.93048 9.48524 8.03186 9.35125 8.10094C9.21726 8.17001 9.06397 8.20455 8.89137 8.20455C8.71877 8.20455 8.56548 8.17001 8.43149 8.10094C8.2975 8.03186 8.18395 7.93048 8.09084 7.79679C7.99773 7.66087 7.92733 7.49487 7.87964 7.2988C7.83195 7.10049 7.8081 6.87322 7.8081 6.61698V6.37968C7.8081 6.12121 7.83195 5.89394 7.87964 5.69786C7.92733 5.50178 7.99659 5.3369 8.08743 5.20321C8.18054 5.06952 8.29296 4.96925 8.42468 4.90241C8.55867 4.83333 8.71196 4.7988 8.88456 4.7988C9.05715 4.7988 9.21045 4.83333 9.34444 4.90241C9.47843 4.96925 9.59198 5.06952 9.68509 5.20321C9.7782 5.3369 9.8486 5.50178 9.89629 5.69786C9.94398 5.89394 9.96783 6.12121 9.96783 6.37968ZM6.03671 8.93316V4.06684H5.01817V7.33222L3.02195 4.06684H2V8.93316H3.02195V5.67112L5.01476 8.93316H6.03671Z" fill="url(#paint1_linear_1317_400)"/>
</g>
<defs>
<linearGradient id="paint0_linear_1317_400" x1="6.87653" y1="-12.0989" x2="22.7405" y2="-2.67203" gradientUnits="userSpaceOnUse">
<stop stop-color="#FFD59E"/>
<stop offset="0.572917" stop-color="#FFD056"/>
<stop offset="1" stop-color="#FFAB40"/>
</linearGradient>
<linearGradient id="paint1_linear_1317_400" x1="6.87653" y1="-12.0989" x2="22.7405" y2="-2.67203" gradientUnits="userSpaceOnUse">
<stop stop-color="#7D4702"/>
<stop offset="0.572917" stop-color="#FDD265"/>
<stop offset="1" stop-color="#683E08"/>
</linearGradient>
</defs>
</svg>
