<svg width="13" height="13" viewBox="0 0 13 13" fill="none" xmlns="http://www.w3.org/2000/svg">
<path opacity="0.8" fill-rule="evenodd" clip-rule="evenodd" d="M0.585786 0.585786C0 1.17157 0 2.11438 0 4V9C0 10.8856 0 11.8284 0.585786 12.4142C1.17157 13 2.11438 13 4 13H9C10.8856 13 11.8284 13 12.4142 12.4142C13 11.8284 13 10.8856 13 9V4C13 2.11438 13 1.17157 12.4142 0.585786C11.8284 0 10.8856 0 9 0H4C2.11438 0 1.17157 0 0.585786 0.585786ZM4.5 8C5.32843 8 6 7.32843 6 6.5C6 5.67157 5.32843 5 4.5 5C3.67157 5 3 5.67157 3 6.5C3 7.32843 3.67157 8 4.5 8ZM4.5 4C5.3178 4 6.04389 4.39267 6.5 4.99976C6.95612 4.39267 7.6822 4 8.5 4C9.88071 4 11 5.11929 11 6.5C11 7.88071 9.88071 9 8.5 9C7.6822 9 6.95612 8.60733 6.5 8.00024C6.04389 8.60733 5.3178 9 4.5 9C3.11929 9 2 7.88071 2 6.5C2 5.11929 3.11929 4 4.5 4ZM8.5 8C7.67157 8 7 7.32843 7 6.5C7 5.67157 7.67157 5 8.5 5C9.32843 5 10 5.67157 10 6.5C10 7.32843 9.32843 8 8.5 8Z" fill="black"/>
</svg>
