<svg width="15" height="14" viewBox="0 0 15 14" fill="none" xmlns="http://www.w3.org/2000/svg">
<path d="M13.2184 2.91667H11.7241C11.0345 1.16667 9.36782 0 7.47126 0C5.57471 0 3.90805 1.16667 3.21839 2.91667H1.72414C0.747126 2.91667 0 3.675 0 4.66667V5.01667C0 7.05833 1.66667 8.75 3.67816 8.75H11.3218C13.3333 8.75 15 7.05833 15 5.01667V4.66667C14.9425 3.675 14.1954 2.91667 13.2184 2.91667ZM7.47126 1.16667C8.73563 1.16667 9.82759 1.86667 10.4598 2.91667H4.48276C5.11494 1.86667 6.2069 1.16667 7.47126 1.16667Z" fill="black"/>
<path d="M11.4943 9.91667V11.0833C11.4943 11.4333 11.2644 11.6667 10.9195 11.6667C10.5747 11.6667 10.3448 11.4333 10.3448 11.0833V9.91667H4.5977V11.0833C4.5977 11.4333 4.36782 11.6667 4.02299 11.6667C3.67816 11.6667 3.44828 11.4333 3.44828 11.0833V9.91667C2.06897 9.85833 0.862069 9.21667 0 8.225V12.25C0 13.2417 0.747126 14 1.72414 14H13.2184C14.1954 14 14.9425 13.2417 14.9425 12.25V8.225C14.0805 9.21667 12.8736 9.85833 11.4943 9.91667Z" fill="black"/>
</svg>
