<svg width="12" height="12" viewBox="0 0 12 12" fill="none" xmlns="http://www.w3.org/2000/svg">
<g clip-path="url(#clip0_13_68)">
<path fill-rule="evenodd" clip-rule="evenodd" d="M6 12C4.81332 12 3.65328 11.6481 2.66658 10.9888C1.67989 10.3295 0.910857 9.39246 0.456732 8.2961C0.00260591 7.19975 -0.116222 5.99334 0.115289 4.82946C0.3468 3.66557 0.918251 2.59648 1.75737 1.75736C2.59648 0.918248 3.66557 0.346803 4.82946 0.115292C5.99335 -0.116219 7.19975 0.0025969 8.29611 0.456723C9.39247 0.910848 10.3295 1.67988 10.9888 2.66658C11.6481 3.65327 12 4.81331 12 6C12 6.78793 11.8448 7.56815 11.5433 8.2961C11.2417 9.02406 10.7998 9.68549 10.2426 10.2426C9.68549 10.7998 9.02406 11.2418 8.29611 11.5433C7.56816 11.8448 6.78794 12 6 12ZM9 7.9906C9.12767 8.11841 9.19938 8.29166 9.19938 8.47231C9.19938 8.65295 9.12767 8.8262 9 8.954L8.9558 8.998C8.82756 9.12606 8.65373 9.19798 8.4725 9.19798C8.29127 9.19798 8.11745 9.12606 7.9892 8.998L6.23641 7.247C6.17228 7.18294 6.08535 7.14696 5.99471 7.14696C5.90407 7.14696 5.81713 7.18294 5.75301 7.247L4.0048 8.9964C3.9413 9.05992 3.86592 9.11031 3.78294 9.14469C3.69996 9.17907 3.61103 9.19676 3.52121 9.19676C3.43139 9.19676 3.34246 9.17907 3.25948 9.14469C3.1765 9.11031 3.1011 9.05992 3.0376 8.9964L2.99881 8.9578C2.93507 8.89421 2.88455 8.81861 2.85019 8.73538C2.81583 8.65215 2.79831 8.56293 2.79863 8.47289C2.79894 8.38285 2.81709 8.29376 2.85203 8.21078C2.88697 8.12779 2.93801 8.05255 3.0022 7.9894L4.769 6.2424C4.80135 6.21074 4.82706 6.17294 4.84461 6.13121C4.86216 6.08948 4.8712 6.04467 4.8712 5.9994C4.8712 5.95414 4.86216 5.90932 4.84461 5.86759C4.82706 5.82587 4.80135 5.78807 4.769 5.75641L3.0028 4.0114C2.93856 3.94825 2.88749 3.87299 2.85251 3.78997C2.81753 3.70696 2.79934 3.61784 2.799 3.52776C2.79867 3.43767 2.81619 3.34841 2.85055 3.26514C2.88492 3.18187 2.93543 3.10624 2.9992 3.04261L3.03781 3.004C3.1013 2.94049 3.17669 2.89014 3.25967 2.85582C3.34266 2.8215 3.4316 2.80389 3.5214 2.804C3.7102 2.804 4.17241 3.171 4.29581 3.295L5.75301 4.7524C5.78473 4.78417 5.82241 4.80937 5.86388 4.82657C5.90536 4.84376 5.94981 4.85261 5.99471 4.85261C6.0396 4.85261 6.08406 4.84376 6.12553 4.82657C6.167 4.80937 6.20468 4.78417 6.23641 4.7524L7.9892 3.0028C8.11741 2.87476 8.29121 2.80284 8.4724 2.80284C8.6536 2.80284 8.8274 2.87476 8.95561 3.0028L9 3.04861C9.12773 3.17642 9.19948 3.34971 9.19948 3.5304C9.19948 3.7111 9.12773 3.88439 9 4.0122L7.25461 5.7596C7.22295 5.79119 7.19783 5.8287 7.18069 5.87C7.16356 5.91131 7.15474 5.95558 7.15474 6.0003C7.15474 6.04502 7.16356 6.0893 7.18069 6.1306C7.19783 6.1719 7.22295 6.20942 7.25461 6.241L9 7.9906Z" fill="#FF2222"/>
</g>
<defs>
<clipPath id="clip0_13_68">
<rect width="12" height="12" fill="white"/>
</clipPath>
</defs>
</svg>
