<svg width="11" height="14" viewBox="0 0 11 14" fill="none" xmlns="http://www.w3.org/2000/svg">
<path d="M5.5 0L0 2.54545V6.36364C0 9.89864 2.34361 13.195 5.5 14C8.65639 13.195 11 9.89864 11 6.36364V2.54545L5.5 0ZM4.27778 10.1818L1.83333 7.63636L2.69806 6.73591L4.27778 8.38091L8.30194 4.19045L9.16667 5.09091L4.27778 10.1818Z" fill="black"/>
<path d="M5.5 0L0 2.54545V6.36364C0 9.89864 2.34361 13.195 5.5 14C8.65639 13.195 11 9.89864 11 6.36364V2.54545L5.5 0ZM4.27778 10.1818L1.83333 7.63636L2.69806 6.73591L4.27778 8.38091L8.30194 4.19045L9.16667 5.09091L4.27778 10.1818Z" fill="url(#paint0_linear_4_1434)"/>
<defs>
<linearGradient id="paint0_linear_4_1434" x1="5.81861" y1="-13.0295" x2="20.7311" y2="-6.06699" gradientUnits="userSpaceOnUse">
<stop stop-color="#7D4702"/>
<stop offset="0.572917" stop-color="#FDD265"/>
<stop offset="1" stop-color="#683E08"/>
</linearGradient>
</defs>
</svg>
