<svg width="16" height="14" viewBox="0 0 16 14" fill="none" xmlns="http://www.w3.org/2000/svg">
<path d="M2.52632 5.76471H0V14H2.52632V5.76471Z" fill="white"/>
<path d="M14.3158 4.94118H10.1053V0.823529C10.1053 0.605116 10.0165 0.395648 9.85862 0.241206C9.70069 0.0867644 9.4865 0 9.26316 0H8.42105L4.7703 4.42712C4.40808 4.8664 4.21054 5.41369 4.21053 5.978V12.3529C4.21053 12.7898 4.38797 13.2087 4.70382 13.5176C5.01967 13.8265 5.44806 14 5.89474 14H11.3135C11.785 14 12.247 13.871 12.6474 13.6275C13.0478 13.3841 13.3705 13.0359 13.5791 12.6225L16 7.82353V6.58824C16 6.15141 15.8226 5.73247 15.5067 5.42359C15.1909 5.11471 14.7625 4.94118 14.3158 4.94118Z" fill="white"/>
</svg>
