<svg width="14" height="11" viewBox="0 0 14 11" fill="none" xmlns="http://www.w3.org/2000/svg">
<path d="M4.5 9.75V8.25C4.5 8.17708 4.47656 8.11719 4.42969 8.07031C4.38281 8.02344 4.32292 8 4.25 8H1.75C1.67708 8 1.61719 8.02344 1.57031 8.07031C1.52344 8.11719 1.5 8.17708 1.5 8.25V9.75C1.5 9.82292 1.52344 9.88281 1.57031 9.92969C1.61719 9.97656 1.67708 10 1.75 10H4.25C4.32292 10 4.38281 9.97656 4.42969 9.92969C4.47656 9.88281 4.5 9.82292 4.5 9.75ZM4.5 6.75V5.25C4.5 5.17708 4.47656 5.11719 4.42969 5.07031C4.38281 5.02344 4.32292 5 4.25 5H1.75C1.67708 5 1.61719 5.02344 1.57031 5.07031C1.52344 5.11719 1.5 5.17708 1.5 5.25V6.75C1.5 6.82292 1.52344 6.88281 1.57031 6.92969C1.61719 6.97656 1.67708 7 1.75 7H4.25C4.32292 7 4.38281 6.97656 4.42969 6.92969C4.47656 6.88281 4.5 6.82292 4.5 6.75ZM8.5 9.75V8.25C8.5 8.17708 8.47656 8.11719 8.42969 8.07031C8.38281 8.02344 8.32292 8 8.25 8H5.75C5.67708 8 5.61719 8.02344 5.57031 8.07031C5.52344 8.11719 5.5 8.17708 5.5 8.25V9.75C5.5 9.82292 5.52344 9.88281 5.57031 9.92969C5.61719 9.97656 5.67708 10 5.75 10H8.25C8.32292 10 8.38281 9.97656 8.42969 9.92969C8.47656 9.88281 8.5 9.82292 8.5 9.75ZM4.5 3.75V2.25C4.5 2.17708 4.47656 2.11719 4.42969 2.07031C4.38281 2.02344 4.32292 2 4.25 2H1.75C1.67708 2 1.61719 2.02344 1.57031 2.07031C1.52344 2.11719 1.5 2.17708 1.5 2.25V3.75C1.5 3.82292 1.52344 3.88281 1.57031 3.92969C1.61719 3.97656 1.67708 4 1.75 4H4.25C4.32292 4 4.38281 3.97656 4.42969 3.92969C4.47656 3.88281 4.5 3.82292 4.5 3.75ZM8.5 6.75V5.25C8.5 5.17708 8.47656 5.11719 8.42969 5.07031C8.38281 5.02344 8.32292 5 8.25 5H5.75C5.67708 5 5.61719 5.02344 5.57031 5.07031C5.52344 5.11719 5.5 5.17708 5.5 5.25V6.75C5.5 6.82292 5.52344 6.88281 5.57031 6.92969C5.61719 6.97656 5.67708 7 5.75 7H8.25C8.32292 7 8.38281 6.97656 8.42969 6.92969C8.47656 6.88281 8.5 6.82292 8.5 6.75ZM12.5 9.75V8.25C12.5 8.17708 12.4766 8.11719 12.4297 8.07031C12.3828 8.02344 12.3229 8 12.25 8H9.75C9.67708 8 9.61719 8.02344 9.57031 8.07031C9.52344 8.11719 9.5 8.17708 9.5 8.25V9.75C9.5 9.82292 9.52344 9.88281 9.57031 9.92969C9.61719 9.97656 9.67708 10 9.75 10H12.25C12.3229 10 12.3828 9.97656 12.4297 9.92969C12.4766 9.88281 12.5 9.82292 12.5 9.75ZM8.5 3.75V2.25C8.5 2.17708 8.47656 2.11719 8.42969 2.07031C8.38281 2.02344 8.32292 2 8.25 2H5.75C5.67708 2 5.61719 2.02344 5.57031 2.07031C5.52344 2.11719 5.5 2.17708 5.5 2.25V3.75C5.5 3.82292 5.52344 3.88281 5.57031 3.92969C5.61719 3.97656 5.67708 4 5.75 4H8.25C8.32292 4 8.38281 3.97656 8.42969 3.92969C8.47656 3.88281 8.5 3.82292 8.5 3.75ZM12.5 6.75V5.25C12.5 5.17708 12.4766 5.11719 12.4297 5.07031C12.3828 5.02344 12.3229 5 12.25 5H9.75C9.67708 5 9.61719 5.02344 9.57031 5.07031C9.52344 5.11719 9.5 5.17708 9.5 5.25V6.75C9.5 6.82292 9.52344 6.88281 9.57031 6.92969C9.61719 6.97656 9.67708 7 9.75 7H12.25C12.3229 7 12.3828 6.97656 12.4297 6.92969C12.4766 6.88281 12.5 6.82292 12.5 6.75ZM12.5 3.75V2.25C12.5 2.17708 12.4766 2.11719 12.4297 2.07031C12.3828 2.02344 12.3229 2 12.25 2H9.75C9.67708 2 9.61719 2.02344 9.57031 2.07031C9.52344 2.11719 9.5 2.17708 9.5 2.25V3.75C9.5 3.82292 9.52344 3.88281 9.57031 3.92969C9.61719 3.97656 9.67708 4 9.75 4H12.25C12.3229 4 12.3828 3.97656 12.4297 3.92969C12.4766 3.88281 12.5 3.82292 12.5 3.75ZM13.5 1.25V9.75C13.5 10.0938 13.3776 10.388 13.1328 10.6328C12.888 10.8776 12.5938 11 12.25 11H1.75C1.40625 11 1.11198 10.8776 0.867188 10.6328C0.622396 10.388 0.5 10.0938 0.5 9.75V1.25C0.5 0.90625 0.622396 0.611979 0.867188 0.367188C1.11198 0.122396 1.40625 0 1.75 0H12.25C12.5938 0 12.888 0.122396 13.1328 0.367188C13.3776 0.611979 13.5 0.90625 13.5 1.25Z" fill="currentColor"/>
</svg>
