<svg width="12" height="12" viewBox="0 0 12 12" fill="none" xmlns="http://www.w3.org/2000/svg">
<path d="M1.56667 3.70833V2.07338L4.9133 5.42002L5.01937 5.52608L5.12543 5.42002L5.42002 5.12543L5.52608 5.01937L5.42002 4.9133L2.07338 1.56667H3.70833H3.85833V1.41667V1V0.85H3.70833H1H0.85V1V3.70833V3.85833H1H1.41667H1.56667V3.70833ZM10.4333 8.29167V9.92662L7.0867 6.57998L6.98063 6.47392L6.87457 6.57998L6.57998 6.87457L6.47392 6.98063L6.57998 7.0867L9.92662 10.4333H8.29167H8.14167V10.5833V11V11.15H8.29167H11H11.15V11V8.29167V8.14167H11H10.5833H10.4333V8.29167ZM8.14167 1.41667V1.56667H8.29167H9.92662L6.57998 4.9133L6.47392 5.01937L6.57998 5.12543L6.87457 5.42002L6.98063 5.52608L7.0867 5.42002L10.4333 2.07338V3.70833V3.85833H10.5833H11H11.15V3.70833V1V0.85H11H8.29167H8.14167V1V1.41667ZM3.85833 10.5833V10.4333H3.70833H2.07338L5.42002 7.0867L5.52608 6.98063L5.42002 6.87457L5.12543 6.57998L5.01937 6.47392L4.9133 6.57998L1.56667 9.92662V8.29167V8.14167H1.41667H1H0.85V8.29167V11V11.15H1H3.70833H3.85833V11V10.5833Z" fill="currentColor" stroke="currentColor" stroke-width="0.3"/>
</svg>
