<svg width="14" height="12" viewBox="0 0 14 12" fill="none" xmlns="http://www.w3.org/2000/svg">
<path d="M1 10.1538L13 10.1538C13.2652 10.1538 13.5196 10.2511 13.7071 10.4242C13.8946 10.5973 14 10.8321 14 11.0769C14 11.3217 13.8946 11.5565 13.7071 11.7296C13.5196 11.9027 13.2652 12 13 12L1 12C0.734784 12 0.480429 11.9027 0.292892 11.7296C0.105356 11.5565 -2.3186e-08 11.3217 0 11.0769C2.3186e-08 10.8321 0.105356 10.5973 0.292892 10.4242C0.480429 10.2511 0.734784 10.1538 1 10.1538Z" fill="currentColor"/>
<path d="M3.29 5.27077L6.29 8.04C6.3851 8.12404 6.49725 8.18991 6.62 8.23385C6.86346 8.32617 7.13654 8.32617 7.38 8.23385C7.50275 8.18991 7.6149 8.12404 7.71 8.04L10.71 5.27077C10.8488 5.14096 10.9428 4.97612 10.9801 4.79706C11.0175 4.61799 10.9966 4.43272 10.92 4.26462C10.845 4.09604 10.7176 3.95174 10.5539 3.8499C10.3901 3.74805 10.1974 3.69322 10 3.69231H8V0.923076C8 0.678261 7.89464 0.443473 7.70711 0.270363C7.51957 0.0972525 7.26522 2.14024e-08 7 0C6.73478 -2.14024e-08 6.48043 0.0972525 6.29289 0.270363C6.10536 0.443473 6 0.678261 6 0.923076L6 3.69231L4 3.69231C3.80258 3.69322 3.60986 3.74805 3.44614 3.84989C3.28242 3.95174 3.15502 4.09604 3.08 4.26461C3.00342 4.43272 2.9825 4.61799 3.01987 4.79706C3.05725 4.97612 3.15124 5.14096 3.29 5.27077Z" fill="currentColor"/>
</svg>
