<svg width="16" height="16" viewBox="0 0 16 16" fill="none" xmlns="http://www.w3.org/2000/svg">
<path d="M8 0C6.41775 0 4.87103 0.469192 3.55544 1.34824C2.23985 2.22729 1.21447 3.47672 0.608967 4.93853C0.00346627 6.40034 -0.15496 8.00887 0.153721 9.56072C0.462403 11.1126 1.22433 12.538 2.34315 13.6569C3.46197 14.7757 4.88743 15.5376 6.43928 15.8463C7.99113 16.155 9.59966 15.9965 11.0615 15.391C12.5233 14.7855 13.7727 13.7602 14.6518 12.4446C15.5308 11.129 16 9.58225 16 8C16 6.94942 15.7931 5.90914 15.391 4.93853C14.989 3.96793 14.3997 3.08601 13.6569 2.34315C12.914 1.60028 12.0321 1.011 11.0615 0.608964C10.0909 0.206926 9.05058 0 8 0ZM11.768 6.168L7.768 10.168C7.69363 10.243 7.60515 10.3025 7.50766 10.3431C7.41018 10.3837 7.30561 10.4046 7.2 10.4046C7.09439 10.4046 6.98983 10.3837 6.89234 10.3431C6.79485 10.3025 6.70637 10.243 6.632 10.168L5.032 8.568C4.88136 8.41735 4.79673 8.21304 4.79673 8C4.79673 7.78696 4.88136 7.58264 5.032 7.432C5.18265 7.28135 5.38696 7.19672 5.6 7.19672C5.81304 7.19672 6.01736 7.28135 6.168 7.432L7.2 8.472L10.632 5.032C10.7826 4.88136 10.987 4.79673 11.2 4.79673C11.413 4.79673 11.6174 4.88136 11.768 5.032C11.9186 5.18264 12.0033 5.38696 12.0033 5.6C12.0033 5.81304 11.9186 6.01736 11.768 6.168Z" fill="#1B9B48"/>
</svg>
