<svg width="17" height="17" viewBox="0 0 17 17" fill="none" xmlns="http://www.w3.org/2000/svg">
<rect width="17" height="17" rx="3" fill="#EC1723"/>
<path fill-rule="evenodd" clip-rule="evenodd" d="M8.69941 13.1C11.3504 13.1 13.4994 10.951 13.4994 8.3C13.4994 5.64903 11.3504 3.5 8.69941 3.5C6.04845 3.5 3.89941 5.64903 3.89941 8.3C3.89941 10.951 6.04845 13.1 8.69941 13.1ZM7.92368 6.67573C7.68936 6.44142 7.30947 6.44142 7.07515 6.67573C6.84084 6.91005 6.84084 7.28995 7.07515 7.52427L7.85089 8.3L7.07515 9.07574C6.84084 9.31004 6.84084 9.68996 7.07515 9.92426C7.30947 10.1586 7.68936 10.1586 7.92368 9.92426L8.69941 9.14852L9.47515 9.92426C9.70945 10.1586 10.0894 10.1586 10.3237 9.92426C10.558 9.68996 10.558 9.31004 10.3237 9.07574L9.54793 8.3L10.3237 7.52427C10.558 7.28995 10.558 6.91005 10.3237 6.67573C10.0894 6.44142 9.70945 6.44142 9.47515 6.67573L8.69941 7.45147L7.92368 6.67573Z" fill="white"/>
</svg>
