<svg width="15" height="16" viewBox="0 0 15 16" fill="none" xmlns="http://www.w3.org/2000/svg">
<path d="M8.00587 0.607676C8.62208 0.607675 9.12161 1.10721 9.12161 1.72341L9.12161 13.9965C9.12161 14.6127 8.62208 15.1123 8.00587 15.1123C7.38967 15.1123 6.89014 14.6127 6.89014 13.9965L6.89014 1.72341C6.89014 1.10721 7.38967 0.607676 8.00587 0.607676Z" fill="white"/>
<path d="M14.967 7.86011C14.967 8.47632 14.4674 8.97585 13.8512 8.97585L1.57813 8.97585C0.961923 8.97585 0.462391 8.47632 0.462391 7.86011C0.462391 7.24391 0.961923 6.74438 1.57813 6.74438L13.8512 6.74438C14.4674 6.74438 14.967 7.24391 14.967 7.86011Z" fill="white"/>
</svg>
