<svg width="15" height="15" viewBox="0 0 15 15" fill="none" xmlns="http://www.w3.org/2000/svg">
<path d="M11.25 13.125H3.75C3.25272 13.125 2.77581 12.9275 2.42417 12.5758C2.07254 12.2242 1.875 11.7473 1.875 11.25V3.75C1.875 3.25272 2.07254 2.77581 2.42417 2.42417C2.77581 2.07254 3.25272 1.875 3.75 1.875H6.875C7.04076 1.875 7.19973 1.94085 7.31694 2.05806C7.43415 2.17527 7.5 2.33424 7.5 2.5C7.5 2.66576 7.43415 2.82473 7.31694 2.94194C7.19973 3.05915 7.04076 3.125 6.875 3.125H3.75C3.58424 3.125 3.42527 3.19085 3.30806 3.30806C3.19085 3.42527 3.125 3.58424 3.125 3.75V11.25C3.125 11.4158 3.19085 11.5747 3.30806 11.6919C3.42527 11.8092 3.58424 11.875 3.75 11.875H11.25C11.4158 11.875 11.5747 11.8092 11.6919 11.6919C11.8092 11.5747 11.875 11.4158 11.875 11.25V8.125C11.875 7.95924 11.9408 7.80027 12.0581 7.68306C12.1753 7.56585 12.3342 7.5 12.5 7.5C12.6658 7.5 12.8247 7.56585 12.9419 7.68306C13.0592 7.80027 13.125 7.95924 13.125 8.125V11.25C13.125 11.7473 12.9275 12.2242 12.5758 12.5758C12.2242 12.9275 11.7473 13.125 11.25 13.125Z" fill="#464646"/>
<path d="M6.45127 8.59634C6.50937 8.65492 6.5785 8.70141 6.65466 8.73314C6.73082 8.76487 6.81251 8.78121 6.89502 8.78121C6.97753 8.78121 7.05922 8.76487 7.13538 8.73314C7.21154 8.70141 7.28067 8.65492 7.33877 8.59634L11.2388 4.65884L12.045 5.47134C12.1329 5.55806 12.2445 5.61681 12.3658 5.64017C12.487 5.66353 12.6125 5.65045 12.7263 5.60259C12.8404 5.5557 12.9381 5.47608 13.0071 5.37375C13.076 5.27143 13.1132 5.15098 13.1138 5.02759L13.1138 2.52759C13.1128 2.44591 13.0958 2.36523 13.0638 2.29009C13.0003 2.13737 12.879 2.01601 12.7263 1.95259C12.6511 1.92056 12.5704 1.90358 12.4888 1.90259L9.98877 1.90259C9.86538 1.9032 9.74493 1.94033 9.64261 2.00929C9.54028 2.07825 9.46066 2.17595 9.41377 2.29009C9.36591 2.40391 9.35283 2.52935 9.37619 2.6506C9.39955 2.77184 9.4583 2.88345 9.54502 2.97134L10.3575 3.77759L6.42002 7.70884C6.36344 7.76898 6.31933 7.83973 6.29025 7.91702C6.26118 7.9943 6.2477 8.07658 6.25061 8.1591C6.25351 8.24162 6.27274 8.32275 6.30718 8.3978C6.34163 8.47285 6.3906 8.54033 6.45127 8.59634Z" fill="#464646"/>
</svg>
