<svg width="13" height="13" viewBox="0 0 13 13" fill="none" xmlns="http://www.w3.org/2000/svg">
<path d="M9.75 11.375H3.25C2.81902 11.375 2.4057 11.2038 2.10095 10.899C1.7962 10.5943 1.625 10.181 1.625 9.75V3.25C1.625 2.81902 1.7962 2.4057 2.10095 2.10095C2.4057 1.7962 2.81902 1.625 3.25 1.625H5.95833C6.10199 1.625 6.23977 1.68207 6.34135 1.78365C6.44293 1.88523 6.5 2.02301 6.5 2.16667C6.5 2.31033 6.44293 2.4481 6.34135 2.54968C6.23977 2.65127 6.10199 2.70833 5.95833 2.70833H3.25C3.10634 2.70833 2.96857 2.7654 2.86698 2.86698C2.7654 2.96857 2.70833 3.10634 2.70833 3.25V9.75C2.70833 9.89366 2.7654 10.0314 2.86698 10.133C2.96857 10.2346 3.10634 10.2917 3.25 10.2917H9.75C9.89366 10.2917 10.0314 10.2346 10.133 10.133C10.2346 10.0314 10.2917 9.89366 10.2917 9.75V7.04167C10.2917 6.89801 10.3487 6.76023 10.4503 6.65865C10.5519 6.55707 10.6897 6.5 10.8333 6.5C10.977 6.5 11.1148 6.55707 11.2164 6.65865C11.3179 6.76023 11.375 6.89801 11.375 7.04167V9.75C11.375 10.181 11.2038 10.5943 10.899 10.899C10.5943 11.2038 10.181 11.375 9.75 11.375Z" fill="white"/>
<path d="M11.1907 1.80918C11.1403 1.75841 11.0804 1.71811 11.0144 1.69061C10.9484 1.66311 10.8776 1.64896 10.8061 1.64896C10.7346 1.64896 10.6638 1.66311 10.5978 1.69061C10.5318 1.71811 10.4719 1.75841 10.4215 1.80918L7.0415 5.22168L6.34275 4.51751C6.26658 4.44235 6.16986 4.39144 6.06478 4.37119C5.9597 4.35095 5.85098 4.36228 5.75234 4.40376C5.65342 4.4444 5.56874 4.51341 5.50898 4.60209C5.44921 4.69077 5.41704 4.79516 5.4165 4.9021V7.06876C5.41736 7.13955 5.43208 7.20948 5.45984 7.2746C5.5148 7.40695 5.61998 7.51213 5.75234 7.5671C5.81746 7.59485 5.88739 7.60957 5.95817 7.61043H8.12484C8.23178 7.6099 8.33616 7.57772 8.42485 7.51796C8.51353 7.45819 8.58254 7.37352 8.62317 7.2746C8.66465 7.17595 8.67599 7.06723 8.65574 6.96216C8.6355 6.85708 8.58458 6.76035 8.50942 6.68418L7.80525 5.98543L11.2178 2.57835C11.2668 2.52623 11.305 2.4649 11.3302 2.39792C11.3554 2.33095 11.3671 2.25964 11.3646 2.18812C11.3621 2.1166 11.3454 2.04629 11.3155 1.98125C11.2857 1.9162 11.2433 1.85772 11.1907 1.80918Z" fill="white"/>
</svg>
