<svg width="11" height="14" viewBox="0 0 11 14" fill="none" xmlns="http://www.w3.org/2000/svg">
<path d="M9.94231 1.69231H7.61538V1.26923C7.61538 0.568245 7.04714 0 6.34615 0H4.65385C3.95286 0 3.38462 0.568245 3.38462 1.26923V1.69231H1.05769C0.473555 1.69231 0 2.16586 0 2.75V3.59615C0 3.82982 0.189406 4.01923 0.423077 4.01923H10.5769C10.8106 4.01923 11 3.82982 11 3.59615V2.75C11 2.16586 10.5264 1.69231 9.94231 1.69231ZM4.23077 1.26923C4.23077 1.03601 4.42063 0.846154 4.65385 0.846154H6.34615C6.57938 0.846154 6.76923 1.03601 6.76923 1.26923V1.69231H4.23077V1.26923Z" fill="currentColor"/>
<path d="M0.802616 5.01929C0.727123 5.01929 0.666967 5.08238 0.670563 5.15779L1.0196 12.4834C1.05186 13.1614 1.60874 13.6924 2.28725 13.6924H8.7122C9.39071 13.6924 9.94758 13.1614 9.97984 12.4834L10.3289 5.15779C10.3325 5.08238 10.2723 5.01929 10.1968 5.01929H0.802616ZM7.19203 6.07698C7.19203 5.84323 7.38136 5.6539 7.61511 5.6539C7.84886 5.6539 8.03818 5.84323 8.03818 6.07698V11.577C8.03818 11.8107 7.84886 12.0001 7.61511 12.0001C7.38136 12.0001 7.19203 11.8107 7.19203 11.577V6.07698ZM5.07664 6.07698C5.07664 5.84323 5.26597 5.6539 5.49972 5.6539C5.73347 5.6539 5.9228 5.84323 5.9228 6.07698V11.577C5.9228 11.8107 5.73347 12.0001 5.49972 12.0001C5.26597 12.0001 5.07664 11.8107 5.07664 11.577V6.07698ZM2.96126 6.07698C2.96126 5.84323 3.15059 5.6539 3.38434 5.6539C3.61809 5.6539 3.80741 5.84323 3.80741 6.07698V11.577C3.80741 11.8107 3.61809 12.0001 3.38434 12.0001C3.15059 12.0001 2.96126 11.8107 2.96126 11.577V6.07698Z" fill="currentColor"/>
</svg>
