<svg width="15" height="15" viewBox="0 0 15 15" fill="none" xmlns="http://www.w3.org/2000/svg">
<path d="M11.25 13.125H3.75C3.25272 13.125 2.77581 12.9275 2.42417 12.5758C2.07254 12.2242 1.875 11.7473 1.875 11.25V3.75C1.875 3.25272 2.07254 2.77581 2.42417 2.42417C2.77581 2.07254 3.25272 1.875 3.75 1.875H6.875C7.04076 1.875 7.19973 1.94085 7.31694 2.05806C7.43415 2.17527 7.5 2.33424 7.5 2.5C7.5 2.66576 7.43415 2.82473 7.31694 2.94194C7.19973 3.05915 7.04076 3.125 6.875 3.125H3.75C3.58424 3.125 3.42527 3.19085 3.30806 3.30806C3.19085 3.42527 3.125 3.58424 3.125 3.75V11.25C3.125 11.4158 3.19085 11.5747 3.30806 11.6919C3.42527 11.8092 3.58424 11.875 3.75 11.875H11.25C11.4158 11.875 11.5747 11.8092 11.6919 11.6919C11.8092 11.5747 11.875 11.4158 11.875 11.25V8.125C11.875 7.95924 11.9408 7.80027 12.0581 7.68306C12.1753 7.56585 12.3342 7.5 12.5 7.5C12.6658 7.5 12.8247 7.56585 12.9419 7.68306C13.0592 7.80027 13.125 7.95924 13.125 8.125V11.25C13.125 11.7473 12.9275 12.2242 12.5758 12.5758C12.2242 12.9275 11.7473 13.125 11.25 13.125Z" fill="currentColor"/>
<path d="M12.9125 2.08751C12.8544 2.02893 12.7853 1.98243 12.7091 1.9507C12.6329 1.91897 12.5513 1.90263 12.4688 1.90263C12.3862 1.90263 12.3046 1.91897 12.2284 1.9507C12.1522 1.98243 12.0831 2.02893 12.025 2.08751L8.125 6.02501L7.31875 5.21251C7.23086 5.12578 7.11925 5.06704 6.99801 5.04368C6.87677 5.02032 6.75132 5.0334 6.6375 5.08126C6.52336 5.12815 6.42566 5.20777 6.3567 5.31009C6.28774 5.41242 6.25062 5.53287 6.25 5.65626V8.15626C6.25099 8.23793 6.26797 8.31862 6.3 8.39376C6.36342 8.54648 6.48478 8.66784 6.6375 8.73126C6.71264 8.76328 6.79333 8.78027 6.875 8.78126H9.375C9.49839 8.78064 9.61884 8.74352 9.72116 8.67456C9.82349 8.6056 9.90311 8.50789 9.95 8.39376C9.99786 8.27994 10.0109 8.15449 9.98758 8.03325C9.96422 7.91201 9.90547 7.8004 9.81875 7.71251L9.00625 6.90626L12.9438 2.97501C13.0003 2.91487 13.0444 2.84411 13.0735 2.76683C13.1026 2.68954 13.1161 2.60726 13.1132 2.52474C13.1103 2.44222 13.091 2.36109 13.0566 2.28604C13.0221 2.211 12.9732 2.14352 12.9125 2.08751Z" fill="currentColor"/>
</svg>
