<svg width="21" height="21" viewBox="0 0 21 21" fill="none" xmlns="http://www.w3.org/2000/svg">
<rect width="21" height="21" rx="5" fill="#1B9B48"/>
<rect width="21" height="21" rx="5" fill="url(#paint0_linear_1702_913)"/>
<path d="M16.8369 5.95937C16.8128 5.77887 16.6881 5.63039 16.5196 5.58158L11.1177 4.01675C11.0407 3.99442 10.9594 3.99442 10.8823 4.01675L5.48043 5.58158C5.31188 5.63039 5.1872 5.7788 5.16307 5.95937C5.13174 6.19405 4.41698 11.7389 6.2503 14.4974C8.08145 17.2525 10.7828 17.9585 10.8969 17.9873C10.9308 17.9958 10.9653 18 11 18C11.0347 18 11.0692 17.9957 11.1031 17.9873C11.2173 17.9585 13.9186 17.2525 15.7497 14.4974C17.583 11.739 16.8683 6.19411 16.8369 5.95937ZM14.4835 9.19653L10.7989 13.0346C10.7132 13.1239 10.6007 13.1687 10.4883 13.1687C10.376 13.1687 10.2635 13.124 10.1778 13.0346L7.89961 10.6616C7.81721 10.5758 7.77095 10.4594 7.77095 10.3381C7.77095 10.2167 7.81727 10.1003 7.89961 10.0146L8.35195 9.5434C8.52348 9.36478 8.8016 9.36472 8.97307 9.5434L10.4883 11.1218L13.41 8.0783C13.4924 7.99247 13.6041 7.94427 13.7206 7.94427C13.8371 7.94427 13.9488 7.99247 14.0312 8.0783L14.4835 8.54948C14.655 8.72816 14.655 9.01786 14.4835 9.19653Z" fill="white"/>
<defs>
<linearGradient id="paint0_linear_1702_913" x1="11.1082" y1="-19.5443" x2="36.7346" y2="-4.31635" gradientUnits="userSpaceOnUse">
<stop stop-color="#7D4702"/>
<stop offset="0.572917" stop-color="#FDD265"/>
<stop offset="1" stop-color="#683E08"/>
</linearGradient>
</defs>
</svg>
