<svg width="29" height="29" viewBox="0 0 29 29" fill="none" xmlns="http://www.w3.org/2000/svg">
<path d="M11.9019 4.5C13.0566 2.5 15.9434 2.5 17.0981 4.5L24.4593 17.25C25.614 19.25 24.1706 21.75 21.8612 21.75H7.13878C4.82938 21.75 3.38601 19.25 4.54071 17.25L11.9019 4.5Z" fill="#F0B10D"/>
<path d="M14.0274 18H15.9726V12.274H14.0274V18ZM14.9973 11.8006C15.5507 11.8006 16 11.4199 16 10.9003C16 10.3859 15.5507 10 14.9973 10C14.4493 10 14 10.3859 14 10.9003C14 11.4199 14.4493 11.8006 14.9973 11.8006Z" fill="black"/>
<path d="M14.0274 18H15.9726V12.274H14.0274V18ZM14.9973 11.8006C15.5507 11.8006 16 11.4199 16 10.9003C16 10.3859 15.5507 10 14.9973 10C14.4493 10 14 10.3859 14 10.9003C14 11.4199 14.4493 11.8006 14.9973 11.8006Z" fill="white"/>
</svg>
