<svg width="10" height="12" viewBox="0 0 10 12" fill="none" xmlns="http://www.w3.org/2000/svg">
<path d="M4.99987 5.36841C6.56468 5.36841 7.8332 4.16665 7.8332 2.6842C7.8332 1.20176 6.56468 0 4.99987 0C3.43507 0 2.16655 1.20176 2.16655 2.6842C2.16655 4.16665 3.43507 5.36841 4.99987 5.36841Z" fill="currentColor"/>
<path d="M4.99987 5.36841C6.56468 5.36841 7.8332 4.16665 7.8332 2.6842C7.8332 1.20176 6.56468 0 4.99987 0C3.43507 0 2.16655 1.20176 2.16655 2.6842C2.16655 4.16665 3.43507 5.36841 4.99987 5.36841Z" fill="currentColor"/>
<path d="M4.99999 6C2.23858 6 0 8.12079 0 10.7368C0 11.4345 0.596965 12 1.33334 12H8.66666C9.40304 12 10 11.4345 10 10.7368C9.99998 8.12079 7.76139 6 4.99999 6Z" fill="currentColor"/>
<path d="M4.99999 6C2.23858 6 0 8.12079 0 10.7368C0 11.4345 0.596965 12 1.33334 12H8.66666C9.40304 12 10 11.4345 10 10.7368C9.99998 8.12079 7.76139 6 4.99999 6Z" fill="currentColor"/>
</svg>
