<svg width="13" height="13" viewBox="0 0 13 13" fill="none" xmlns="http://www.w3.org/2000/svg">
<path d="M6.5 13C5.21442 13 3.95771 12.6188 2.8888 11.9046C1.81988 11.1903 0.986755 10.1752 0.494786 8.98745C0.00281635 7.79973 -0.125905 6.49279 0.124899 5.23192C0.375702 3.97104 0.994767 2.81285 1.90381 1.90381C2.81285 0.994768 3.97104 0.375703 5.23191 0.124899C6.49279 -0.125905 7.79972 0.00281635 8.98744 0.494786C10.1752 0.986756 11.1903 1.81988 11.9046 2.8888C12.6188 3.95772 13 5.21442 13 6.5C13 8.22391 12.3152 9.87721 11.0962 11.0962C9.87721 12.3152 8.22391 13 6.5 13V13ZM6.5 1C5.4122 1 4.34884 1.32257 3.44437 1.92692C2.5399 2.53127 1.83495 3.39025 1.41867 4.39524C1.00238 5.40024 0.893465 6.50611 1.10568 7.573C1.3179 8.6399 1.84173 9.6199 2.61092 10.3891C3.3801 11.1583 4.36011 11.6821 5.427 11.8943C6.4939 12.1065 7.59977 11.9976 8.60476 11.5813C9.60975 11.1651 10.4687 10.4601 11.0731 9.55564C11.6774 8.65117 12 7.5878 12 6.5C12 5.04131 11.4205 3.64237 10.3891 2.61092C9.35764 1.57947 7.95869 1 6.5 1Z" fill="black"/>
<path d="M9.25001 9.75C9.1842 9.75038 9.11897 9.73777 9.05805 9.71289C8.99714 9.688 8.94173 9.65134 8.89501 9.605L6.14501 6.855C6.09867 6.80828 6.06201 6.75287 6.03712 6.69195C6.01224 6.63104 5.99963 6.5658 6.00001 6.5V2.5C6.00001 2.36739 6.05269 2.24021 6.14646 2.14645C6.24022 2.05268 6.3674 2 6.50001 2C6.63262 2 6.75979 2.05268 6.85356 2.14645C6.94733 2.24021 7.00001 2.36739 7.00001 2.5V6.295L9.60501 8.895C9.65187 8.94148 9.68907 8.99678 9.71445 9.05771C9.73984 9.11864 9.75291 9.18399 9.75291 9.25C9.75291 9.31601 9.73984 9.38136 9.71445 9.44229C9.68907 9.50322 9.65187 9.55852 9.60501 9.605C9.55829 9.65134 9.50288 9.688 9.44196 9.71289C9.38104 9.73777 9.31581 9.75038 9.25001 9.75Z" fill="black"/>
</svg>
