<svg width="14" height="13" viewBox="0 0 14 13" fill="none" xmlns="http://www.w3.org/2000/svg">
<path d="M13.1509 6.23685C13.1044 2.85443 10.3263 0.150133 6.94388 0.193883C3.56146 0.237633 0.857164 3.01849 0.900914 6.40091C0.947398 9.78334 3.72552 12.4876 7.10795 12.4439C10.4904 12.3974 13.1974 9.61927 13.1509 6.23685ZM7.02591 2.37865C7.5099 2.37865 7.90091 2.76966 7.90091 3.25365C7.90091 3.73763 7.5099 4.12865 7.02591 4.12865C6.54193 4.12865 6.15091 3.73763 6.15091 3.25365C6.15091 2.76966 6.54193 2.37865 7.02591 2.37865ZM8.22904 10.1197H5.82279V9.81888H6.42435V5.44388H5.82279V5.11576H7.62748V9.81888H8.22904V10.1197Z" fill="#1877F2"/>
</svg>
