<svg width="12" height="12" viewBox="0 0 12 12" fill="none" xmlns="http://www.w3.org/2000/svg">
<path d="M7.356 7.04334L6 8.39934H4.8V9.59934H3.6V10.7993L2.4 11.9993H0V9.59934L4.956 4.64334C4.72303 3.87532 4.75338 3.05149 5.04223 2.3027C5.33107 1.55391 5.86185 0.923111 6.55024 0.510511C7.23863 0.0979111 8.04515 -0.072828 8.84168 0.0254168C9.63821 0.123662 10.3791 0.485256 10.9466 1.05276C11.5141 1.62026 11.8757 2.36112 11.9739 3.15766C12.0722 3.95419 11.9014 4.76071 11.4888 5.4491C11.0762 6.13749 10.4454 6.66826 9.69664 6.95711C8.94785 7.24595 8.12401 7.2763 7.356 7.04334ZM10.272 4.27134C10.5234 4.01961 10.6946 3.69902 10.7639 3.35006C10.8332 3.00111 10.7976 2.63943 10.6615 2.31072C10.5254 1.98201 10.2949 1.701 9.9992 1.5032C9.70348 1.30539 9.35578 1.19965 9 1.19934C8.52277 1.19976 8.06524 1.38967 7.728 1.72734L10.272 4.27134Z" fill="white"/>
</svg>
