<svg width="15" height="19" viewBox="0 0 15 19" fill="none" xmlns="http://www.w3.org/2000/svg">
<path d="M12.4748 10.3037C12.4519 7.99531 14.3573 6.88813 14.4425 6.8322C13.3716 5.26645 11.7033 5.05161 11.1095 5.02716C9.69079 4.88307 8.33988 5.86282 7.62016 5.86282C6.90192 5.86282 5.78994 5.04828 4.61349 5.06902C3.06589 5.09199 1.63942 5.96913 0.843027 7.35449C-0.764209 10.1426 0.431865 14.2746 1.99798 16.5375C2.76363 17.6435 3.67671 18.8881 4.87464 18.8426C6.02922 18.797 6.46483 18.0958 7.86056 18.0958C9.25629 18.0958 9.64819 18.8426 10.8695 18.8192C12.1111 18.7966 12.8982 17.6921 13.6576 16.5816C14.5366 15.2966 14.8985 14.0523 14.92 13.9894C14.8929 13.9768 12.4997 13.06 12.4748 10.3037Z" fill="black"/>
<path d="M10.18 3.52974C10.8153 2.75853 11.2457 1.68692 11.1287 0.620117C10.2119 0.657159 9.10212 1.22945 8.44389 1.99992C7.85419 2.6837 7.33857 3.77236 7.47674 4.81989C8.49946 4.89916 9.54255 4.29946 10.18 3.52974Z" fill="black"/>
</svg>
