<svg width="30" height="22" viewBox="0 0 30 22" fill="none" xmlns="http://www.w3.org/2000/svg">
<rect width="21" height="21" rx="4" fill="#1B9B48"/>
<path d="M15.0897 14.1242H5.86662C5.53281 14.1238 5.21275 13.9911 4.97668 13.7551C4.74061 13.5191 4.60781 13.1991 4.60742 12.8652V6.7404C4.60781 6.40656 4.7406 6.0865 4.97666 5.85044C5.21272 5.61438 5.53278 5.48159 5.86662 5.4812H15.0897C15.4235 5.48159 15.7435 5.61439 15.9795 5.85046C16.2155 6.08653 16.3483 6.40659 16.3486 6.7404V12.8652C16.3483 13.199 16.2155 13.5191 15.9795 13.7551C15.7435 13.9911 15.4235 14.1238 15.0897 14.1242ZM5.86662 6.35747C5.76509 6.35755 5.66773 6.39792 5.59594 6.46972C5.52414 6.54151 5.48377 6.63887 5.48369 6.7404V12.8652C5.48385 12.9667 5.52425 13.064 5.59604 13.1357C5.66783 13.2075 5.76514 13.2478 5.86662 13.2479H15.0897C15.1911 13.2477 15.2883 13.2074 15.3601 13.1356C15.4318 13.0639 15.4721 12.9667 15.4723 12.8652V6.7404C15.4722 6.63892 15.4319 6.54161 15.3602 6.46982C15.2884 6.39803 15.1912 6.35763 15.0897 6.35747H5.86662Z" fill="white"/>
<path d="M12.4948 15.6574H8.464C8.39305 15.6573 8.32319 15.64 8.26041 15.607C8.19763 15.5739 8.14382 15.5261 8.1036 15.4677C8.06337 15.4093 8.03794 15.3419 8.02949 15.2715C8.02104 15.201 8.02982 15.1296 8.05507 15.0633L8.63925 13.5298C8.67083 13.4469 8.72684 13.3756 8.79986 13.3252C8.87287 13.2748 8.95947 13.2478 9.04818 13.2477H11.9107C11.9994 13.2478 12.086 13.2748 12.159 13.3252C12.232 13.3756 12.288 13.4469 12.3196 13.5298L12.9038 15.0633C12.929 15.1296 12.9378 15.201 12.9294 15.2715C12.9209 15.3419 12.8955 15.4093 12.8552 15.4677C12.815 15.5261 12.7612 15.5739 12.6984 15.607C12.6357 15.64 12.5658 15.6573 12.4948 15.6574ZM9.09988 14.7812H11.859L11.6086 14.124H9.35049L9.09988 14.7812Z" fill="white"/>
<path d="M13.3855 15.6575H7.5729C7.4567 15.6575 7.34526 15.6114 7.26309 15.5292C7.18093 15.447 7.13477 15.3356 7.13477 15.2194C7.13477 15.1032 7.18093 14.9917 7.26309 14.9096C7.34526 14.8274 7.4567 14.7812 7.5729 14.7812H13.3855C13.5017 14.7812 13.6131 14.8274 13.6953 14.9096C13.7775 14.9917 13.8236 15.1032 13.8236 15.2194C13.8236 15.3356 13.7775 15.447 13.6953 15.5292C13.6131 15.6114 13.5017 15.6575 13.3855 15.6575Z" fill="white"/>
<path d="M15.9113 12.6789H5.04556C4.92936 12.6789 4.81792 12.6327 4.73575 12.5506C4.65358 12.4684 4.60742 12.3569 4.60742 12.2407C4.60742 12.1245 4.65358 12.0131 4.73575 11.9309C4.81792 11.8488 4.92936 11.8026 5.04556 11.8026H15.9113C16.0275 11.8026 16.139 11.8488 16.2211 11.9309C16.3033 12.0131 16.3495 12.1245 16.3495 12.2407C16.3495 12.3569 16.3033 12.4684 16.2211 12.5506C16.139 12.6327 16.0275 12.6789 15.9113 12.6789Z" fill="white"/>
<mask id="path-6-outside-1_4369_848" maskUnits="userSpaceOnUse" x="15" y="9" width="15" height="13" fill="black">
<rect fill="white" x="15" y="9" width="15" height="13"/>
<path d="M22.0299 10.2605L16.0722 20.2139C16.0248 20.2936 15.9999 20.3838 16 20.4757C16.0001 20.5676 16.0252 20.6578 16.0728 20.7374C16.1204 20.8169 16.1888 20.8831 16.2712 20.9292C16.3535 20.9752 16.447 20.9997 16.5423 21H28.4577C28.553 20.9997 28.6465 20.9752 28.7288 20.9292C28.8112 20.8831 28.8796 20.8169 28.9272 20.7374C28.9748 20.6578 28.9999 20.5676 29 20.4757C29.0001 20.3838 28.9752 20.2936 28.9278 20.2139L22.9701 10.2605C22.9222 10.1812 22.8535 10.1155 22.7711 10.0698C22.6886 10.0241 22.5951 10 22.5 10C22.4049 10 22.3114 10.0241 22.2289 10.0698C22.1465 10.1155 22.0778 10.1812 22.0299 10.2605Z"/>
<path d="M21.7336 18.7599C21.7336 18.6137 21.7785 18.4708 21.8627 18.3492C21.9469 18.2276 22.0667 18.1329 22.2067 18.0769C22.3467 18.021 22.5009 18.0063 22.6495 18.0348C22.7982 18.0634 22.9348 18.1338 23.042 18.2372C23.1491 18.3406 23.2221 18.4723 23.2517 18.6157C23.2813 18.7591 23.2661 18.9078 23.2081 19.0428C23.1501 19.1779 23.0518 19.2934 22.9258 19.3746C22.7998 19.4559 22.6516 19.4992 22.5 19.4992C22.3982 19.5034 22.2966 19.4872 22.2016 19.4515C22.1067 19.4158 22.0205 19.3615 21.9484 19.292C21.8763 19.2225 21.82 19.1393 21.7831 19.0477C21.7461 18.9561 21.7292 18.8581 21.7336 18.7599ZM22.012 17.6116L21.8179 13.9151H23.1617L22.9752 17.6116H22.012Z"/>
</mask>
<path d="M22.0299 10.2605L16.0722 20.2139C16.0248 20.2936 15.9999 20.3838 16 20.4757C16.0001 20.5676 16.0252 20.6578 16.0728 20.7374C16.1204 20.8169 16.1888 20.8831 16.2712 20.9292C16.3535 20.9752 16.447 20.9997 16.5423 21H28.4577C28.553 20.9997 28.6465 20.9752 28.7288 20.9292C28.8112 20.8831 28.8796 20.8169 28.9272 20.7374C28.9748 20.6578 28.9999 20.5676 29 20.4757C29.0001 20.3838 28.9752 20.2936 28.9278 20.2139L22.9701 10.2605C22.9222 10.1812 22.8535 10.1155 22.7711 10.0698C22.6886 10.0241 22.5951 10 22.5 10C22.4049 10 22.3114 10.0241 22.2289 10.0698C22.1465 10.1155 22.0778 10.1812 22.0299 10.2605Z" fill="#EFCC00"/>
<path d="M21.7336 18.7599C21.7336 18.6137 21.7785 18.4708 21.8627 18.3492C21.9469 18.2276 22.0667 18.1329 22.2067 18.0769C22.3467 18.021 22.5009 18.0063 22.6495 18.0348C22.7982 18.0634 22.9348 18.1338 23.042 18.2372C23.1491 18.3406 23.2221 18.4723 23.2517 18.6157C23.2813 18.7591 23.2661 18.9078 23.2081 19.0428C23.1501 19.1779 23.0518 19.2934 22.9258 19.3746C22.7998 19.4559 22.6516 19.4992 22.5 19.4992C22.3982 19.5034 22.2966 19.4872 22.2016 19.4515C22.1067 19.4158 22.0205 19.3615 21.9484 19.292C21.8763 19.2225 21.82 19.1393 21.7831 19.0477C21.7461 18.9561 21.7292 18.8581 21.7336 18.7599ZM22.012 17.6116L21.8179 13.9151H23.1617L22.9752 17.6116H22.012Z" fill="white"/>
<path d="M22.0299 10.2605L21.1741 9.74312L21.1719 9.74689L22.0299 10.2605ZM16.0722 20.2139L15.2141 19.7003L15.2127 19.7027L16.0722 20.2139ZM16.5423 21L16.5389 22H16.5423V21ZM28.4577 21V22L28.4611 22L28.4577 21ZM28.9278 20.2139L29.7873 19.7027L29.7859 19.7003L28.9278 20.2139ZM22.9701 10.2605L23.8281 9.74689L23.8258 9.74313L22.9701 10.2605ZM22.5 10V9V10ZM21.7336 18.7599L22.7326 18.8041L22.7336 18.782V18.7599H21.7336ZM22.5 19.4992V18.4992H22.4795L22.4589 18.5001L22.5 19.4992ZM22.012 17.6116L21.0134 17.664L21.0632 18.6116H22.012V17.6116ZM21.8179 13.9151V12.9151H20.764L20.8193 13.9675L21.8179 13.9151ZM23.1617 13.9151L24.1604 13.9655L24.2134 12.9151H23.1617V13.9151ZM22.9752 17.6116V18.6116H23.926L23.9739 17.6619L22.9752 17.6116ZM21.1719 9.74689L15.2141 19.7003L16.9302 20.7275L22.888 10.7741L21.1719 9.74689ZM15.2127 19.7027C15.074 19.9358 14.9997 20.2029 15 20.4769L17 20.4745C17.0001 20.5647 16.9755 20.6513 16.9316 20.7251L15.2127 19.7027ZM15 20.4769C15.0003 20.7508 15.0753 21.0178 15.2145 21.2506L16.9311 20.2241C16.9751 20.2978 16.9999 20.3843 17 20.4745L15 20.4769ZM15.2145 21.2506C15.3536 21.4831 15.5508 21.672 15.7829 21.8019L16.7594 20.0564C16.8268 20.0941 16.8872 20.1508 16.9311 20.2241L15.2145 21.2506ZM15.7829 21.8019C16.0149 21.9316 16.2754 21.9991 16.5389 22L16.5456 20C16.6186 20.0003 16.6922 20.0189 16.7594 20.0564L15.7829 21.8019ZM16.5423 22H28.4577V20H16.5423V22ZM28.4611 22C28.7246 21.9991 28.9851 21.9316 29.2171 21.8019L28.2406 20.0564C28.3078 20.0189 28.3814 20.0003 28.4543 20L28.4611 22ZM29.2171 21.8019C29.4492 21.672 29.6464 21.4831 29.7855 21.2506L28.0689 20.2241C28.1128 20.1508 28.1732 20.0941 28.2406 20.0564L29.2171 21.8019ZM29.7855 21.2506C29.9247 21.0177 29.9997 20.7508 30 20.4769L28 20.4745C28.0001 20.3843 28.0249 20.2978 28.0689 20.2241L29.7855 21.2506ZM30 20.4769C30.0003 20.2029 29.926 19.9358 29.7873 19.7027L28.0684 20.7251C28.0245 20.6513 27.9999 20.5647 28 20.4745L30 20.4769ZM29.7859 19.7003L23.8281 9.74689L22.112 10.7741L28.0698 20.7275L29.7859 19.7003ZM23.8258 9.74313C23.6859 9.51158 23.4881 9.32382 23.2557 9.19507L22.2864 10.9444C22.219 10.9071 22.1585 10.8509 22.1143 10.7778L23.8258 9.74313ZM23.2557 9.19507C23.0236 9.06642 22.7631 9 22.5 9V11C22.4271 11 22.3536 10.9817 22.2864 10.9444L23.2557 9.19507ZM22.5 9C22.2369 9 21.9764 9.06642 21.7443 9.19507L22.7136 10.9444C22.6464 10.9817 22.5729 11 22.5 11V9ZM21.7443 9.19507C21.5119 9.32382 21.3141 9.51158 21.1741 9.74313L22.8857 10.7778C22.8415 10.8509 22.781 10.9071 22.7136 10.9444L21.7443 9.19507ZM22.7336 18.7599C22.7336 18.8197 22.715 18.875 22.6848 18.9186L21.0407 17.7798C20.842 18.0666 20.7336 18.4077 20.7336 18.7599H22.7336ZM22.6848 18.9186C22.6549 18.9618 22.6162 18.9902 22.5777 19.0055L21.8357 17.1483C21.5171 17.2756 21.239 17.4934 21.0407 17.7798L22.6848 18.9186ZM22.5777 19.0055C22.5395 19.0208 22.4994 19.0243 22.4611 19.0169L22.838 17.0528C22.5023 16.9883 22.154 17.0211 21.8357 17.1483L22.5777 19.0055ZM22.4611 19.0169C22.4226 19.0095 22.3825 18.9905 22.3477 18.9569L23.7362 17.5174C23.487 17.277 23.1738 17.1172 22.838 17.0528L22.4611 19.0169ZM22.3477 18.9569C22.3125 18.9229 22.2842 18.8752 22.2723 18.8177L24.2311 18.4137C24.1601 18.0694 23.9858 17.7582 23.7362 17.5174L22.3477 18.9569ZM22.2723 18.8177C22.2604 18.7599 22.2669 18.7003 22.2892 18.6483L24.127 19.4374C24.2653 19.1152 24.3022 18.7584 24.2311 18.4137L22.2723 18.8177ZM22.2892 18.6483C22.3114 18.5966 22.3464 18.5584 22.3841 18.5341L23.4676 20.2152C23.7573 20.0284 23.9888 19.7592 24.127 19.4374L22.2892 18.6483ZM22.3841 18.5341C22.4214 18.51 22.4617 18.4992 22.5 18.4992V20.4992C22.8415 20.4992 23.1781 20.4017 23.4676 20.2152L22.3841 18.5341ZM22.4589 18.5001C22.4903 18.4988 22.5223 18.5037 22.5533 18.5154L21.85 20.3876C22.0709 20.4706 22.3061 20.508 22.5411 20.4984L22.4589 18.5001ZM22.5533 18.5154C22.5844 18.527 22.6152 18.5457 22.6427 18.5723L21.2542 20.0117C21.4258 20.1773 21.629 20.3046 21.85 20.3876L22.5533 18.5154ZM22.6427 18.5723C22.6702 18.5989 22.694 18.6329 22.7103 18.6733L20.8558 19.4221C20.9461 19.6457 21.0825 19.8461 21.2542 20.0117L22.6427 18.5723ZM22.7103 18.6733C22.7267 18.7138 22.7346 18.7585 22.7326 18.8041L20.7345 18.7158C20.7239 18.9578 20.7655 19.1984 20.8558 19.4221L22.7103 18.6733ZM23.0107 17.5591L22.8165 13.8626L20.8193 13.9675L21.0134 17.664L23.0107 17.5591ZM21.8179 14.9151H23.1617V12.9151H21.8179V14.9151ZM22.163 13.8647L21.9765 17.5612L23.9739 17.6619L24.1604 13.9655L22.163 13.8647ZM22.9752 16.6116H22.012V18.6116H22.9752V16.6116Z" fill="white" mask="url(#path-6-outside-1_4369_848)"/>
</svg>
