<svg width="30" height="30" viewBox="0 0 30 30" fill="none" xmlns="http://www.w3.org/2000/svg">
<path fill-rule="evenodd" clip-rule="evenodd" d="M30 5.32359C30 2.38345 27.6165 1.07864e-06 24.6764 8.45937e-07L5.32359 0C2.38345 -1.28518e-07 1.07864e-06 2.38345 8.45938e-07 5.32359L0 24.6764C-1.28518e-07 27.6165 2.38345 30 5.32359 30H24.6764C27.6165 30 30 27.6165 30 24.6764V5.32359ZM15.1511 19.9345C15.1511 22.5031 17.2407 24.5927 19.8093 24.5927C20.7737 24.5927 21.6705 24.2981 22.4145 23.7943L24.7274 26.1072C24.9004 26.2803 25.1275 26.3672 25.3547 26.3672C25.5819 26.3672 25.809 26.2803 25.982 26.1072C26.3289 25.7603 26.3289 25.1996 25.982 24.8526L23.6691 22.5398C24.1729 21.7957 24.4674 20.8989 24.4674 19.9345C24.4674 17.3659 22.3779 15.2764 19.8093 15.2764C17.2407 15.2764 15.1511 17.3659 15.1511 19.9345ZM21.8438 21.969C21.8636 21.9492 21.8842 21.9305 21.9053 21.9129C22.3933 21.3961 22.6929 20.6997 22.6929 19.9345C22.6929 18.3445 21.3993 17.0509 19.8093 17.0509C18.2193 17.0509 16.9257 18.3445 16.9257 19.9345C16.9257 21.5245 18.2193 22.8182 19.8093 22.8182C20.5744 22.8182 21.2709 22.5186 21.7876 22.0306C21.8052 22.0094 21.824 21.9889 21.8438 21.969ZM7.38758 5.07288H17.5911C18.9398 5.07288 20.0311 6.16421 20.0311 7.51284V13.5108C19.9601 13.5019 19.8803 13.5019 19.8093 13.5019C16.2603 13.5019 13.3766 16.3855 13.3766 19.9345C13.3766 21.3453 13.8291 22.6407 14.6099 23.7054H7.38758C6.03896 23.7054 4.94762 22.614 4.94762 21.2654V7.51284C4.94762 6.16421 6.03896 5.07288 7.38758 5.07288ZM17.6065 10.8278C17.6065 11.5818 17.0156 12.0577 16.0531 12.0577C15.2563 12.0577 14.7457 11.7395 14.5906 11.3171C14.5638 11.2476 14.5478 11.1727 14.5478 11.1005C14.5478 10.8866 14.6949 10.7449 14.9034 10.7449C15.0692 10.7449 15.1788 10.8091 15.2751 10.9802C15.4007 11.2743 15.7028 11.408 16.0718 11.408C16.5049 11.408 16.7991 11.1995 16.7991 10.9161C16.7991 10.662 16.6172 10.5177 16.1333 10.4187L15.7242 10.3385C14.9542 10.1861 14.5772 9.81714 14.5772 9.24232C14.5772 8.53647 15.1922 8.06856 16.0504 8.06856C16.7563 8.06856 17.2883 8.36537 17.4594 8.86798C17.4782 8.92146 17.4889 8.97764 17.4889 9.0471C17.4889 9.23962 17.3498 9.37065 17.144 9.37065C16.9622 9.37065 16.8499 9.29843 16.7589 9.13271C16.6306 8.84123 16.3819 8.72092 16.0504 8.72092C15.652 8.72092 15.3874 8.90812 15.3874 9.19152C15.3874 9.42946 15.5718 9.57651 16.029 9.66739L16.4354 9.75031C17.2536 9.9134 17.6065 10.2423 17.6065 10.8278ZM7.50244 12.0443C7.71639 12.0443 7.8367 11.9374 7.91154 11.6807L8.11472 11.0791H9.50775L9.71092 11.6887C9.78313 11.9401 9.90345 12.0443 10.1307 12.0443C10.366 12.0443 10.5344 11.8866 10.5344 11.6647C10.5344 11.5844 10.521 11.5122 10.4836 11.408L9.42482 8.53647C9.3099 8.22094 9.12269 8.08196 8.80722 8.08196C8.5024 8.08196 8.31257 8.22633 8.20027 8.5391L7.14689 11.408C7.11213 11.5069 7.0934 11.5978 7.0934 11.6647C7.0934 11.8973 7.25117 12.0443 7.50244 12.0443ZM8.29121 10.4535L8.79119 8.87336H8.80992L9.32054 10.4535H8.29121ZM11.3206 11.9935H12.3901C13.5477 11.9935 14.2295 11.2743 14.2295 10.0497C14.2295 8.8252 13.5477 8.13539 12.3901 8.13539H11.3206C11.0666 8.13539 10.9169 8.29046 10.9169 8.5552V11.571C10.9169 11.8384 11.0666 11.9935 11.3206 11.9935ZM11.7243 11.3251V8.80115H12.2938C13.005 8.80115 13.4061 9.24495 13.4061 10.0524C13.4061 10.8866 13.0157 11.3251 12.2938 11.3251H11.7243ZM7.15309 14.2751C7.15309 14.0651 7.32338 13.8948 7.53338 13.8948H13.009C13.219 13.8948 13.3893 14.0651 13.3893 14.2751C13.3893 14.4851 13.219 14.6553 13.009 14.6553H7.53338C7.32338 14.6553 7.15309 14.4851 7.15309 14.2751ZM7.53338 16.1763C7.32338 16.1763 7.15309 16.3466 7.15309 16.5566C7.15309 16.7666 7.32338 16.9368 7.53338 16.9368H11.412C11.622 16.9368 11.7923 16.7666 11.7923 16.5566C11.7923 16.3466 11.622 16.1763 11.412 16.1763H7.53338ZM7.15309 18.8381C7.15309 18.6281 7.32338 18.4579 7.53338 18.4579H11.412C11.622 18.4579 11.7923 18.6281 11.7923 18.8381C11.7923 19.0481 11.622 19.2184 11.412 19.2184H7.53338C7.32338 19.2184 7.15309 19.0481 7.15309 18.8381Z" fill="white" fill-opacity="0.77"/>
</svg>
