<svg width="13" height="13" viewBox="0 0 13 13" fill="none" xmlns="http://www.w3.org/2000/svg">
<path d="M10.2056 7.64255C10.1703 7.48707 10.0842 7.34043 9.94858 7.22181C9.81188 7.10396 9.64535 7.03285 9.47258 7.00685L6.69448 6.46924L7.49814 7.00256L6.22928 10.9802L5.51473 8.02553L4.79999 10.9802L3.53145 7.00263L4.33498 6.4693L1.55669 7.00692C1.38405 7.03285 1.21732 7.10403 1.08082 7.22187C0.9451 7.34043 0.858975 7.48714 0.82368 7.64262L0 11.2605L1.55357 11.7998C2.0698 12.3359 3.51358 12.7304 5.24537 12.7679H5.51467H5.78377C7.51576 12.7304 8.95954 12.3359 9.47551 11.7998L11.0293 11.2605L10.2056 7.64255Z" fill="currentColor"/>
<path d="M5.51453 6.87305L4.87402 7.1025L5.51453 8.02575L6.15491 7.1025L5.51453 6.87305Z" fill="currentColor"/>
<path d="M7.89208 3.31025C7.89208 1.66822 7.21647 0.381348 5.51457 0.381348C3.81248 0.381348 3.13694 1.66822 3.13694 3.31025C2.95897 3.4032 2.84216 3.62108 3.01682 4.0881C3.10509 4.32269 3.26057 4.51918 3.39232 4.62201C3.87729 5.82958 4.83123 6.76188 5.51457 6.76188C6.19759 6.76188 7.15166 5.82952 7.63656 4.62201C7.76858 4.51918 7.92386 4.32275 8.012 4.0881C8.18705 3.62108 8.07018 3.40313 7.89208 3.31025Z" fill="currentColor"/>
<path d="M9.57799 2.66406H8.31543C8.32355 2.73582 8.33044 2.80849 8.3359 2.88279H9.57793V2.66406H9.57799Z" fill="currentColor"/>
<path d="M12.1309 1.91016H8.16504C8.18636 1.98133 8.20495 2.05472 8.22263 2.12901H12.1309V1.91016Z" fill="currentColor"/>
<path d="M12.8508 0.381987C12.7511 0.282407 12.6203 0.232422 12.4896 0.232422H6.87012C7.11939 0.363397 7.34039 0.534412 7.53045 0.743062H12.4896V4.31741H11.123L10.0885 5.35202V4.31741H8.41419C8.33379 4.50598 8.21893 4.68434 8.08653 4.82818H9.57782V6.23257C9.57782 6.28964 9.61169 6.34398 9.66778 6.36732C9.72401 6.39065 9.78634 6.37629 9.82684 6.33566L11.3345 4.82812H12.4896C12.6203 4.82812 12.751 4.77813 12.8508 4.67842C12.9505 4.57871 13.0002 4.44806 13.0002 4.31735V0.743062C13.0002 0.612347 12.9505 0.481827 12.8508 0.381987Z" fill="currentColor"/>
<path d="M12.131 1.15625H7.83691C7.87929 1.22652 7.9194 1.29931 7.95677 1.37511H12.131V1.15625V1.15625Z" fill="currentColor"/>
</svg>
