<svg width="46" height="48" viewBox="0 0 46 48" fill="none" xmlns="http://www.w3.org/2000/svg">
<path fill-rule="evenodd" clip-rule="evenodd" d="M46 8.51775C46 3.81352 42.3454 1.72583e-06 37.8372 1.3535e-06L8.16284 0C3.65463 -2.05628e-07 1.65392e-06 3.81352 1.2971e-06 8.51775L0 39.4823C-1.97061e-07 44.1865 3.65463 48 8.16284 48H37.8372C42.3454 48 46 44.1865 46 39.4823V8.51775ZM23.2317 31.8952C23.2317 36.005 26.4357 39.3483 30.3742 39.3483C31.8529 39.3483 33.228 38.877 34.3689 38.0709L37.9153 41.7715C38.1807 42.0484 38.5289 42.1875 38.8772 42.1875C39.2255 42.1875 39.5737 42.0484 39.8391 41.7715C40.371 41.2165 40.371 40.3193 39.8391 39.7642L36.2927 36.0636C37.0651 34.8731 37.5167 33.4382 37.5167 31.8952C37.5167 27.7855 34.3128 24.4422 30.3742 24.4422C26.4357 24.4422 23.2317 27.7855 23.2317 31.8952ZM33.4938 35.1504C33.5242 35.1187 33.5557 35.0888 33.5882 35.0606C34.3365 34.2338 34.7958 33.1195 34.7958 31.8952C34.7958 29.3512 32.8122 27.2814 30.3742 27.2814C27.9363 27.2814 25.9527 29.3512 25.9527 31.8952C25.9527 34.4392 27.9363 36.5091 30.3742 36.5091C31.5475 36.5091 32.6154 36.0298 33.4077 35.2489C33.4347 35.2151 33.4634 35.1822 33.4938 35.1504ZM11.3276 8.1166H26.9731C29.041 8.1166 30.7144 9.86274 30.7144 12.0205V21.6172C30.6056 21.603 30.4831 21.603 30.3742 21.603C24.9324 21.603 20.5108 26.2168 20.5108 31.8952C20.5108 34.1525 21.2047 36.2251 22.4019 37.9286H11.3276C9.25973 37.9286 7.58635 36.1825 7.58635 34.0247V12.0205C7.58635 9.86274 9.25973 8.1166 11.3276 8.1166ZM26.9966 17.3245C26.9966 18.5308 26.0906 19.2923 24.6147 19.2923C23.3931 19.2923 22.61 18.7832 22.3722 18.1073C22.3312 17.9961 22.3066 17.8763 22.3066 17.7608C22.3066 17.4186 22.5321 17.1918 22.8519 17.1918C23.1061 17.1918 23.2742 17.2945 23.4218 17.5683C23.6144 18.0389 24.0777 18.2527 24.6434 18.2527C25.3076 18.2527 25.7586 17.9191 25.7586 17.4657C25.7586 17.0592 25.4798 16.8283 24.7377 16.6699L24.1104 16.5417C22.9298 16.2978 22.3518 15.7074 22.3518 14.7877C22.3518 13.6584 23.2946 12.9097 24.6107 12.9097C25.693 12.9097 26.5088 13.3846 26.7711 14.1888C26.7999 14.2743 26.8163 14.3642 26.8163 14.4754C26.8163 14.7834 26.6031 14.993 26.2874 14.993C26.0086 14.993 25.8364 14.8775 25.697 14.6123C25.5002 14.146 25.119 13.9535 24.6107 13.9535C23.9998 13.9535 23.594 14.253 23.594 14.7064C23.594 15.0871 23.8768 15.3224 24.5778 15.4678L25.201 15.6005C26.4555 15.8614 26.9966 16.3876 26.9966 17.3245ZM11.5037 19.2709C11.8318 19.2709 12.0163 19.0998 12.131 18.6891L12.4426 17.7266H14.5785L14.8901 18.702C15.0008 19.1041 15.1853 19.2709 15.5337 19.2709C15.8945 19.2709 16.1527 19.0185 16.1527 18.6635C16.1527 18.5351 16.1323 18.4196 16.0748 18.2527L14.4514 13.6584C14.2752 13.1535 13.9881 12.9311 13.5044 12.9311C13.037 12.9311 12.7459 13.1621 12.5737 13.6626L10.9586 18.2527C10.9053 18.4111 10.8766 18.5565 10.8766 18.6635C10.8766 19.0357 11.1185 19.2709 11.5037 19.2709ZM12.7132 16.7255L13.4798 14.1974H13.5085L14.2915 16.7255H12.7132ZM17.3582 19.1896H18.9981C20.7732 19.1896 21.8186 18.0389 21.8186 16.0796C21.8186 14.1203 20.7732 13.0166 18.9981 13.0166H17.3582C16.9687 13.0166 16.7392 13.2647 16.7392 13.6883V18.5137C16.7392 18.9415 16.9687 19.1896 17.3582 19.1896ZM17.9773 18.1201V14.0818H18.8505C19.941 14.0818 20.5559 14.7919 20.5559 16.0839C20.5559 17.4186 19.9574 18.1201 18.8505 18.1201H17.9773ZM10.9681 22.8401C10.9681 22.5041 11.2292 22.2317 11.5512 22.2317H19.9472C20.2692 22.2317 20.5303 22.5041 20.5303 22.8401C20.5303 23.1761 20.2692 23.4485 19.9472 23.4485H11.5512C11.2292 23.4485 10.9681 23.1761 10.9681 22.8401ZM11.5512 25.8821C11.2292 25.8821 10.9681 26.1545 10.9681 26.4905C10.9681 26.8266 11.2292 27.099 11.5512 27.099H17.4983C17.8203 27.099 18.0815 26.8266 18.0815 26.4905C18.0815 26.1545 17.8203 25.8821 17.4983 25.8821H11.5512ZM10.9681 30.141C10.9681 29.805 11.2292 29.5326 11.5512 29.5326H17.4983C17.8203 29.5326 18.0815 29.805 18.0815 30.141C18.0815 30.477 17.8203 30.7494 17.4983 30.7494H11.5512C11.2292 30.7494 10.9681 30.477 10.9681 30.141Z" fill="url(#paint0_linear_2523_1404)"/>
<path fill-rule="evenodd" clip-rule="evenodd" d="M46 8.51775C46 3.81352 42.3454 1.72583e-06 37.8372 1.3535e-06L8.16284 0C3.65463 -2.05628e-07 1.65392e-06 3.81352 1.2971e-06 8.51775L0 39.4823C-1.97061e-07 44.1865 3.65463 48 8.16284 48H37.8372C42.3454 48 46 44.1865 46 39.4823V8.51775ZM23.2317 31.8952C23.2317 36.005 26.4357 39.3483 30.3742 39.3483C31.8529 39.3483 33.228 38.877 34.3689 38.0709L37.9153 41.7715C38.1807 42.0484 38.5289 42.1875 38.8772 42.1875C39.2255 42.1875 39.5737 42.0484 39.8391 41.7715C40.371 41.2165 40.371 40.3193 39.8391 39.7642L36.2927 36.0636C37.0651 34.8731 37.5167 33.4382 37.5167 31.8952C37.5167 27.7855 34.3128 24.4422 30.3742 24.4422C26.4357 24.4422 23.2317 27.7855 23.2317 31.8952ZM33.4938 35.1504C33.5242 35.1187 33.5557 35.0888 33.5882 35.0606C34.3365 34.2338 34.7958 33.1195 34.7958 31.8952C34.7958 29.3512 32.8122 27.2814 30.3742 27.2814C27.9363 27.2814 25.9527 29.3512 25.9527 31.8952C25.9527 34.4392 27.9363 36.5091 30.3742 36.5091C31.5475 36.5091 32.6154 36.0298 33.4077 35.2489C33.4347 35.2151 33.4634 35.1822 33.4938 35.1504ZM11.3276 8.1166H26.9731C29.041 8.1166 30.7144 9.86274 30.7144 12.0205V21.6172C30.6056 21.603 30.4831 21.603 30.3742 21.603C24.9324 21.603 20.5108 26.2168 20.5108 31.8952C20.5108 34.1525 21.2047 36.2251 22.4019 37.9286H11.3276C9.25973 37.9286 7.58635 36.1825 7.58635 34.0247V12.0205C7.58635 9.86274 9.25973 8.1166 11.3276 8.1166ZM26.9966 17.3245C26.9966 18.5308 26.0906 19.2923 24.6147 19.2923C23.3931 19.2923 22.61 18.7832 22.3722 18.1073C22.3312 17.9961 22.3066 17.8763 22.3066 17.7608C22.3066 17.4186 22.5321 17.1918 22.8519 17.1918C23.1061 17.1918 23.2742 17.2945 23.4218 17.5683C23.6144 18.0389 24.0777 18.2527 24.6434 18.2527C25.3076 18.2527 25.7586 17.9191 25.7586 17.4657C25.7586 17.0592 25.4798 16.8283 24.7377 16.6699L24.1104 16.5417C22.9298 16.2978 22.3518 15.7074 22.3518 14.7877C22.3518 13.6584 23.2946 12.9097 24.6107 12.9097C25.693 12.9097 26.5088 13.3846 26.7711 14.1888C26.7999 14.2743 26.8163 14.3642 26.8163 14.4754C26.8163 14.7834 26.6031 14.993 26.2874 14.993C26.0086 14.993 25.8364 14.8775 25.697 14.6123C25.5002 14.146 25.119 13.9535 24.6107 13.9535C23.9998 13.9535 23.594 14.253 23.594 14.7064C23.594 15.0871 23.8768 15.3224 24.5778 15.4678L25.201 15.6005C26.4555 15.8614 26.9966 16.3876 26.9966 17.3245ZM11.5037 19.2709C11.8318 19.2709 12.0163 19.0998 12.131 18.6891L12.4426 17.7266H14.5785L14.8901 18.702C15.0008 19.1041 15.1853 19.2709 15.5337 19.2709C15.8945 19.2709 16.1527 19.0185 16.1527 18.6635C16.1527 18.5351 16.1323 18.4196 16.0748 18.2527L14.4514 13.6584C14.2752 13.1535 13.9881 12.9311 13.5044 12.9311C13.037 12.9311 12.7459 13.1621 12.5737 13.6626L10.9586 18.2527C10.9053 18.4111 10.8766 18.5565 10.8766 18.6635C10.8766 19.0357 11.1185 19.2709 11.5037 19.2709ZM12.7132 16.7255L13.4798 14.1974H13.5085L14.2915 16.7255H12.7132ZM17.3582 19.1896H18.9981C20.7732 19.1896 21.8186 18.0389 21.8186 16.0796C21.8186 14.1203 20.7732 13.0166 18.9981 13.0166H17.3582C16.9687 13.0166 16.7392 13.2647 16.7392 13.6883V18.5137C16.7392 18.9415 16.9687 19.1896 17.3582 19.1896ZM17.9773 18.1201V14.0818H18.8505C19.941 14.0818 20.5559 14.7919 20.5559 16.0839C20.5559 17.4186 19.9574 18.1201 18.8505 18.1201H17.9773ZM10.9681 22.8401C10.9681 22.5041 11.2292 22.2317 11.5512 22.2317H19.9472C20.2692 22.2317 20.5303 22.5041 20.5303 22.8401C20.5303 23.1761 20.2692 23.4485 19.9472 23.4485H11.5512C11.2292 23.4485 10.9681 23.1761 10.9681 22.8401ZM11.5512 25.8821C11.2292 25.8821 10.9681 26.1545 10.9681 26.4905C10.9681 26.8266 11.2292 27.099 11.5512 27.099H17.4983C17.8203 27.099 18.0815 26.8266 18.0815 26.4905C18.0815 26.1545 17.8203 25.8821 17.4983 25.8821H11.5512ZM10.9681 30.141C10.9681 29.805 11.2292 29.5326 11.5512 29.5326H17.4983C17.8203 29.5326 18.0815 29.805 18.0815 30.141C18.0815 30.477 17.8203 30.7494 17.4983 30.7494H11.5512C11.2292 30.7494 10.9681 30.477 10.9681 30.141Z" fill="white"/>
<defs>
<linearGradient id="paint0_linear_2523_1404" x1="23" y1="0" x2="23" y2="48" gradientUnits="userSpaceOnUse">
<stop stop-color="#29B759"/>
<stop offset="1" stop-color="#5DF08F"/>
</linearGradient>
</defs>
</svg>
