<svg width="28" height="26" viewBox="0 0 28 26" fill="none" xmlns="http://www.w3.org/2000/svg">
<path d="M26.773 6.38401C27.195 6.98547 27.29 7.66607 27.0579 8.42581L22.7052 22.7659C22.5047 23.4412 22.1011 24.0084 21.4944 24.4674C20.8876 24.9264 20.2413 25.1559 19.5554 25.1559H4.94627C4.13377 25.1559 3.35029 24.8737 2.59582 24.3091C1.84136 23.7446 1.3164 23.0508 1.02095 22.2278C0.7677 21.5208 0.757148 20.8507 0.989291 20.2176C0.989291 20.1754 1.00512 20.033 1.03677 19.7903C1.06843 19.5476 1.08953 19.3524 1.10009 19.2046C1.11064 19.1202 1.09481 19.0068 1.0526 18.8643C1.0104 18.7219 0.994567 18.619 1.00512 18.5557C1.02622 18.4396 1.06843 18.3288 1.13174 18.2233C1.19505 18.1178 1.28211 17.9938 1.3929 17.8513C1.5037 17.7089 1.59075 17.5849 1.65406 17.4794C1.89676 17.0784 2.13418 16.5957 2.36632 16.0311C2.59846 15.4666 2.75674 14.9838 2.84116 14.5829C2.87281 14.4774 2.87545 14.3191 2.84907 14.108C2.82269 13.897 2.82005 13.7493 2.84116 13.6649C2.87281 13.5488 2.96251 13.4011 3.11023 13.2217C3.25796 13.0423 3.34765 12.9209 3.37931 12.8576C3.6009 12.4778 3.82249 11.9924 4.04408 11.4015C4.26567 10.8106 4.39757 10.3357 4.43978 9.97695C4.45033 9.88198 4.43714 9.71315 4.40021 9.47045C4.36328 9.22776 4.36591 9.08003 4.40812 9.02727C4.45033 8.8901 4.5664 8.72918 4.75634 8.54452C4.94627 8.35986 5.06234 8.24115 5.10455 8.18839C5.30504 7.91404 5.52927 7.46822 5.77724 6.85093C6.02521 6.23364 6.1703 5.72451 6.2125 5.32354C6.22306 5.23912 6.20723 5.10459 6.16502 4.91993C6.12281 4.73527 6.11226 4.59545 6.13336 4.50049C6.15447 4.41607 6.20195 4.3211 6.27582 4.21558C6.34968 4.11007 6.44465 3.98872 6.56072 3.85154C6.67679 3.71437 6.76648 3.60357 6.82979 3.51916C6.91421 3.39253 7.00126 3.23162 7.09095 3.03641C7.18064 2.84119 7.25978 2.65653 7.32837 2.48243C7.39696 2.30832 7.48138 2.11839 7.58162 1.91262C7.68186 1.70686 7.78474 1.53803 7.89026 1.40613C7.99578 1.27423 8.1356 1.15024 8.3097 1.03417C8.48381 0.918102 8.67375 0.857428 8.87951 0.852152C9.08527 0.846876 9.33588 0.875894 9.63133 0.939206L9.61551 0.98669C10.0165 0.891722 10.2856 0.844238 10.4227 0.844238H22.4678C23.2486 0.844238 23.8501 1.13969 24.2722 1.7306C24.6942 2.32151 24.7892 3.00739 24.5571 3.78823L20.2202 18.1283C19.8403 19.384 19.4631 20.1939 19.0885 20.5579C18.7139 20.922 18.036 21.104 17.0546 21.104H3.30017C3.01526 21.104 2.81478 21.1831 2.69871 21.3414C2.58263 21.5102 2.57736 21.7371 2.68288 22.022C2.93613 22.7606 3.69586 23.1299 4.9621 23.1299H19.5713C19.8773 23.1299 20.1727 23.0482 20.4576 22.8846C20.7425 22.7211 20.9272 22.5021 21.0116 22.2278L25.76 6.6056C25.8338 6.37346 25.8602 6.07273 25.8391 5.70341C26.2401 5.86169 26.5514 6.08856 26.773 6.38401ZM9.93207 6.41567C9.88986 6.55284 9.90041 6.67155 9.96372 6.77179C10.027 6.87204 10.1326 6.92216 10.2803 6.92216H19.9037C20.0408 6.92216 20.1754 6.87204 20.3073 6.77179C20.4392 6.67155 20.5262 6.55284 20.5684 6.41567L20.9008 5.40268C20.943 5.2655 20.9325 5.14679 20.8692 5.04655C20.8058 4.94631 20.7003 4.89619 20.5526 4.89619H10.9292C10.792 4.89619 10.6575 4.94631 10.5256 5.04655C10.3937 5.14679 10.3067 5.2655 10.2645 5.40268L9.93207 6.41567ZM8.61835 10.4676C8.57614 10.6048 8.58669 10.7235 8.65 10.8237C8.71332 10.924 8.81883 10.9741 8.96656 10.9741H18.5899C18.7271 10.9741 18.8616 10.924 18.9935 10.8237C19.1254 10.7235 19.2125 10.6048 19.2547 10.4676L19.5871 9.45463C19.6293 9.31745 19.6188 9.19874 19.5554 9.0985C19.4921 8.99825 19.3866 8.94813 19.2389 8.94813H9.61551C9.47833 8.94813 9.34379 8.99825 9.21189 9.0985C9.08 9.19874 8.99294 9.31745 8.95073 9.45463L8.61835 10.4676Z" fill="white"/>
</svg>
