<svg width="15" height="15" viewBox="0 0 15 15" fill="none" xmlns="http://www.w3.org/2000/svg">
<path d="M0 3C0 2.175 0.675 1.5 1.5 1.5H12.75C12.9489 1.5 13.1397 1.57902 13.2803 1.71967C13.421 1.86032 13.5 2.05109 13.5 2.25V3H1.5V3.75H14.25C14.4489 3.75 14.6397 3.82902 14.7803 3.96967C14.921 4.11032 15 4.30109 15 4.5V12C15 12.3978 14.842 12.7794 14.5607 13.0607C14.2794 13.342 13.8978 13.5 13.5 13.5H1.5C1.10218 13.5 0.720644 13.342 0.43934 13.0607C0.158035 12.7794 0 12.3978 0 12V3ZM12.375 9.75C12.6734 9.75 12.9595 9.63147 13.1705 9.4205C13.3815 9.20952 13.5 8.92337 13.5 8.625C13.5 8.32663 13.3815 8.04048 13.1705 7.8295C12.9595 7.61853 12.6734 7.5 12.375 7.5C12.0766 7.5 11.7905 7.61853 11.5795 7.8295C11.3685 8.04048 11.25 8.32663 11.25 8.625C11.25 8.92337 11.3685 9.20952 11.5795 9.4205C11.7905 9.63147 12.0766 9.75 12.375 9.75Z" fill="currentColor"/>
</svg>
