<svg width="27" height="27" viewBox="0 0 27 27" fill="none" xmlns="http://www.w3.org/2000/svg">
<path d="M20.25 9H19.125V6.75C19.125 3.645 16.605 1.125 13.5 1.125C10.395 1.125 7.875 3.645 7.875 6.75V9H6.75C5.50687 9 4.5 10.0069 4.5 11.25V22.5C4.5 23.7431 5.50687 24.75 6.75 24.75H20.25C21.4931 24.75 22.5 23.7431 22.5 22.5V11.25C22.5 10.0069 21.4931 9 20.25 9ZM13.5 19.125C12.2569 19.125 11.25 18.1181 11.25 16.875C11.25 15.6319 12.2569 14.625 13.5 14.625C14.7431 14.625 15.75 15.6319 15.75 16.875C15.75 18.1181 14.7431 19.125 13.5 19.125ZM16.9875 9H10.0125V6.75C10.0125 4.82625 11.5762 3.2625 13.5 3.2625C15.4237 3.2625 16.9875 4.82625 16.9875 6.75V9Z" fill="black"/>
</svg>
