<svg width="52" height="52" viewBox="0 0 52 52" fill="none" xmlns="http://www.w3.org/2000/svg">
<rect width="52" height="52" rx="6" fill="#2340D7"/>
<path d="M23 29.75H22.9991C22.9991 28.9916 23.0619 29.3408 19.0123 21.2417C18.185 19.5875 15.8159 19.5842 14.9872 21.2417C10.9034 29.4102 11.0009 29.0155 11.0009 29.75H11C11 31.8209 13.6864 33.5 17 33.5C20.3136 33.5 23 31.8209 23 29.75ZM17 22.25L20.375 29H13.625L17 22.25ZM40.9991 29.75C40.9991 28.9916 41.0619 29.3408 37.0123 21.2417C36.185 19.5875 33.8159 19.5842 32.9872 21.2417C28.9034 29.4102 29.0009 29.0155 29.0009 29.75H29C29 31.8209 31.6864 33.5 35 33.5C38.3136 33.5 41 31.8209 41 29.75H40.9991ZM31.625 29L35 22.25L38.375 29H31.625ZM35.75 35H27.5V21.1836C28.602 20.7013 29.4294 19.708 29.6745 18.5H35.75C36.1644 18.5 36.5 18.1644 36.5 17.75V16.25C36.5 15.8356 36.1644 15.5 35.75 15.5H28.9831C28.2987 14.5944 27.223 14 26 14C24.777 14 23.7012 14.5944 23.0169 15.5H16.25C15.8356 15.5 15.5 15.8356 15.5 16.25V17.75C15.5 18.1644 15.8356 18.5 16.25 18.5H22.3255C22.5706 19.7075 23.3975 20.7013 24.5 21.1836V35H16.25C15.8356 35 15.5 35.3356 15.5 35.75V37.25C15.5 37.6644 15.8356 38 16.25 38H35.75C36.1644 38 36.5 37.6644 36.5 37.25V35.75C36.5 35.3356 36.1644 35 35.75 35Z" fill="white"/>
</svg>
