<svg width="52" height="52" viewBox="0 0 52 52" fill="none" xmlns="http://www.w3.org/2000/svg">
<rect width="52" height="52" rx="6" fill="#F0B10D"/>
<path d="M13.9059 22.9316H12.0039C11.4171 22.9316 10.9414 23.4073 10.9414 23.9941C10.9414 24.5809 11.4171 25.0566 12.0039 25.0566H13.9059C14.4927 25.0566 14.9684 24.5809 14.9684 23.9941C14.9684 23.4073 14.4927 22.9316 13.9059 22.9316Z" fill="white"/>
<path d="M39.2301 22.9316H37.3281C36.7413 22.9316 36.2656 23.4073 36.2656 23.9941C36.2656 24.5809 36.7413 25.0566 37.3281 25.0566H39.2301C39.8169 25.0566 40.2926 24.5809 40.2926 23.9941C40.2926 23.4073 39.8169 22.9316 39.2301 22.9316Z" fill="white"/>
<path d="M18.0697 14.7829L16.6083 13.2897C16.2022 12.8748 15.5438 12.8748 15.1377 13.2897C14.7316 13.7046 14.7316 14.3774 15.1377 14.7923L16.5991 16.2855C17.0052 16.7005 17.6636 16.7005 18.0697 16.2855C18.4758 15.8706 18.4758 15.1979 18.0697 14.7829Z" fill="white"/>
<path d="M26.654 12.0746V10.0399C26.654 9.46558 26.1884 9 25.6141 9C25.0398 9 24.5742 9.46558 24.5742 10.0399V12.0746C24.5742 12.649 25.0398 13.1145 25.6141 13.1145C26.1884 13.1145 26.654 12.649 26.654 12.0746Z" fill="white"/>
<path d="M34.6186 13.2906L33.1572 14.7839C32.7511 15.1988 32.7511 15.8715 33.1572 16.2865C33.5633 16.7014 34.2217 16.7014 34.6278 16.2865L36.0893 14.7932C36.4954 14.3783 36.4954 13.7056 36.0893 13.2906C35.6832 12.8757 35.0247 12.8757 34.6186 13.2906Z" fill="white"/>
<path d="M16.5991 31.7008L15.1377 33.194C14.7316 33.6089 14.7316 34.2817 15.1377 34.6966C15.5438 35.1115 16.2022 35.1115 16.6083 34.6966L18.0697 33.2034C18.4758 32.7885 18.4758 32.1157 18.0697 31.7008C17.6636 31.2859 17.0052 31.2859 16.5991 31.7008Z" fill="white"/>
<path d="M36.0893 33.195L34.6278 31.7018C34.2217 31.2869 33.5633 31.2869 33.1572 31.7018C32.7511 32.1168 32.7511 32.7895 33.1572 33.2044L34.6186 34.6976C35.0247 35.1126 35.6832 35.1126 36.0893 34.6976C36.4954 34.2827 36.4954 33.61 36.0893 33.195Z" fill="white"/>
<path d="M21.2188 38.5083C21.2187 39.0981 21.3325 39.6822 21.5534 40.2272C21.7743 40.7721 22.0981 41.2673 22.5064 41.6844C22.9146 42.1015 23.3992 42.4324 23.9326 42.6581C24.4659 42.8838 25.0376 43 25.6149 43C26.1922 43 26.7639 42.8838 27.2972 42.6581C27.8306 42.4324 28.3152 42.1015 28.7234 41.6844C29.1317 41.2673 29.4555 40.7721 29.6764 40.2272C29.8973 39.6822 30.0111 39.0981 30.0111 38.5083C30.0111 36.8814 28.6922 35.5625 27.0653 35.5625H24.1645C22.5376 35.5625 21.2188 36.8814 21.2188 38.5083Z" fill="white"/>
<path d="M30.0124 34.4712C30.0063 33.7568 30.1477 33.049 30.4272 32.3941C30.7067 31.7392 31.1181 31.1518 31.6346 30.6701C32.999 29.425 33.9613 27.7861 34.3945 25.9702C34.8277 24.1542 34.7112 22.2466 34.0605 20.4997C33.4098 18.7529 32.2556 17.2489 30.7503 16.1867C29.2451 15.1244 27.4597 14.554 25.6304 14.5508C23.801 14.5476 22.0138 15.1117 20.505 16.1686C18.9962 17.2255 17.8368 18.7254 17.1802 20.47C16.5237 22.2146 16.4008 24.1217 16.8278 25.9392C17.2548 27.7567 18.2117 29.399 19.5718 30.6489C20.0932 31.1325 20.5094 31.7227 20.7933 32.3812C21.0772 33.0396 21.2226 33.7517 21.2201 34.4712C21.2201 34.4874 21.2331 34.5004 21.2493 34.5004H29.9831C29.9993 34.5004 30.0124 34.4874 30.0124 34.4712Z" fill="white"/>
</svg>
