<svg width="52" height="52" viewBox="0 0 52 52" fill="none" xmlns="http://www.w3.org/2000/svg">
<rect width="52" height="52" rx="6" fill="#1877F2"/>
<path d="M40.2747 24.8474L36.8705 23.3065L27.402 27.5982C26.9567 27.7944 26.488 27.8999 26.0016 27.8999C25.5153 27.8999 25.0525 27.7944 24.6013 27.6011L15.1328 23.3065L11.7274 24.8474C10.7607 25.2868 10.7607 26.7515 11.7274 27.191L25.3794 33.3779C25.7749 33.561 26.229 33.561 26.6245 33.3779L40.2765 27.191C41.2415 26.7515 41.2415 25.2868 40.2747 24.8474ZM11.7274 19.674L25.3794 25.8727C25.7749 26.0485 26.229 26.0485 26.6245 25.8727L40.2747 19.674C41.2415 19.2346 41.2415 17.7699 40.2747 17.3305L26.6227 11.1318C26.2272 10.9561 25.7731 10.9561 25.3776 11.1318L11.7274 17.3305C10.7604 17.7699 10.7604 19.2346 11.7274 19.674ZM40.2747 32.335L36.8834 30.7971L27.3973 35.0963C26.9567 35.2938 26.488 35.3992 26.0016 35.3992C25.5153 35.3992 25.0495 35.2967 24.6025 35.099L15.1164 30.7997L11.7251 32.3377C10.7583 32.7771 10.7583 34.2418 11.7251 34.6812L25.3771 40.8682C25.7726 41.0439 26.2266 41.0439 26.6221 40.8682L40.2741 34.6812C41.2415 34.2392 41.2415 32.7745 40.2747 32.335Z" fill="white"/>
</svg>
