<svg width="52" height="53" viewBox="0 0 52 53" fill="none" xmlns="http://www.w3.org/2000/svg">
<rect y="0.5" width="52" height="52" rx="6" fill="#CC44FC"/>
<path d="M13.7529 38.75C13.7529 39.718 14.5368 40.5 15.5059 40.5H24.2706V28.25H13.7529V38.75ZM38.2942 19.5H35.9857C36.6409 18.2466 36.808 16.7355 35.9836 15.0484C35.1936 13.4291 33.5064 12.4991 31.6932 12.5C29.4034 12.5009 27.9244 13.6659 26.0235 16.2352C24.1227 13.6659 22.6437 12.5009 20.3539 12.5C18.5407 12.4991 16.8546 13.4291 16.0635 15.0484C15.2391 16.7355 15.4062 18.2477 16.0619 19.5H13.7529C12.785 19.5 12 20.2837 12 21.25V24.75C12 25.7125 12.7888 26.4984 13.7036 26.4984H38.2449C39.209 26.4984 39.9978 25.7125 39.9978 24.75V21.25C40.0471 20.282 39.2637 19.5 38.2942 19.5ZM20.4306 19.5C19.2205 19.5 18.2394 18.5205 18.2394 17.3125C18.2394 16.1045 19.2205 15.125 20.4306 15.125C21.5207 15.125 22.3259 15.3055 25.1471 19.5H20.4306ZM31.6165 19.5H26.9C29.7212 15.3055 30.5259 15.125 31.616 15.125C32.8261 15.125 33.8072 16.1045 33.8072 17.3125C33.8072 18.5205 32.8272 19.5 31.6165 19.5ZM27.7765 40.5H36.5412C37.5103 40.5 38.2942 39.718 38.2942 38.75L38.2941 28.25H27.8258L27.7765 40.5Z" fill="white"/>
</svg>
