<svg width="52" height="52" viewBox="0 0 52 52" fill="none" xmlns="http://www.w3.org/2000/svg">
<rect width="52" height="52" rx="6" fill="#47C178"/>
<path d="M26.6057 32.2922C25.1516 31.7689 23.6452 31.7047 23.2 30.3333V28.4167C23.62 28.203 24.8203 26.7348 24.9472 25.5877C25.0219 25.3165 25.0797 24.3466 25.0797 24.1281C25.0797 22.9312 25.062 20.4567 25.7919 18.52C25.5371 17.2185 24.8716 16.1222 23.4445 15.9775C23.0628 15.3287 22.0847 15 20.8125 15C15.7249 15.0901 15.2051 18.7116 16.2261 22.8717C16.0283 22.9887 15.7016 23.3605 15.7837 24.0198C15.9368 25.2494 16.4557 25.5608 16.7861 25.5867C16.9121 26.7348 18.1133 28.203 18.5333 28.4167V30.3333C17.6 33.2083 12 30.3333 12 38H23.2C23.2 34.5998 25.0573 33.1345 26.6057 32.2922Z" fill="white"/>
<path d="M25.0667 38C25.0667 33.2083 29.7333 34.1667 30.6667 31.5725V30.3506C27.2871 30.3506 26.3491 28.9217 26.3491 28.9217C28.1149 27.4133 24.7755 16.9167 30.788 16.9167C30.788 16.9167 31.6 15.9583 32.6491 15.9583C40 15.9583 36.6829 27.3558 38.5841 28.9581C38.5841 28.9581 37.7964 30.3381 34.4 30.3381V31.5725C35.3333 34.1667 40 33.2083 40 38H25.0667Z" fill="white"/>
</svg>
