<svg width="52" height="52" viewBox="0 0 52 52" fill="none" xmlns="http://www.w3.org/2000/svg">
<rect width="52" height="52" rx="6" fill="#F2183F"/>
<path d="M40.397 24.5604C40.2165 24.4238 40.0076 24.3297 39.7859 24.2849C39.5641 24.2402 39.3352 24.2459 39.116 24.3018C38.7525 24.4036 38.3774 24.4582 38 24.4642C35.519 24.4642 33.5 22.4408 33.4955 20.0476C33.503 19.9965 33.5195 19.8462 33.521 19.795C33.5308 19.56 33.4853 19.326 33.3882 19.1119C33.2911 18.8977 33.1452 18.7094 32.9621 18.5623C32.779 18.4151 32.564 18.3131 32.3343 18.2645C32.1047 18.216 31.8668 18.2222 31.64 18.2828C31.2688 18.3876 30.8857 18.4442 30.5 18.4511C28.019 18.4511 26.0001 16.4277 26.0001 13.9414C26.0001 13.6152 26.0466 13.2739 26.1486 12.865C26.2063 12.6316 26.2073 12.3878 26.1516 12.1539C26.0958 11.92 25.9849 11.703 25.8281 11.5209C25.6713 11.3389 25.4732 11.1973 25.2505 11.1078C25.0278 11.0184 24.7869 10.9838 24.5481 11.007C20.8333 11.354 17.3826 13.0819 14.8753 15.8507C12.3679 18.6194 10.9855 22.2284 11.0001 25.9674C11.0001 34.2564 17.7291 41 26.0001 41C34.271 41 41 34.2564 41 25.9674C41 25.8938 40.9955 25.8216 40.9895 25.7269C40.9845 25.5004 40.9286 25.2779 40.826 25.0759C40.7234 24.874 40.5768 24.6978 40.397 24.5604ZM20.7501 16.9479C21.3468 16.9479 21.9191 17.1854 22.3411 17.6083C22.763 18.0312 23.0001 18.6047 23.0001 19.2028C23.0001 19.8008 22.763 20.3743 22.3411 20.7972C21.9191 21.2201 21.3468 21.4576 20.7501 21.4576C20.1533 21.4576 19.581 21.2201 19.1591 20.7972C18.7371 20.3743 18.5001 19.8008 18.5001 19.2028C18.5001 18.6047 18.7371 18.0312 19.1591 17.6083C19.581 17.1854 20.1533 16.9479 20.7501 16.9479ZM17.7501 28.9739C17.4546 28.9739 17.162 28.9156 16.8891 28.8023C16.6161 28.689 16.368 28.5229 16.1591 28.3135C15.9502 28.1041 15.7844 27.8555 15.6714 27.582C15.5583 27.3084 15.5001 27.0152 15.5001 26.7191C15.5001 26.4229 15.5583 26.1297 15.6714 25.8561C15.7844 25.5826 15.9502 25.334 16.1591 25.1246C16.368 24.9152 16.6161 24.7491 16.8891 24.6358C17.162 24.5225 17.4546 24.4642 17.7501 24.4642C18.3468 24.4642 18.9191 24.7017 19.3411 25.1246C19.763 25.5475 20.0001 26.121 20.0001 26.7191C20.0001 27.3171 19.763 27.8906 19.3411 28.3135C18.9191 28.7364 18.3468 28.9739 17.7501 28.9739ZM22.2501 34.987C21.6533 34.987 21.081 34.7494 20.6591 34.3265C20.2371 33.9037 20.0001 33.3301 20.0001 32.7321C20.0001 32.1341 20.2371 31.5605 20.6591 31.1376C21.081 30.7148 21.6533 30.4772 22.2501 30.4772C22.8468 30.4772 23.4191 30.7148 23.8411 31.1376C24.263 31.5605 24.5001 32.1341 24.5001 32.7321C24.5001 33.3301 24.263 33.9037 23.8411 34.3265C23.4191 34.7494 22.8468 34.987 22.2501 34.987ZM26.0001 25.2158C26.0001 24.6178 26.2371 24.0442 26.6591 23.6213C27.081 23.1985 27.6533 22.9609 28.25 22.9609C28.8468 22.9609 29.4191 23.1985 29.841 23.6213C30.263 24.0442 30.5 24.6178 30.5 25.2158C30.5 25.8138 30.263 26.3874 29.841 26.8102C29.4191 27.2331 28.8468 27.4707 28.25 27.4707C27.6533 27.4707 27.081 27.2331 26.6591 26.8102C26.2371 26.3874 26.0001 25.8138 26.0001 25.2158ZM31.25 34.987C30.6533 34.987 30.081 34.7494 29.6591 34.3265C29.2371 33.9037 29 33.3301 29 32.7321C29 32.1341 29.2371 31.5605 29.6591 31.1376C30.081 30.7148 30.6533 30.4772 31.25 30.4772C31.8468 30.4772 32.4191 30.7148 32.841 31.1376C33.263 31.5605 33.5 32.1341 33.5 32.7321C33.5 33.3301 33.263 33.9037 32.841 34.3265C32.4191 34.7494 31.8468 34.987 31.25 34.987Z" fill="white"/>
</svg>
