<svg width="15" height="15" viewBox="0 0 15 15" fill="none" xmlns="http://www.w3.org/2000/svg">
<g filter="url(#filter0_b_5812_867)">
<rect width="15" height="15" rx="3" fill="#1877F2"/>
</g>
<path d="M11.3248 8.4L10.8748 8.1375C10.3873 7.8375 10.3873 7.125 10.8748 6.825L11.3248 6.5625C11.6998 6.3375 11.8123 5.8875 11.5873 5.55L11.2123 4.9125C10.9873 4.5375 10.5373 4.425 10.1998 4.65L9.74982 4.9125C9.26232 5.2125 8.62482 4.8375 8.62482 4.275V3.75C8.62482 3.3375 8.28732 3 7.87482 3H7.12482C6.71232 3 6.37482 3.3375 6.37482 3.75V4.2375C6.37482 4.8 5.73732 5.175 5.24982 4.875L4.79982 4.65C4.42482 4.425 3.97482 4.575 3.78732 4.9125L3.41232 5.55C3.22482 5.925 3.33732 6.375 3.67482 6.6L4.12482 6.8625C4.61232 7.125 4.61232 7.875 4.12482 8.1375L3.67482 8.4C3.29982 8.625 3.18732 9.075 3.41232 9.4125L3.78732 10.05C4.01232 10.425 4.46232 10.5375 4.79982 10.3125L5.24982 10.0875C5.73732 9.7875 6.37482 10.1625 6.37482 10.725V11.25C6.37482 11.6625 6.71232 12 7.12482 12H7.87482C8.28732 12 8.62482 11.6625 8.62482 11.25V10.7625C8.62482 10.2 9.26232 9.825 9.74982 10.125L10.1998 10.3875C10.5748 10.6125 11.0248 10.4625 11.2123 10.125L11.5873 9.4875C11.7748 9.075 11.6623 8.625 11.3248 8.4ZM7.49982 9C6.67482 9 5.99982 8.325 5.99982 7.5C5.99982 6.675 6.67482 6 7.49982 6C8.32482 6 8.99982 6.675 8.99982 7.5C8.99982 8.325 8.32482 9 7.49982 9Z" fill="white"/>
<defs>
<filter id="filter0_b_5812_867" x="-9" y="-9" width="33" height="33" filterUnits="userSpaceOnUse" color-interpolation-filters="sRGB">
<feFlood flood-opacity="0" result="BackgroundImageFix"/>
<feGaussianBlur in="BackgroundImage" stdDeviation="4.5"/>
<feComposite in2="SourceAlpha" operator="in" result="effect1_backgroundBlur_5812_867"/>
<feBlend mode="normal" in="SourceGraphic" in2="effect1_backgroundBlur_5812_867" result="shape"/>
</filter>
</defs>
</svg>
