<svg width="14" height="13" viewBox="0 0 14 13" fill="none" xmlns="http://www.w3.org/2000/svg">
<path d="M13.1001 6.54349C13.0536 3.16107 10.2755 0.456773 6.8931 0.500523C3.51068 0.544273 0.806383 3.32513 0.850133 6.70755C0.896617 10.09 3.67474 12.7943 7.05716 12.7505C10.4396 12.704 13.1466 9.92591 13.1001 6.54349ZM6.97513 2.68529C7.45912 2.68529 7.85013 3.0763 7.85013 3.56029C7.85013 4.04427 7.45912 4.43529 6.97513 4.43529C6.49115 4.43529 6.10013 4.04427 6.10013 3.56029C6.10013 3.0763 6.49115 2.68529 6.97513 2.68529ZM8.17826 10.4263H5.77201V10.1255H6.37357V5.75052H5.77201V5.4224H7.5767V10.1255H8.17826V10.4263Z" fill="#1877F2"/>
</svg>
