<svg width="9" height="9" viewBox="0 0 9 9" fill="none" xmlns="http://www.w3.org/2000/svg">
<path d="M6.46967 7.53033C6.76256 7.82322 7.23744 7.82322 7.53033 7.53033C7.82322 7.23744 7.82322 6.76256 7.53033 6.46967L6.46967 7.53033ZM1 0.25C0.585787 0.25 0.25 0.585786 0.25 1L0.25 7.75C0.25 8.16421 0.585786 8.5 1 8.5C1.41421 8.5 1.75 8.16421 1.75 7.75L1.75 1.75L7.75 1.75C8.16421 1.75 8.5 1.41421 8.5 1C8.5 0.585786 8.16421 0.25 7.75 0.25L1 0.25ZM7.53033 6.46967L1.53033 0.46967L0.46967 1.53033L6.46967 7.53033L7.53033 6.46967Z" fill="currentColor"/>
</svg>
