<svg width="14" height="18" viewBox="0 0 14 18" fill="none" xmlns="http://www.w3.org/2000/svg">
<path d="M12.6542 0.225098H1.34562C0.956215 0.225098 0.639648 0.541664 0.639648 0.931481V17.0667C0.639648 17.3833 0.835366 17.6486 1.1381 17.7414C1.44327 17.8341 1.75252 17.7259 1.93033 17.4631L6.89819 10.1364C6.96166 10.042 7.03816 10.042 7.10164 10.1364L12.0699 17.4631C12.2058 17.6632 12.4186 17.7747 12.6469 17.7747C12.7177 17.7747 12.7897 17.7642 12.8617 17.7414C13.1649 17.6486 13.3606 17.3833 13.3606 17.0667V0.931481C13.3606 0.541673 13.0436 0.225098 12.6542 0.225098ZM9.15894 2.72998H8.28451C8.12337 2.72998 7.99276 2.59977 7.99276 2.43864C7.99276 2.2775 8.12337 2.1473 8.28451 2.1473H9.15894C9.32007 2.1473 9.45069 2.2775 9.45069 2.43864C9.45069 2.59977 9.32007 2.72998 9.15894 2.72998ZM7.16593 2.72998H2.96997C2.80883 2.72998 2.67821 2.59977 2.67821 2.43864C2.67821 2.2775 2.80883 2.1473 2.96997 2.1473H7.16593C7.32706 2.1473 7.45768 2.2775 7.45768 2.43864C7.45768 2.59977 7.32706 2.72998 7.16593 2.72998Z" fill="white"/>
</svg>
