<svg width="13" height="13" viewBox="0 0 13 13" fill="none" xmlns="http://www.w3.org/2000/svg">
<path d="M12.289 11.043L9.75053 8.5045C10.275 7.714 10.582 6.7675 10.582 5.75C10.582 2.993 8.33903 0.75 5.58203 0.75C2.82503 0.75 0.582031 2.993 0.582031 5.75C0.582031 8.507 2.82503 10.75 5.58203 10.75C6.59953 10.75 7.54603 10.443 8.33653 9.9185L10.875 12.457C11.265 12.8475 11.899 12.8475 12.289 12.457C12.6795 12.0665 12.6795 11.4335 12.289 11.043ZM2.08203 5.75C2.08203 3.82 3.65203 2.25 5.58203 2.25C7.51203 2.25 9.08203 3.82 9.08203 5.75C9.08203 7.68 7.51203 9.25 5.58203 9.25C3.65203 9.25 2.08203 7.68 2.08203 5.75Z" fill="#78889B"/>
</svg>
