<svg width="19" height="18" viewBox="0 0 19 18" fill="none" xmlns="http://www.w3.org/2000/svg">
<rect width="17.75" height="17.75" rx="3" transform="matrix(-4.02644e-08 1 1 4.74534e-08 0.498047 0.125)" fill="#1B9B48"/>
<g clip-path="url(#clip0_6810_852)">
<path d="M9.74808 14.625H8.99808C8.72169 14.627 8.45424 14.5272 8.24674 14.3446C8.03925 14.162 7.90624 13.9094 7.87308 13.635C7.62142 13.5555 7.37683 13.4551 7.14183 13.335C6.92423 13.5071 6.65074 13.5927 6.37387 13.5754C6.09701 13.5581 5.83631 13.4391 5.64183 13.2413L5.13183 12.7125C4.93401 12.518 4.81503 12.2573 4.79773 11.9805C4.78042 11.7036 4.86602 11.4301 5.03808 11.2125C4.9189 10.9836 4.81857 10.7453 4.73808 10.5C4.46368 10.4669 4.21109 10.3339 4.02849 10.1264C3.8459 9.91887 3.74608 9.65142 3.74808 9.37503V8.62503C3.74608 8.34864 3.8459 8.08119 4.02849 7.8737C4.21109 7.6662 4.46368 7.53319 4.73808 7.50003C4.81761 7.24838 4.91796 7.00378 5.03808 6.76878C4.86602 6.55118 4.78042 6.27769 4.79773 6.00083C4.81503 5.72397 4.93401 5.46326 5.13183 5.26878L5.66058 4.75878C5.85506 4.56097 6.11576 4.44198 6.39262 4.42468C6.66949 4.40738 6.94298 4.49297 7.16058 4.66503C7.38954 4.54586 7.62783 4.44552 7.87308 4.36503C7.90624 4.09063 8.03925 3.83804 8.24674 3.65545C8.45424 3.47285 8.72169 3.37303 8.99808 3.37503H9.74808C10.0245 3.37303 10.2919 3.47285 10.4994 3.65545C10.7069 3.83804 10.8399 4.09063 10.8731 4.36503C11.1247 4.44456 11.3693 4.54491 11.6043 4.66503C11.8219 4.49297 12.0954 4.40738 12.3723 4.42468C12.6491 4.44198 12.9098 4.56097 13.1043 4.75878L13.6143 5.28753C13.8121 5.48201 13.9311 5.74272 13.9484 6.01958C13.9657 6.29644 13.8801 6.56993 13.7081 6.78753C13.8282 7.02253 13.9285 7.26713 14.0081 7.51878C14.2793 7.55155 14.5293 7.68187 14.7114 7.88543C14.8936 8.08899 14.9955 8.35187 14.9981 8.62503V9.37503C15.0001 9.65142 14.9003 9.91887 14.7177 10.1264C14.5351 10.3339 14.2825 10.4669 14.0081 10.5C13.9285 10.7517 13.8282 10.9963 13.7081 11.2313C13.8801 11.4489 13.9657 11.7224 13.9484 11.9992C13.9311 12.2761 13.8121 12.5368 13.6143 12.7313L13.0856 13.2413C12.8911 13.4391 12.6304 13.5581 12.3535 13.5754C12.0767 13.5927 11.8032 13.5071 11.5856 13.335C11.3506 13.4551 11.106 13.5555 10.8543 13.635C10.8216 13.9062 10.6912 14.1562 10.4877 14.3384C10.2841 14.5206 10.0212 14.6224 9.74808 14.625ZM7.08933 12.4988C7.15679 12.4976 7.22316 12.5158 7.28058 12.5513C7.61214 12.7463 7.96935 12.894 8.34183 12.99C8.42433 13.0113 8.49714 13.06 8.54826 13.1282C8.59938 13.1963 8.62577 13.2799 8.62308 13.365V13.5C8.62308 13.5995 8.66258 13.6949 8.73291 13.7652C8.80324 13.8355 8.89862 13.875 8.99808 13.875H9.74808C9.84753 13.875 9.94291 13.8355 10.0132 13.7652C10.0836 13.6949 10.1231 13.5995 10.1231 13.5V13.3538C10.1204 13.2686 10.1468 13.1851 10.1979 13.1169C10.249 13.0488 10.3218 13 10.4043 12.9788C10.7768 12.8827 11.134 12.735 11.4656 12.54C11.5368 12.4981 11.62 12.4808 11.702 12.491C11.7841 12.5012 11.8605 12.5382 11.9193 12.5963L12.0243 12.7013C12.0592 12.7364 12.1007 12.7643 12.1464 12.7834C12.1921 12.8024 12.2411 12.8122 12.2906 12.8122C12.3401 12.8122 12.3891 12.8024 12.4348 12.7834C12.4805 12.7643 12.522 12.7364 12.5568 12.7013L13.0856 12.1725C13.1207 12.1377 13.1486 12.0962 13.1677 12.0505C13.1867 12.0048 13.1965 11.9558 13.1965 11.9063C13.1965 11.8568 13.1867 11.8078 13.1677 11.7621C13.1486 11.7164 13.1207 11.6749 13.0856 11.64L12.9806 11.535C12.9225 11.4762 12.8855 11.3998 12.8753 11.3177C12.8651 11.2357 12.8824 11.1525 12.9243 11.0813C13.1193 10.7497 13.267 10.3925 13.3631 10.02C13.3843 9.93752 13.4331 9.86471 13.5012 9.81359C13.5694 9.76247 13.6529 9.73608 13.7381 9.73878H13.8731C13.9725 9.73878 14.0679 9.69927 14.1382 9.62894C14.2086 9.55862 14.2481 9.46323 14.2481 9.36378V8.62503C14.2481 8.52557 14.2086 8.43019 14.1382 8.35986C14.0679 8.28954 13.9725 8.25003 13.8731 8.25003H13.7268C13.6417 8.25272 13.5581 8.22634 13.49 8.17522C13.4218 8.12409 13.3731 8.05129 13.3518 7.96878C13.2558 7.5963 13.1081 7.23909 12.9131 6.90753C12.8711 6.83628 12.8539 6.75315 12.864 6.67109C12.8742 6.58903 12.9112 6.51263 12.9693 6.45378L13.0743 6.34878C13.1095 6.31392 13.1374 6.27244 13.1564 6.22675C13.1754 6.18105 13.1852 6.13203 13.1852 6.08253C13.1852 6.03302 13.1754 5.98401 13.1564 5.93831C13.1374 5.89262 13.1095 5.85114 13.0743 5.81628L12.5568 5.28753C12.522 5.25238 12.4805 5.22448 12.4348 5.20544C12.3891 5.18641 12.3401 5.1766 12.2906 5.1766C12.2411 5.1766 12.1921 5.18641 12.1464 5.20544C12.1007 5.22448 12.0592 5.25238 12.0243 5.28753L11.9193 5.39253C11.8605 5.45062 11.7841 5.48763 11.702 5.49781C11.62 5.50798 11.5368 5.49074 11.4656 5.44878C11.134 5.25376 10.7768 5.10608 10.4043 5.01003C10.3218 4.98877 10.249 4.94005 10.1979 4.87189C10.1468 4.80373 10.1204 4.72019 10.1231 4.63503V4.50003C10.1231 4.40057 10.0836 4.30519 10.0132 4.23486C9.94291 4.16454 9.84753 4.12503 9.74808 4.12503H8.99808C8.89862 4.12503 8.80324 4.16454 8.73291 4.23486C8.66258 4.30519 8.62308 4.40057 8.62308 4.50003V4.64628C8.62577 4.73144 8.59938 4.81498 8.54826 4.88314C8.49714 4.9513 8.42433 5.00002 8.34183 5.02128C7.96935 5.11733 7.61214 5.26501 7.28058 5.46003C7.20932 5.50199 7.1262 5.51923 7.04414 5.50906C6.96207 5.49888 6.88567 5.46187 6.82683 5.40378L6.72183 5.28753C6.68696 5.25238 6.64549 5.22448 6.59979 5.20544C6.5541 5.18641 6.50508 5.1766 6.45558 5.1766C6.40607 5.1766 6.35706 5.18641 6.31136 5.20544C6.26566 5.22448 6.22419 5.25238 6.18933 5.28753L5.66058 5.81628C5.62543 5.85114 5.59753 5.89262 5.57849 5.93831C5.55945 5.98401 5.54965 6.03302 5.54965 6.08253C5.54965 6.13203 5.55945 6.18105 5.57849 6.22675C5.59753 6.27244 5.62543 6.31392 5.66058 6.34878L5.76558 6.45378C5.82367 6.51263 5.86068 6.58903 5.87085 6.67109C5.88103 6.75315 5.86379 6.83628 5.82183 6.90753C5.62681 7.23909 5.47913 7.5963 5.38308 7.96878C5.36182 8.05129 5.3131 8.12409 5.24494 8.17522C5.17677 8.22634 5.09324 8.25272 5.00808 8.25003H4.87308C4.77362 8.25003 4.67824 8.28954 4.60791 8.35986C4.53759 8.43019 4.49808 8.52557 4.49808 8.62503V9.37503C4.49808 9.47448 4.53759 9.56987 4.60791 9.64019C4.67824 9.71052 4.77362 9.75003 4.87308 9.75003H5.01933C5.10449 9.74733 5.18802 9.77372 5.25619 9.82484C5.32435 9.87596 5.37307 9.94877 5.39433 10.0313C5.49038 10.4038 5.63806 10.761 5.83308 11.0925C5.87504 11.1638 5.89228 11.2469 5.8821 11.329C5.87193 11.411 5.83492 11.4874 5.77683 11.5463L5.67183 11.6513C5.63668 11.6861 5.60878 11.7276 5.58974 11.7733C5.5707 11.819 5.5609 11.868 5.5609 11.9175C5.5609 11.967 5.5707 12.016 5.58974 12.0617C5.60878 12.1074 5.63668 12.1489 5.67183 12.1838L6.18933 12.7125C6.22419 12.7477 6.26566 12.7756 6.31136 12.7946C6.35706 12.8137 6.40607 12.8235 6.45558 12.8235C6.50508 12.8235 6.5541 12.8137 6.59979 12.7946C6.64549 12.7756 6.68696 12.7477 6.72183 12.7125L6.82683 12.6075C6.89667 12.5382 6.99095 12.4992 7.08933 12.4988Z" fill="white"/>
<path d="M9.37305 11.625C8.85387 11.625 8.34636 11.471 7.91468 11.1826C7.483 10.8942 7.14654 10.4842 6.94786 10.0045C6.74918 9.52489 6.6972 8.99709 6.79849 8.48789C6.89977 7.97869 7.14978 7.51096 7.51689 7.14385C7.88401 6.77673 8.35174 6.52673 8.86094 6.42544C9.37014 6.32415 9.89794 6.37614 10.3776 6.57482C10.8572 6.7735 11.2672 7.10995 11.5557 7.54163C11.8441 7.97331 11.998 8.48083 11.998 9C11.998 9.69619 11.7215 10.3639 11.2292 10.8562C10.7369 11.3484 10.0692 11.625 9.37305 11.625ZM9.37305 7.125C9.00221 7.125 8.6397 7.23497 8.33135 7.441C8.02301 7.64702 7.78269 7.93986 7.64077 8.28247C7.49886 8.62508 7.46173 9.00208 7.53408 9.3658C7.60642 9.72951 7.785 10.0636 8.04722 10.3258C8.30945 10.588 8.64354 10.7666 9.00725 10.839C9.37097 10.9113 9.74797 10.8742 10.0906 10.7323C10.4332 10.5904 10.726 10.35 10.9321 10.0417C11.1381 9.73335 11.248 9.37084 11.248 9C11.248 8.50272 11.0505 8.02581 10.6989 7.67418C10.3472 7.32255 9.87033 7.125 9.37305 7.125Z" fill="white"/>
</g>
<defs>
<clipPath id="clip0_6810_852">
<rect width="12" height="12" fill="white" transform="translate(3.37305 3)"/>
</clipPath>
</defs>
</svg>
