<svg width="12" height="12" viewBox="0 0 12 12" fill="none" xmlns="http://www.w3.org/2000/svg">
<path d="M6.00033 0.166626C4.8466 0.166626 3.71879 0.508745 2.7595 1.14972C1.80021 1.79069 1.05254 2.70174 0.611031 3.76764C0.16952 4.83354 0.0540002 6.00643 0.279081 7.13799C0.504161 8.26954 1.05973 9.30894 1.87554 10.1247C2.69134 10.9406 3.73075 11.4961 4.8623 11.7212C5.99386 11.9463 7.16675 11.8308 8.23265 11.3893C9.29855 10.9477 10.2096 10.2001 10.8506 9.24079C11.4915 8.2815 11.8337 7.15368 11.8337 5.99996C11.8337 5.23391 11.6828 4.47537 11.3896 3.76764C11.0965 3.05991 10.6668 2.41684 10.1251 1.87517C9.58344 1.33349 8.94038 0.903814 8.23265 0.610662C7.52492 0.31751 6.76637 0.166626 6.00033 0.166626ZM8.74783 4.66413L5.83116 7.58079C5.77693 7.63547 5.71242 7.67886 5.64133 7.70848C5.57025 7.73809 5.494 7.75334 5.41699 7.75334C5.33999 7.75334 5.26374 7.73809 5.19266 7.70848C5.12157 7.67886 5.05706 7.63547 5.00283 7.58079L3.83616 6.41413C3.72632 6.30428 3.66461 6.1553 3.66461 5.99996C3.66461 5.84462 3.72632 5.69564 3.83616 5.58579C3.94601 5.47595 4.09499 5.41424 4.25033 5.41424C4.40567 5.41424 4.55465 5.47595 4.66449 5.58579L5.41699 6.34413L7.91949 3.83579C8.02934 3.72595 8.17832 3.66424 8.33366 3.66424C8.489 3.66424 8.63798 3.72595 8.74783 3.83579C8.85767 3.94564 8.91938 4.09462 8.91938 4.24996C8.91938 4.4053 8.85767 4.55428 8.74783 4.66413Z" fill="#1B9B48"/>
</svg>
