<svg width="17" height="17" viewBox="0 0 17 17" fill="none" xmlns="http://www.w3.org/2000/svg">
<rect width="17" height="17" rx="3" fill="#1B9B48"/>
<path d="M8.40332 3.5C7.41442 3.5 6.44772 3.79324 5.62547 4.34265C4.80323 4.89206 4.16236 5.67295 3.78392 6.58658C3.40549 7.50021 3.30647 8.50555 3.4994 9.47545C3.69232 10.4454 4.16853 11.3363 4.86779 12.0355C5.56705 12.7348 6.45797 13.211 7.42787 13.4039C8.39778 13.5969 9.40311 13.4978 10.3167 13.1194C11.2304 12.741 12.0113 12.1001 12.5607 11.2779C13.1101 10.4556 13.4033 9.48891 13.4033 8.5C13.4033 7.84339 13.274 7.19321 13.0227 6.58658C12.7714 5.97995 12.4031 5.42876 11.9389 4.96447C11.4746 4.50017 10.9234 4.13188 10.3167 3.8806C9.71011 3.62933 9.05993 3.5 8.40332 3.5ZM10.7583 7.355L8.25832 9.855C8.21184 9.90186 8.15654 9.93906 8.09561 9.96445C8.03468 9.98983 7.96933 10.0029 7.90332 10.0029C7.83732 10.0029 7.77196 9.98983 7.71103 9.96445C7.6501 9.93906 7.5948 9.90186 7.54832 9.855L6.54832 8.855C6.45417 8.76085 6.40128 8.63315 6.40128 8.5C6.40128 8.36685 6.45417 8.23915 6.54832 8.145C6.64247 8.05085 6.77017 7.99795 6.90332 7.99795C7.03647 7.99795 7.16417 8.05085 7.25832 8.145L7.90332 8.795L10.0483 6.645C10.1425 6.55085 10.2702 6.49795 10.4033 6.49795C10.5365 6.49795 10.6642 6.55085 10.7583 6.645C10.8525 6.73915 10.9054 6.86685 10.9054 7C10.9054 7.13315 10.8525 7.26085 10.7583 7.355Z" fill="white"/>
</svg>
