<svg width="50" height="51" viewBox="0 0 50 51" fill="none" xmlns="http://www.w3.org/2000/svg">
<rect x="0.5" y="0.5" width="49" height="49" rx="5.5" fill="white" fill-opacity="0.15" stroke="url(#paint0_linear_6882_852)"/>
<g filter="url(#filter0_di_6882_852)">
<path d="M38.7949 22.7192H37.6454V20.4203C37.6454 17.0669 36.3133 13.8509 33.9421 11.4797C31.5709 9.10849 28.3549 7.77637 25.0015 7.77637C21.6481 7.77637 18.4321 9.10849 16.0609 11.4797C13.6897 13.8509 12.3576 17.0669 12.3576 20.4203V22.7192H11.2081C10.2936 22.7192 9.41645 23.0825 8.76976 23.7292C8.12307 24.3759 7.75977 25.253 7.75977 26.1675V30.7653C7.75977 31.6799 8.12307 32.557 8.76976 33.2037C9.41645 33.8504 10.2936 34.2137 11.2081 34.2137H12.3576C12.3576 35.1282 12.7209 36.0053 13.3676 36.652C14.0142 37.2987 14.8913 37.662 15.8059 37.662C16.7205 37.662 17.5976 37.2987 18.2443 36.652C18.8909 36.0053 19.2543 35.1282 19.2543 34.2137V22.7192C19.2545 22.1674 19.1224 21.6235 18.8689 21.1334C18.6154 20.6432 18.248 20.2211 17.7975 19.9024C17.3471 19.5836 16.8267 19.3777 16.2801 19.3018C15.7335 19.2259 15.1767 19.2823 14.6565 19.4663C14.899 16.9027 16.0888 14.5217 17.9934 12.7888C19.8981 11.0558 22.3805 10.0955 24.9555 10.0955C27.5305 10.0955 30.013 11.0558 31.9176 12.7888C33.8222 14.5217 35.0121 16.9027 35.2546 19.4663C34.7396 19.3003 34.1929 19.2579 33.6585 19.3424C33.1242 19.4268 32.6172 19.6359 32.1785 19.9525C31.7399 20.2692 31.3819 20.6846 31.1335 21.1653C30.8851 21.6459 30.7533 22.1782 30.7487 22.7192V34.2137C30.7503 34.7645 30.8838 35.307 31.138 35.7957C31.3923 36.2843 31.7599 36.705 32.2101 37.0224C32.6603 37.3398 33.18 37.5447 33.7257 37.62C34.2714 37.6953 34.8272 37.6388 35.3465 37.4551V39.9609H31.7832C31.6189 40.7963 31.2649 41.5828 30.7487 42.2598H36.496C36.8008 42.2598 37.0932 42.1387 37.3088 41.9232C37.5243 41.7076 37.6454 41.4152 37.6454 41.1104V34.2137H38.7949C39.7094 34.2137 40.5865 33.8504 41.2332 33.2037C41.8799 32.557 42.2432 31.6799 42.2432 30.7653V26.1675C42.2432 25.253 41.8799 24.3759 41.2332 23.7292C40.5865 23.0825 39.7094 22.7192 38.7949 22.7192Z" fill="white"/>
<path d="M26.1509 35.3631H23.852C22.9375 35.3631 22.0604 35.7264 21.4137 36.3731C20.767 37.0198 20.4037 37.8969 20.4037 38.8115C20.4037 39.726 20.767 40.6031 21.4137 41.2498C22.0604 41.8965 22.9375 42.2598 23.852 42.2598H26.1509C27.0655 42.2598 27.9426 41.8965 28.5893 41.2498C29.236 40.6031 29.5993 39.726 29.5993 38.8115C29.5993 37.8969 29.236 37.0198 28.5893 36.3731C27.9426 35.7264 27.0655 35.3631 26.1509 35.3631Z" fill="white"/>
</g>
<defs>
<filter id="filter0_di_6882_852" x="3.75977" y="5.77637" width="42.4844" height="44.4834" filterUnits="userSpaceOnUse" color-interpolation-filters="sRGB">
<feFlood flood-opacity="0" result="BackgroundImageFix"/>
<feColorMatrix in="SourceAlpha" type="matrix" values="0 0 0 0 0 0 0 0 0 0 0 0 0 0 0 0 0 0 127 0" result="hardAlpha"/>
<feOffset dy="4"/>
<feGaussianBlur stdDeviation="2"/>
<feComposite in2="hardAlpha" operator="out"/>
<feColorMatrix type="matrix" values="0 0 0 0 0 0 0 0 0 0 0 0 0 0 0 0 0 0 0.12 0"/>
<feBlend mode="normal" in2="BackgroundImageFix" result="effect1_dropShadow_6882_852"/>
<feBlend mode="normal" in="SourceGraphic" in2="effect1_dropShadow_6882_852" result="shape"/>
<feColorMatrix in="SourceAlpha" type="matrix" values="0 0 0 0 0 0 0 0 0 0 0 0 0 0 0 0 0 0 127 0" result="hardAlpha"/>
<feOffset dy="-2"/>
<feGaussianBlur stdDeviation="1"/>
<feComposite in2="hardAlpha" operator="arithmetic" k2="-1" k3="1"/>
<feColorMatrix type="matrix" values="0 0 0 0 0 0 0 0 0 0 0 0 0 0 0 0 0 0 0.13 0"/>
<feBlend mode="normal" in2="shape" result="effect2_innerShadow_6882_852"/>
</filter>
<linearGradient id="paint0_linear_6882_852" x1="25" y1="0" x2="25" y2="50" gradientUnits="userSpaceOnUse">
<stop stop-color="#FCFCFC" stop-opacity="0.08"/>
<stop offset="1" stop-color="#BCBCBC" stop-opacity="0"/>
</linearGradient>
</defs>
</svg>
