<svg width="8" height="12" viewBox="0 0 8 12" fill="none" xmlns="http://www.w3.org/2000/svg">
                                <path
                                    d="M5.26745 6.001L0.823905 9.70371C0.646543 9.85269 0.535444 10.0659 0.514937 10.2966C0.494431 10.5273 0.566188 10.7568 0.714495 10.9347C0.862801 11.1126 1.07557 11.2245 1.30621 11.2459C1.53685 11.2673 1.76656 11.1964 1.94504 11.0487L7.19526 6.67353C7.29371 6.59128 7.3729 6.48842 7.42723 6.37221C7.48157 6.25601 7.50974 6.12929 7.50974 6.00101C7.50974 5.87273 7.48157 5.74601 7.42723 5.6298C7.3729 5.5136 7.29371 5.41074 7.19526 5.32849L1.94504 0.9533C1.76664 0.804958 1.53665 0.733496 1.3056 0.754613C1.07454 0.775729 0.861317 0.887697 0.712761 1.06592C0.564205 1.24414 0.492467 1.47405 0.513307 1.70513C0.534146 1.93621 0.64586 2.14957 0.823906 2.29834L5.26745 6.001Z"
                                    fill="#78889B"
                                />
                            </svg>