<svg width="7" height="10" viewBox="0 0 7 10" fill="none" xmlns="http://www.w3.org/2000/svg">
                        <path
                            d="M1.20119 4.08984L5.7014 0.339204C5.85438 0.212644 6.05128 0.151872 6.24897 0.170197C6.44666 0.188522 6.62904 0.284451 6.75616 0.436975C6.88328 0.589499 6.94478 0.786189 6.92721 0.983972C6.90963 1.18176 6.8144 1.36451 6.66238 1.49222L2.85361 4.66637L6.66238 7.84052C6.81499 7.96805 6.91074 8.15095 6.92861 8.34905C6.94647 8.54714 6.88498 8.74422 6.75764 8.89701C6.63031 9.04979 6.44755 9.14577 6.2495 9.16388C6.05145 9.18198 5.85431 9.12072 5.7014 8.99355L1.20119 5.24286C1.11681 5.17235 1.04893 5.08417 1.00236 4.98456C0.955781 4.88494 0.931641 4.77631 0.931641 4.66635C0.931641 4.55638 0.955781 4.44775 1.00236 4.34813C1.04893 4.24852 1.11681 4.16034 1.20119 4.08984Z"
                            fill="#1877F2"
                        />
                    </svg>