<svg width="15" height="15" viewBox="0 0 15 15" fill="none" xmlns="http://www.w3.org/2000/svg">
                                    <path
                                        d="M7.19394 2.81879H2.69392C2.35293 2.81879 2.0259 2.95425 1.78478 3.19537C1.54366 3.43649 1.4082 3.76351 1.4082 4.10451V13.1045C1.4082 13.4455 1.54366 13.7726 1.78478 14.0137C2.0259 14.2548 2.35293 14.3903 2.69392 14.3903H11.694C12.0349 14.3903 12.362 14.2548 12.6031 14.0137C12.8442 13.7726 12.9797 13.4455 12.9797 13.1045V8.60452M12.0154 1.8545C12.2711 1.59875 12.618 1.45508 12.9797 1.45508C13.3414 1.45508 13.6882 1.59875 13.944 1.8545C14.1997 2.11025 14.3434 2.45711 14.3434 2.81879C14.3434 3.18047 14.1997 3.52733 13.944 3.78308L7.8368 9.89024L5.26536 10.5331L5.90822 7.96166L12.0154 1.8545Z"
                                        stroke="white"
                                        stroke-linecap="round"
                                        stroke-linejoin="round"
                                    />
                                </svg>