<svg width="14" height="14" viewBox="0 0 14 14" fill="none" xmlns="http://www.w3.org/2000/svg">
                                        <path
                                            d="M12.25 7C11.7167 7 11.4638 7.37581 11.375 7.77263C11.0552 9.20063 9.69806 11.375 7 11.375C4.58369 11.375 2.625 9.41587 2.625 7C2.625 4.58413 4.58369 2.625 7 2.625C7.98 2.625 8.87906 2.95444 9.6075 3.5H8.75C8.267 3.5 7.875 3.892 7.875 4.375C7.875 4.858 8.267 5.25 8.75 5.25H11.375C11.858 5.25 12.25 4.858 12.25 4.375V1.75C12.25 1.267 11.858 0.875 11.375 0.875C10.892 0.875 10.5 1.267 10.5 1.75V1.97663C9.50819 1.28275 8.30244 0.875 7 0.875C3.61725 0.875 0.875 3.61725 0.875 7C0.875 10.3827 3.61725 13.125 7 13.125C11.3658 13.125 13.125 8.96875 13.125 7.92969C13.125 7.294 12.6604 7 12.25 7Z"
                                            fill="white"
                                        />
                                    </svg>