<svg width="14" height="14" viewBox="0 0 14 14" fill="none" xmlns="http://www.w3.org/2000/svg">
                                        <path
                                            d="M8 13.5H6C5.86739 13.5 5.74021 13.4473 5.64645 13.3536C5.55268 13.2598 5.5 13.1326 5.5 13V12.28C5.50184 12.1431 5.46291 12.0087 5.38816 11.894C5.31341 11.7793 5.20622 11.6894 5.08024 11.6358C4.95425 11.5822 4.81516 11.5673 4.68067 11.593C4.54619 11.6186 4.42238 11.6837 4.325 11.78L3.825 12.28C3.77852 12.3269 3.72322 12.3641 3.66229 12.3894C3.60136 12.4148 3.53601 12.4279 3.47 12.4279C3.40399 12.4279 3.33864 12.4148 3.27771 12.3894C3.21678 12.3641 3.16148 12.3269 3.115 12.28L1.695 10.89C1.64814 10.8435 1.61094 10.7882 1.58555 10.7273C1.56017 10.6664 1.5471 10.601 1.5471 10.535C1.5471 10.469 1.56017 10.4036 1.58555 10.3427C1.61094 10.2818 1.64814 10.2265 1.695 10.18L2.195 9.68C2.29125 9.58262 2.35636 9.45881 2.38203 9.32433C2.40771 9.18984 2.39279 9.05075 2.33918 8.92476C2.28557 8.79878 2.19569 8.69159 2.08097 8.61684C1.96626 8.54209 1.83191 8.50316 1.695 8.505H1C0.867392 8.505 0.740215 8.45232 0.646447 8.35855C0.552678 8.26478 0.5 8.13761 0.5 8.005V6C0.5 5.86739 0.552678 5.74021 0.646447 5.64645C0.740215 5.55268 0.867392 5.5 1 5.5H1.72C1.85691 5.50184 1.99126 5.46291 2.10597 5.38816C2.22069 5.31341 2.31057 5.20622 2.36418 5.08024C2.41779 4.95425 2.43271 4.81516 2.40703 4.68067C2.38136 4.54619 2.31625 4.42238 2.22 4.325L1.72 3.825C1.67314 3.77852 1.63594 3.72322 1.61055 3.66229C1.58517 3.60136 1.5721 3.53601 1.5721 3.47C1.5721 3.40399 1.58517 3.33864 1.61055 3.27771C1.63594 3.21678 1.67314 3.16148 1.72 3.115L3.11 1.695C3.15648 1.64814 3.21178 1.61094 3.27271 1.58555C3.33364 1.56017 3.39899 1.5471 3.465 1.5471C3.53101 1.5471 3.59636 1.56017 3.65729 1.58555C3.71822 1.61094 3.77352 1.64814 3.82 1.695L4.32 2.195C4.41738 2.29125 4.54119 2.35636 4.67567 2.38203C4.81016 2.40771 4.94925 2.39279 5.07524 2.33918C5.20122 2.28557 5.30841 2.19569 5.38316 2.08097C5.45791 1.96626 5.49684 1.83191 5.495 1.695V1C5.495 0.867392 5.54768 0.740215 5.64145 0.646447C5.73521 0.552678 5.86239 0.5 5.995 0.5H7.995C8.12761 0.5 8.25479 0.552678 8.34855 0.646447C8.44232 0.740215 8.495 0.867392 8.495 1V1.72C8.49316 1.85691 8.53209 1.99126 8.60684 2.10597C8.68159 2.22069 8.78878 2.31057 8.91476 2.36418C9.04075 2.41779 9.17984 2.43271 9.31433 2.40703C9.44881 2.38136 9.57262 2.31625 9.67 2.22L10.17 1.72C10.2165 1.67314 10.2718 1.63594 10.3327 1.61055C10.3936 1.58517 10.459 1.5721 10.525 1.5721C10.591 1.5721 10.6564 1.58517 10.7173 1.61055C10.7782 1.63594 10.8335 1.67314 10.88 1.72L12.295 3.135C12.3419 3.18148 12.3791 3.23678 12.4044 3.29771C12.4298 3.35864 12.4429 3.42399 12.4429 3.49C12.4429 3.55601 12.4298 3.62136 12.4044 3.68229C12.3791 3.74322 12.3419 3.79852 12.295 3.845L11.795 4.345C11.6987 4.44238 11.6336 4.56619 11.608 4.70067C11.5823 4.83516 11.5972 4.97425 11.6508 5.10024C11.7044 5.22622 11.7943 5.33341 11.909 5.40816C12.0237 5.48291 12.1581 5.52184 12.295 5.52H13C13.1326 5.52 13.2598 5.57268 13.3536 5.66645C13.4473 5.76021 13.5 5.88739 13.5 6.02V8.02C13.5 8.15261 13.4473 8.27979 13.3536 8.37355C13.2598 8.46732 13.1326 8.52 13 8.52H12.28C12.1431 8.51816 12.0087 8.55709 11.894 8.63184C11.7793 8.70659 11.6894 8.81378 11.6358 8.93976C11.5822 9.06575 11.5673 9.20484 11.593 9.33932C11.6186 9.47381 11.6837 9.59762 11.78 9.695L12.28 10.195C12.3269 10.2415 12.3641 10.2968 12.3894 10.3577C12.4148 10.4186 12.4279 10.484 12.4279 10.55C12.4279 10.616 12.4148 10.6814 12.3894 10.7423C12.3641 10.8032 12.3269 10.8585 12.28 10.905L10.865 12.32C10.8185 12.3669 10.7632 12.4041 10.7023 12.4294C10.6414 12.4548 10.576 12.4679 10.51 12.4679C10.444 12.4679 10.3786 12.4548 10.3177 12.4294C10.2568 12.4041 10.2015 12.3669 10.155 12.32L9.655 11.82C9.55762 11.7237 9.43381 11.6586 9.29932 11.633C9.16484 11.6073 9.02575 11.6222 8.89977 11.6758C8.77378 11.7294 8.66659 11.8193 8.59184 11.934C8.51709 12.0487 8.47816 12.1831 8.48 12.32V13C8.4801 13.1292 8.43018 13.2535 8.34069 13.3467C8.25121 13.4399 8.12911 13.4948 8 13.5ZM6.5 12.5H7.5V12.28C7.49959 11.9461 7.59837 11.6197 7.78381 11.342C7.96924 11.0644 8.23297 10.8481 8.54153 10.7206C8.85009 10.5931 9.18957 10.5602 9.51689 10.6259C9.84422 10.6917 10.1446 10.8532 10.38 11.09L10.535 11.245L11.245 10.535L11.09 10.38C10.8532 10.1446 10.6917 9.84422 10.6259 9.51689C10.5602 9.18957 10.5931 8.85009 10.7206 8.54153C10.8481 8.23297 11.0644 7.96924 11.342 7.78381C11.6197 7.59837 11.9461 7.49959 12.28 7.5H12.5V6.5H12.28C11.9461 6.50041 11.6197 6.40163 11.342 6.21619C11.0644 6.03076 10.8481 5.76703 10.7206 5.45847C10.5931 5.14991 10.5602 4.81043 10.6259 4.48311C10.6917 4.15578 10.8532 3.85538 11.09 3.62L11.245 3.465L10.535 2.755L10.38 2.91C10.1446 3.14678 9.84422 3.30829 9.51689 3.37405C9.18957 3.43981 8.85009 3.40685 8.54153 3.27936C8.23297 3.15186 7.96924 2.93558 7.78381 2.65795C7.59837 2.38032 7.49959 2.05386 7.5 1.72V1.5H6.5V1.72C6.50041 2.05386 6.40163 2.38032 6.21619 2.65795C6.03076 2.93558 5.76703 3.15186 5.45847 3.27936C5.14991 3.40685 4.81043 3.43981 4.48311 3.37405C4.15578 3.30829 3.85538 3.14678 3.62 2.91L3.465 2.755L2.755 3.465L2.91 3.62C3.14678 3.85538 3.30829 4.15578 3.37405 4.48311C3.43981 4.81043 3.40685 5.14991 3.27936 5.45847C3.15186 5.76703 2.93558 6.03076 2.65795 6.21619C2.38032 6.40163 2.05386 6.50041 1.72 6.5H1.5V7.5H1.72C2.05386 7.49959 2.38032 7.59837 2.65795 7.78381C2.93558 7.96924 3.15186 8.23297 3.27936 8.54153C3.40685 8.85009 3.43981 9.18957 3.37405 9.51689C3.30829 9.84422 3.14678 10.1446 2.91 10.38L2.755 10.535L3.465 11.245L3.62 11.09C3.85538 10.8532 4.15578 10.6917 4.48311 10.6259C4.81043 10.5602 5.14991 10.5931 5.45847 10.7206C5.76703 10.8481 6.03076 11.0644 6.21619 11.342C6.40163 11.6197 6.50041 11.9461 6.5 12.28V12.5Z"
                                            fill="#1B9B48"
                                        />
                                        <path
                                            d="M7 9.5C6.50555 9.5 6.0222 9.35338 5.61108 9.07868C5.19995 8.80397 4.87952 8.41353 4.6903 7.95671C4.50108 7.4999 4.45157 6.99723 4.54804 6.51228C4.6445 6.02732 4.8826 5.58187 5.23223 5.23223C5.58187 4.8826 6.02732 4.6445 6.51228 4.54804C6.99723 4.45157 7.4999 4.50108 7.95671 4.6903C8.41353 4.87952 8.80397 5.19995 9.07868 5.61108C9.35338 6.0222 9.5 6.50555 9.5 7C9.5 7.66304 9.23661 8.29893 8.76777 8.76777C8.29893 9.23661 7.66304 9.5 7 9.5ZM7 5.5C6.70333 5.5 6.41332 5.58797 6.16665 5.7528C5.91997 5.91762 5.72771 6.15189 5.61418 6.42598C5.50065 6.70007 5.47095 7.00167 5.52882 7.29264C5.5867 7.58361 5.72956 7.85088 5.93934 8.06066C6.14912 8.27044 6.41639 8.4133 6.70737 8.47118C6.99834 8.52906 7.29994 8.49935 7.57403 8.38582C7.84812 8.27229 8.08238 8.08003 8.24721 7.83336C8.41203 7.58668 8.5 7.29667 8.5 7C8.5 6.60218 8.34197 6.22065 8.06066 5.93934C7.77936 5.65804 7.39783 5.5 7 5.5Z"
                                            fill="#1B9B48"
                                        />
                                    </svg>