<svg width="16" height="17" viewBox="0 0 16 17" fill="none" xmlns="http://www.w3.org/2000/svg">
                            <path
                                d="M8 0.0126953C3.5885 0.0126953 0 3.60168 0 8.01296C0 12.4242 3.5885 16.0127 8 16.0127C12.4113 16.0127 16 12.4242 16 8.01296C16 3.60168 12.4113 0.0126953 8 0.0126953ZM8 14.7508C4.28449 14.7508 1.26186 11.7282 1.26186 8.01291C1.26186 4.29718 4.28449 1.27456 8 1.27456C11.7155 1.27456 14.7381 4.29718 14.7381 8.01291C14.7381 11.7282 11.7155 14.7508 8 14.7508Z"
                                fill="black"
                            />
                            <path
                                d="M6.98314 6.75259C6.98314 6.34576 7.57816 6.27629 8.09429 6.27629C8.58075 6.27629 9.24544 6.50428 9.80123 6.79242L9.91014 5.67111C9.6322 5.51221 8.9874 5.32363 8.33244 5.28422L8.49117 4.14301H7.42941L7.58836 5.28422C6.21913 5.41303 5.7725 6.20679 5.7725 6.87166C5.7725 8.54851 8.89782 8.19168 8.89782 9.2232C8.89782 9.61051 8.531 9.7491 7.88585 9.7491C7.01285 9.7491 6.35771 9.44183 6.0206 9.12405L5.85174 10.3843C6.16955 10.5729 6.81414 10.7416 7.58836 10.7814L7.42941 11.8828H8.49117L8.33244 10.7713C9.93985 10.6323 10.2276 9.7788 10.2276 9.21346C10.2276 7.21915 6.98314 7.71499 6.98314 6.75259Z"
                                fill="black"
                            />
                        </svg>