<svg width="15" height="15" viewBox="0 0 15 15" fill="none" xmlns="http://www.w3.org/2000/svg">
                            <path
                                d="M14.5196 1.89741C14.3957 1.84162 14.2584 1.82264 14.124 1.84273C13.9896 1.86283 13.8639 1.92115 13.7617 2.01075L12.7984 2.86783C12.1459 2.09945 11.334 1.48224 10.4191 1.05903C9.50416 0.635822 8.50811 0.416742 7.50006 0.416995C6.20107 0.415791 4.92676 0.771813 3.81651 1.44612C2.70625 2.12043 1.80279 3.08706 1.20495 4.2403C0.607101 5.39353 0.337889 6.68896 0.426753 7.9849C0.515617 9.28084 0.959136 10.5274 1.7088 11.5882C2.45847 12.6491 3.48541 13.4833 4.67732 13.9998C5.86923 14.5162 7.18021 14.695 8.46687 14.5165C9.75354 14.338 10.9663 13.8091 11.9726 12.9877C12.9789 12.1662 13.74 11.0839 14.1726 9.85908C14.2345 9.68155 14.2235 9.48666 14.1418 9.3173C14.0601 9.14793 13.9145 9.01795 13.7369 8.95595C13.5594 8.89396 13.3645 8.90503 13.1951 8.98672C13.0258 9.06842 12.8958 9.21405 12.8338 9.39158C12.487 10.3711 11.8775 11.2364 11.0721 11.8929C10.2666 12.5494 9.29609 12.9717 8.26673 13.1138C7.23737 13.2558 6.18877 13.1121 5.23559 12.6983C4.28241 12.2846 3.46136 11.6167 2.86221 10.7677C2.26307 9.91869 1.9089 8.92131 1.83844 7.88458C1.76797 6.84786 1.98393 5.81172 2.46269 4.88947C2.94145 3.96722 3.66458 3.19436 4.55301 2.65542C5.44143 2.11648 6.46094 1.8322 7.50006 1.83366C8.30898 1.83343 9.10824 2.00948 9.84222 2.34955C10.5762 2.68963 11.2272 3.18556 11.7501 3.80283L10.5742 4.84408C10.4659 4.93992 10.3895 5.06665 10.3553 5.20721C10.3211 5.34777 10.3308 5.49542 10.383 5.63033C10.4343 5.76345 10.5247 5.87795 10.6423 5.95885C10.7598 6.03974 10.899 6.08324 11.0417 6.08366H14.2292C14.4171 6.08366 14.5973 6.00903 14.7301 5.8762C14.8629 5.74336 14.9376 5.56319 14.9376 5.37533V2.542C14.9373 2.40574 14.8977 2.27246 14.8236 2.15813C14.7494 2.0438 14.6439 1.95328 14.5196 1.89741Z"
                                fill="black"
                            />
                        </svg>