<svg width="15" height="14" viewBox="0 0 15 14" fill="none" xmlns="http://www.w3.org/2000/svg">
                                <path
                                    d="M11.4688 13.7692H2.96875C2.40516 13.7692 1.86466 13.5454 1.46615 13.1468C1.06763 12.7483 0.84375 12.2078 0.84375 11.6442V3.14424C0.84375 2.58066 1.06763 2.04016 1.46615 1.64164C1.86466 1.24313 2.40516 1.01924 2.96875 1.01924H5.80208C5.98994 1.01924 6.17011 1.09387 6.30295 1.22671C6.43579 1.35955 6.51042 1.53971 6.51042 1.72758C6.51042 1.91544 6.43579 2.0956 6.30295 2.22844C6.17011 2.36128 5.98994 2.43591 5.80208 2.43591H2.96875C2.78089 2.43591 2.60072 2.51054 2.46788 2.64338C2.33504 2.77621 2.26042 2.95638 2.26042 3.14424V11.6442C2.26042 11.8321 2.33504 12.0123 2.46788 12.1451C2.60072 12.2779 2.78089 12.3526 2.96875 12.3526H11.4688C11.6566 12.3526 11.8368 12.2779 11.9696 12.1451C12.1025 12.0123 12.1771 11.8321 12.1771 11.6442V8.81091C12.1771 8.62305 12.2517 8.44288 12.3845 8.31004C12.5174 8.1772 12.6976 8.10258 12.8854 8.10258C13.0733 8.10258 13.2534 8.1772 13.3863 8.31004C13.5191 8.44288 13.5938 8.62305 13.5938 8.81091V11.6442C13.5938 12.2078 13.3699 12.7483 12.9714 13.1468C12.5728 13.5454 12.0323 13.7692 11.4688 13.7692Z"
                                    fill="#fff"
                                />
                                <path
                                    d="M9.76875 2.34383L6.2625 5.88549C6.21467 5.92815 6.18229 5.98543 6.17042 6.04841L5.46208 8.75424C5.44492 8.81392 5.44443 8.87716 5.46066 8.9371C5.4769 8.99703 5.50923 9.05138 5.55417 9.09424C5.5887 9.12194 5.62842 9.14247 5.67099 9.15463C5.71356 9.1668 5.75813 9.17035 5.80208 9.16508C5.83245 9.17138 5.8638 9.17138 5.89417 9.16508L8.6 8.45674C8.66298 8.44486 8.72026 8.41249 8.76292 8.36466L12.2692 4.84424L9.76875 2.34383Z"
                                    fill="#fff"
                                />
                                <path
                                    d="M14.3021 1.33799L13.275 0.310909C13.0737 0.113209 12.8028 0.00244141 12.5206 0.00244141C12.2385 0.00244141 11.9676 0.113209 11.7662 0.310909L10.7604 1.33799L13.275 3.85258L14.3021 2.84674C14.4998 2.64542 14.6106 2.37453 14.6106 2.09237C14.6106 1.8102 14.4998 1.53932 14.3021 1.33799Z"
                                    fill="#fff"
                                />
                            </svg>