<svg width="7" height="10" viewBox="0 0 7 10" fill="none" xmlns="http://www.w3.org/2000/svg">
                        <path
                            d="M6.63865 4.08984L2.13845 0.339204C1.98546 0.212644 1.78856 0.151872 1.59087 0.170197C1.39318 0.188522 1.21081 0.284451 1.08369 0.436975C0.956565 0.589499 0.895059 0.786189 0.912636 0.983972C0.930213 1.18176 1.02544 1.36451 1.17747 1.49222L4.98623 4.66637L1.17747 7.84052C1.02486 7.96805 0.929101 8.15095 0.911238 8.34905C0.893376 8.54714 0.954865 8.74422 1.0822 8.89701C1.20953 9.04979 1.3923 9.14577 1.59035 9.16388C1.7884 9.18198 1.98553 9.12072 2.13845 8.99355L6.63865 5.24286C6.72303 5.17235 6.79091 5.08417 6.83749 4.98456C6.88406 4.88494 6.9082 4.77631 6.9082 4.66635C6.9082 4.55638 6.88406 4.44775 6.83749 4.34813C6.79091 4.24852 6.72303 4.16034 6.63865 4.08984Z"
                            fill="#1877F2"
                        />
                    </svg>