<svg  width="9" height="12" viewBox="0 0 9 12" fill="none" xmlns="http://www.w3.org/2000/svg">
                                <path
                                    d="M9 6.87204V2.02743C6.62502 1.98466 4.56815 0 4.56815 0C4.56815 0 2.51128 1.98466 0.1363 2.02743H0L0 6.75325C0 6.95407 0.0434107 7.29368 0.0436441 7.29468C0.184612 8.05293 0.897386 10.1274 4.4993 11.9947C4.49953 11.9965 4.5 11.9982 4.50023 12C4.50163 11.999 4.50303 11.9985 4.50467 11.9977C4.50607 11.9985 4.50747 11.999 4.50887 12C4.50934 11.9982 4.50957 11.9965 4.5098 11.9947C8.06761 10.1504 8.80605 8.10445 8.95939 7.32369C8.98646 7.18589 9 6.87204 9 6.87204Z"
                                    fill="#EC1723"
                                />
                                <path
                                    d="M5.2152 4.55013L4.7639 5.00771C4.59093 4.96092 4.40878 4.96087 4.23579 5.00757C4.06279 5.05427 3.90504 5.14608 3.7784 5.27375C3.65177 5.40143 3.56071 5.56048 3.51439 5.7349C3.46807 5.90932 3.46812 6.09296 3.51453 6.26735L2.81081 6.97429C2.47425 6.71722 2.19378 6.38303 2 6C2.2909 5.42489 2.76823 4.96746 3.35266 4.7037C3.93709 4.43995 4.59344 4.38576 5.21265 4.55013H5.2152ZM6.18409 5.02571C6.5232 5.28278 6.80367 5.61697 7 6C6.7089 6.57617 6.23075 7.03435 5.64522 7.29818C5.0597 7.562 4.40218 7.61554 3.78225 7.44987L4.23355 6.99229C4.40653 7.03908 4.58867 7.03913 4.76167 6.99243C4.93466 6.94573 5.09241 6.85392 5.21905 6.72625C5.34568 6.59857 5.43674 6.43952 5.48306 6.2651C5.52938 6.09068 5.52933 5.90704 5.48292 5.73265L6.18664 5.02571H6.18409ZM5.93783 4.18401C6.03839 4.08263 6.2023 4.08263 6.30286 4.18401C6.40226 4.28423 6.40226 4.44585 6.30286 4.54606L3.05962 7.81599C2.95906 7.91737 2.79515 7.91737 2.69459 7.81599C2.59519 7.71577 2.59519 7.55415 2.69459 7.45394L5.93783 4.18401Z"
                                    fill="white"
                                />
                            </svg>