<svg style="" width="16" height="17" viewBox="0 0 16 17" fill="none" xmlns="http://www.w3.org/2000/svg">
                        <path d="M8.00012 7.99984C10.0252 7.99984 11.6668 6.35822 11.6668 4.33317C11.6668 2.30813 10.0252 0.666504 8.00012 0.666504C5.97508 0.666504 4.33346 2.30813 4.33346 4.33317C4.33346 6.35822 5.97508 7.99984 8.00012 7.99984Z" fill="currentColor" />
                        <path d="M15.3334 14.4165V15.3332C15.3334 15.5763 15.2368 15.8094 15.0649 15.9814C14.893 16.1533 14.6599 16.2498 14.4168 16.2498H1.58342C1.3403 16.2498 1.10714 16.1533 0.935234 15.9814C0.763325 15.8094 0.666748 15.5763 0.666748 15.3332V14.4165C0.666748 12.9578 1.24621 11.5589 2.27766 10.5274C3.30911 9.49597 4.70806 8.9165 6.16675 8.9165H9.83342C11.2921 8.9165 12.6911 9.49597 13.7225 10.5274C14.754 11.5589 15.3334 12.9578 15.3334 14.4165Z" fill="currentColor" />
                    </svg>