<svg width="10" height="13" viewBox="0 0 10 13" fill="none" xmlns="http://www.w3.org/2000/svg">
                        <path
                            d="M7.95195 12.9982H2.0449C1.69914 12.9974 1.36778 12.8597 1.12329 12.6152C0.878803 12.3707 0.741077 12.0393 0.740234 11.6936V2.49264C0.740234 2.36574 0.790646 2.24404 0.880379 2.1543C0.970112 2.06457 1.09182 2.01416 1.21872 2.01416H8.77877C8.90567 2.01416 9.02738 2.06457 9.11711 2.1543C9.20684 2.24404 9.25725 2.36574 9.25725 2.49264V11.6936C9.25641 12.0394 9.1186 12.3709 8.87397 12.6154C8.62934 12.8599 8.29782 12.9976 7.95195 12.9982ZM1.6972 2.97113V11.6936C1.69729 11.7858 1.73395 11.8742 1.79913 11.9393C1.86432 12.0045 1.95271 12.0412 2.0449 12.0413H7.95195C8.04419 12.0413 8.13266 12.0047 8.19792 11.9395C8.26318 11.8743 8.29988 11.7858 8.29997 11.6936V2.97113H1.6972Z"
                            fill="#434F64"
                        />
                        <path
                            d="M7.00947 2.97118H2.9902C2.8633 2.97118 2.7416 2.92077 2.65186 2.83103C2.56213 2.7413 2.51172 2.6196 2.51172 2.49269V1.62313C2.51223 1.24481 2.66276 0.882131 2.9303 0.614648C3.19785 0.347164 3.56056 0.196711 3.93888 0.196289H6.0608C6.43912 0.196711 6.80183 0.347164 7.06937 0.614648C7.33691 0.882131 7.48745 1.24481 7.48795 1.62313V2.49269C7.48795 2.6196 7.43754 2.7413 7.34781 2.83103C7.25808 2.92077 7.13637 2.97118 7.00947 2.97118ZM3.46869 2.01421H6.53099V1.62313C6.53082 1.49851 6.48121 1.37904 6.39306 1.29095C6.30491 1.20286 6.18542 1.15334 6.0608 1.15326H3.93888C3.81431 1.15343 3.6949 1.20298 3.60681 1.29107C3.51873 1.37915 3.46918 1.49856 3.46901 1.62313L3.46869 2.01421Z"
                            fill="#434F64"
                        />
                        <path
                            d="M4.99997 11.1667C4.87307 11.1667 4.75136 11.1163 4.66163 11.0265C4.5719 10.9368 4.52148 10.8151 4.52148 10.6882V4.32468C4.52148 4.19777 4.5719 4.07607 4.66163 3.98634C4.75136 3.8966 4.87307 3.84619 4.99997 3.84619C5.12687 3.84619 5.24857 3.8966 5.33831 3.98634C5.42804 4.07607 5.47845 4.19777 5.47845 4.32468V10.6882C5.47845 10.8151 5.42804 10.9368 5.33831 11.0265C5.24857 11.1163 5.12687 11.1667 4.99997 11.1667Z"
                            fill="#434F64"
                        />
                        <path
                            d="M3.27341 11.1667C3.1465 11.1667 3.0248 11.1163 2.93507 11.0265C2.84533 10.9368 2.79492 10.8151 2.79492 10.6882V4.32468C2.79492 4.19777 2.84533 4.07607 2.93507 3.98634C3.0248 3.8966 3.1465 3.84619 3.27341 3.84619C3.40031 3.84619 3.52201 3.8966 3.61175 3.98634C3.70148 4.07607 3.75189 4.19777 3.75189 4.32468V10.6882C3.75189 10.8151 3.70148 10.9368 3.61175 11.0265C3.52201 11.1163 3.40031 11.1667 3.27341 11.1667Z"
                            fill="#434F64"
                        />
                        <path
                            d="M6.72848 11.1667C6.60158 11.1667 6.47988 11.1163 6.39014 11.0265C6.30041 10.9368 6.25 10.8151 6.25 10.6882V4.32468C6.25 4.19777 6.30041 4.07607 6.39014 3.98634C6.47988 3.8966 6.60158 3.84619 6.72848 3.84619C6.85539 3.84619 6.97709 3.8966 7.06682 3.98634C7.15656 4.07607 7.20697 4.19777 7.20697 4.32468V10.6882C7.20697 10.8151 7.15656 10.9368 7.06682 11.0265C6.97709 11.1163 6.85539 11.1667 6.72848 11.1667Z"
                            fill="#434F64"
                        />
                        <path
                            d="M9.52152 2.97113H0.478484C0.351582 2.97113 0.229878 2.92072 0.140145 2.83098C0.0504117 2.74125 0 2.61955 0 2.49264C0 2.36574 0.0504117 2.24404 0.140145 2.1543C0.229878 2.06457 0.351582 2.01416 0.478484 2.01416H9.52152C9.64842 2.01416 9.77012 2.06457 9.85986 2.1543C9.94959 2.24404 10 2.36574 10 2.49264C10 2.61955 9.94959 2.74125 9.85986 2.83098C9.77012 2.92072 9.64842 2.97113 9.52152 2.97113Z"
                            fill="#434F64"
                        />
                    </svg>