<svg  width="11" height="7" viewBox="0 0 11 7" fill="none" xmlns="http://www.w3.org/2000/svg">
                                            <path
                                                d="M6.36433 6.60661C5.97381 6.99714 5.34064 6.99714 4.95012 6.60661L0.707479 2.36397C0.316955 1.97345 0.316955 1.34028 0.707479 0.94976C1.098 0.559236 1.73117 0.559235 2.12169 0.949759L6.36433 5.1924C6.75486 5.58292 6.75486 6.21609 6.36433 6.60661Z"
                                                fill="#78889B"
                                            />
                                            <path
                                                d="M4.95012 6.60661C4.5596 6.21609 4.5596 5.58292 4.95012 5.1924L9.19276 0.94976C9.58328 0.559236 10.2164 0.559236 10.607 0.94976C10.9975 1.34028 10.9975 1.97345 10.607 2.36397L6.36433 6.60661C5.97381 6.99714 5.34064 6.99714 4.95012 6.60661Z"
                                                fill="#78889B"
                                            />
                                        </svg>