<svg width="14" height="14" viewBox="0 0 14 14" fill="none" xmlns="http://www.w3.org/2000/svg">
                                                        <path
                                                            d="M10.4997 4.66671H9.91634V3.50004C9.91634 1.89004 8.60967 0.583374 6.99967 0.583374C5.38967 0.583374 4.08301 1.89004 4.08301 3.50004V4.66671H3.49967C2.85509 4.66671 2.33301 5.18879 2.33301 5.83337V11.6667C2.33301 12.3113 2.85509 12.8334 3.49967 12.8334H10.4997C11.1443 12.8334 11.6663 12.3113 11.6663 11.6667V5.83337C11.6663 5.18879 11.1443 4.66671 10.4997 4.66671ZM6.99967 9.91671C6.35509 9.91671 5.83301 9.39462 5.83301 8.75004C5.83301 8.10546 6.35509 7.58337 6.99967 7.58337C7.64426 7.58337 8.16634 8.10546 8.16634 8.75004C8.16634 9.39462 7.64426 9.91671 6.99967 9.91671ZM8.80801 4.66671H5.19134V3.50004C5.19134 2.50254 6.00217 1.69171 6.99967 1.69171C7.99717 1.69171 8.80801 2.50254 8.80801 3.50004V4.66671Z"
                                                            fill="#78889B"
                                                        />
                                                    </svg>