<svg width="29" height="29" viewBox="0 0 29 29" fill="none" xmlns="http://www.w3.org/2000/svg">
                        <rect width="29" height="29" rx="4" fill="#1B9B48" />
                        <path
                            d="M23.2502 16.2559C23.1415 16.0707 22.9489 15.9602 22.7352 15.9602H21.2676V11.3909C21.2676 9.72253 19.9103 8.36572 18.2419 8.36572H12.6115C12.6083 8.36572 12.6057 8.36737 12.6025 8.36754C12.5888 8.36817 12.5757 8.37191 12.5622 8.37564C12.5506 8.37882 12.5393 8.38136 12.5287 8.38658C12.5253 8.38827 12.5215 8.38814 12.5181 8.39005C12.5105 8.39435 12.5059 8.40136 12.4991 8.40652C12.4889 8.41426 12.4791 8.42156 12.4706 8.43118C12.4624 8.44051 12.4565 8.45062 12.4503 8.46124C12.4442 8.47165 12.4384 8.48163 12.4344 8.49317C12.4301 8.50554 12.4285 8.518 12.4267 8.53103C12.4256 8.53926 12.4219 8.54657 12.4219 8.55509C12.4219 8.55883 12.4238 8.56197 12.424 8.56564C12.4247 8.57794 12.4282 8.58958 12.4313 8.60171C12.4346 8.61454 12.4375 8.62697 12.4433 8.63854C12.4449 8.64168 12.4447 8.64512 12.4465 8.64819L13.4909 10.4948C13.4935 10.4994 13.4985 10.5011 13.5014 10.5054C13.5149 10.5253 13.5312 10.5418 13.5511 10.5554C13.5578 10.5599 13.5634 10.5649 13.5706 10.5685C13.5966 10.5818 13.6248 10.5911 13.656 10.5911H18.2419C18.6791 10.5911 19.0346 10.9497 19.0346 11.3909L19.0376 15.9602H17.5936C17.3757 15.9602 17.1813 16.0734 17.0734 16.2627C16.9663 16.4511 16.9684 16.6748 17.0779 16.8594L19.6489 21.3128C19.7529 21.5017 19.9433 21.6165 20.1581 21.6191C20.1607 21.6191 20.1634 21.6191 20.166 21.6191C20.3818 21.6191 20.5762 21.5064 20.6876 21.3155L23.257 16.8573C23.3628 16.6679 23.3602 16.4431 23.2502 16.2559Z"
                            fill="white"
                        />
                        <path
                            d="M17.5533 21.3365L16.5088 19.4893C16.4613 19.4056 16.3615 19.3748 16.2746 19.4095H11.7576C11.3207 19.4095 10.9652 19.0503 10.9652 18.6097V14.0245H12.4059C12.6238 14.0245 12.8182 13.9119 12.9261 13.722C13.0335 13.5337 13.0314 13.3099 12.9219 13.1248L10.3508 8.67136C10.2466 8.48252 10.0562 8.36826 9.84141 8.36562C9.61872 8.35133 9.42485 8.47564 9.31218 8.66872L6.7427 13.1269C6.63691 13.3163 6.63929 13.5416 6.74931 13.7289C6.85802 13.914 7.05056 14.0246 7.26453 14.0246H8.73216V18.6097C8.73216 20.2781 10.0895 21.6354 11.7576 21.6354H17.3882C17.493 21.6354 17.5779 21.5508 17.5779 21.446C17.5779 21.4406 17.5752 21.4361 17.5748 21.4309C17.5751 21.3988 17.5702 21.3664 17.5533 21.3365Z"
                            fill="white"
                        />
                    </svg>