<svg  width="9" height="12" viewBox="0 0 9 12" fill="none" xmlns="http://www.w3.org/2000/svg">
                                <path
                                    d="M9 6.87204V2.02743C6.62502 1.98466 4.56815 0 4.56815 0C4.56815 0 2.51128 1.98466 0.1363 2.02743H0L0 6.75325C0 6.95407 0.0434107 7.29368 0.0436441 7.29468C0.184612 8.05293 0.897386 10.1274 4.4993 11.9947C4.49953 11.9965 4.5 11.9982 4.50023 12C4.50163 11.999 4.50303 11.9985 4.50467 11.9977C4.50607 11.9985 4.50747 11.999 4.50887 12C4.50934 11.9982 4.50957 11.9965 4.5098 11.9947C8.06761 10.1504 8.80605 8.10445 8.95939 7.32369C8.98646 7.18589 9 6.87204 9 6.87204Z"
                                    fill="#1B9B48"
                                />
                            </svg>