<svg width="15" height="17" viewBox="0 0 15 17" fill="none" xmlns="http://www.w3.org/2000/svg">
                        <path
                            d="M13.1667 7.08251H4.66675V5.09917C4.66675 3.61168 5.72925 2.26584 7.21675 2.12418C8.91675 1.98251 10.3334 3.32834 10.3334 4.95751C10.3334 5.38251 10.6167 5.66584 11.0417 5.66584H11.7501C12.1751 5.66584 12.4584 5.38251 12.4584 4.95751C12.4584 2.26584 10.3334 0.0700082 7.64175 -0.000825094C4.87925 -0.0716584 2.54175 2.19501 2.54175 4.95751V7.08251H1.83341C1.05425 7.08251 0.416748 7.72001 0.416748 8.49918V13.4575C0.416748 15.4408 1.97508 16.9992 3.95841 16.9992H11.0417C13.0251 16.9992 14.5834 15.4408 14.5834 13.4575V8.49918C14.5834 7.72001 13.9459 7.08251 13.1667 7.08251ZM8.20841 12.5367V13.4575C8.20841 13.8117 7.85425 14.1658 7.50008 14.1658C7.14591 14.1658 6.79175 13.8117 6.79175 13.4575V12.5367C6.36675 12.3242 6.08341 11.8283 6.08341 11.3325C6.08341 10.5533 6.72091 9.91584 7.50008 9.91584C8.27925 9.91584 8.91675 10.5533 8.91675 11.3325C8.91675 11.8283 8.63341 12.3242 8.20841 12.5367Z"
                            fill="currentColor"
                        />
                    </svg>