<svg width="15" height="18" viewBox="0 0 15 18" fill="none" xmlns="http://www.w3.org/2000/svg">
                                <path
                                    d="M13.5 7.501H4.5V5.4012C4.5 3.82635 5.625 2.40148 7.2 2.2515C9 2.10151 10.5 3.52638 10.5 5.25121C10.5 5.70117 10.8 6.00114 11.25 6.00114H12C12.45 6.00114 12.75 5.70117 12.75 5.25121C12.75 2.40148 10.5 0.0767041 7.65 0.00171123C4.725 -0.0732816 2.25 2.32649 2.25 5.25121V7.501H1.5C0.675 7.501 0 8.17593 0 9.00086V14.2504C0 16.3502 1.65 18 3.75 18H11.25C13.35 18 15 16.3502 15 14.2504V9.00086C15 8.17593 14.325 7.501 13.5 7.501ZM8.25 13.2754V14.2504C8.25 14.6253 7.875 15.0003 7.5 15.0003C7.125 15.0003 6.75 14.6253 6.75 14.2504V13.2754C6.3 13.0505 6 12.5255 6 12.0006C6 11.1756 6.675 10.5007 7.5 10.5007C8.325 10.5007 9 11.1756 9 12.0006C9 12.5255 8.7 13.0505 8.25 13.2754Z"
                                    fill="#4A5162"
                                />
                            </svg>