<svg width="14" height="14" viewBox="0 0 14 14" fill="none" xmlns="http://www.w3.org/2000/svg">
                        <path
                            d="M7 14C5.61553 14 4.26216 13.5895 3.11101 12.8203C1.95987 12.0511 1.06266 10.9579 0.532846 9.67879C0.00303298 8.3997 -0.13559 6.99224 0.134506 5.63437C0.404603 4.2765 1.07129 3.02922 2.05026 2.05026C3.02922 1.07129 4.2765 0.404603 5.63437 0.134506C6.99224 -0.13559 8.3997 0.00303298 9.67879 0.532846C10.9579 1.06266 12.0511 1.95987 12.8203 3.11101C13.5895 4.26216 14 5.61553 14 7C14 8.85652 13.2625 10.637 11.9497 11.9497C10.637 13.2625 8.85652 14 7 14ZM7 1C5.81332 1 4.65328 1.3519 3.66658 2.01119C2.67989 2.67047 1.91085 3.60755 1.45673 4.7039C1.0026 5.80026 0.88378 7.00666 1.11529 8.17054C1.3468 9.33443 1.91825 10.4035 2.75736 11.2426C3.59648 12.0818 4.66558 12.6532 5.82946 12.8847C6.99335 13.1162 8.19975 12.9974 9.2961 12.5433C10.3925 12.0892 11.3295 11.3201 11.9888 10.3334C12.6481 9.34673 13 8.18669 13 7C13 5.4087 12.3679 3.88258 11.2426 2.75736C10.1174 1.63214 8.5913 1 7 1Z"
                            fill="#1877F2"
                        />
                        <path
                            d="M7 14C6.8674 14 6.74022 13.9473 6.64645 13.8536C6.55268 13.7598 6.5 13.6326 6.5 13.5V0.500003C6.5 0.367395 6.55268 0.240218 6.64645 0.14645C6.74022 0.0526816 6.8674 3.16352e-06 7 3.16352e-06C7.13261 3.16352e-06 7.25979 0.0526816 7.35356 0.14645C7.44733 0.240218 7.5 0.367395 7.5 0.500003V13.5C7.5 13.6326 7.44733 13.7598 7.35356 13.8536C7.25979 13.9473 7.13261 14 7 14Z"
                            fill="#1877F2"
                        />
                        <path
                            d="M10.5 7.5C10.3674 7.5 10.2402 7.44733 10.1464 7.35356C10.0527 7.25979 10 7.13261 10 7C10 3.75 8.625 1 7 1C6.8674 1 6.74022 0.947325 6.64645 0.853557C6.55268 0.759788 6.5 0.632611 6.5 0.500003C6.5 0.367395 6.55268 0.240218 6.64645 0.14645C6.74022 0.0526816 6.8674 3.16352e-06 7 3.16352e-06C9.245 3.16352e-06 11 3.075 11 7C11 7.13261 10.9473 7.25979 10.8536 7.35356C10.7598 7.44733 10.6326 7.5 10.5 7.5Z"
                            fill="#1877F2"
                        />
                        <path
                            d="M7 14C6.8674 14 6.74022 13.9473 6.64645 13.8536C6.55268 13.7598 6.5 13.6326 6.5 13.5C6.5 13.3674 6.55268 13.2402 6.64645 13.1464C6.74022 13.0527 6.8674 13 7 13C8.625 13 10 10.25 10 7C10 6.8674 10.0527 6.74022 10.1464 6.64645C10.2402 6.55268 10.3674 6.5 10.5 6.5C10.6326 6.5 10.7598 6.55268 10.8536 6.64645C10.9473 6.74022 11 6.8674 11 7C11 10.925 9.245 14 7 14Z"
                            fill="#1877F2"
                        />
                        <path
                            d="M3.5 7.5C3.36739 7.5 3.24022 7.44733 3.14645 7.35356C3.05268 7.25979 3 7.13261 3 7C3 3.075 4.755 3.16352e-06 7 3.16352e-06C7.13261 3.16352e-06 7.25979 0.0526816 7.35356 0.14645C7.44733 0.240218 7.5 0.367395 7.5 0.500003C7.5 0.632611 7.44733 0.759788 7.35356 0.853557C7.25979 0.947325 7.13261 1 7 1C5.375 1 4 3.75 4 7C4 7.13261 3.94732 7.25979 3.85356 7.35356C3.75979 7.44733 3.63261 7.5 3.5 7.5Z"
                            fill="#1877F2"
                        />
                        <path
                            d="M7 14C4.755 14 3 10.925 3 7C3 6.8674 3.05268 6.74022 3.14645 6.64645C3.24022 6.55268 3.36739 6.5 3.5 6.5C3.63261 6.5 3.75979 6.55268 3.85356 6.64645C3.94732 6.74022 4 6.8674 4 7C4 10.25 5.375 13 7 13C7.13261 13 7.25979 13.0527 7.35356 13.1464C7.44733 13.2402 7.5 13.3674 7.5 13.5C7.5 13.6326 7.44733 13.7598 7.35356 13.8536C7.25979 13.9473 7.13261 14 7 14Z"
                            fill="#1877F2"
                        />
                        <path
                            d="M13.5 7.5H0.500003C0.367395 7.5 0.240218 7.44733 0.14645 7.35356C0.0526816 7.25979 3.16352e-06 7.13261 3.16352e-06 7C3.16352e-06 6.8674 0.0526816 6.74022 0.14645 6.64645C0.240218 6.55268 0.367395 6.5 0.500003 6.5H13.5C13.6326 6.5 13.7598 6.55268 13.8536 6.64645C13.9473 6.74022 14 6.8674 14 7C14 7.13261 13.9473 7.25979 13.8536 7.35356C13.7598 7.44733 13.6326 7.5 13.5 7.5Z"
                            fill="#1877F2"
                        />
                        <path
                            d="M12.5 4.5H1.5C1.36739 4.5 1.24022 4.44732 1.14645 4.35356C1.05268 4.25979 1 4.13261 1 4C1 3.8674 1.05268 3.74022 1.14645 3.64645C1.24022 3.55268 1.36739 3.5 1.5 3.5H12.5C12.6326 3.5 12.7598 3.55268 12.8536 3.64645C12.9473 3.74022 13 3.8674 13 4C13 4.13261 12.9473 4.25979 12.8536 4.35356C12.7598 4.44732 12.6326 4.5 12.5 4.5Z"
                            fill="#1877F2"
                        />
                        <path
                            d="M12.5 10.5H1.5C1.36739 10.5 1.24022 10.4473 1.14645 10.3536C1.05268 10.2598 1 10.1326 1 10C1 9.86739 1.05268 9.74022 1.14645 9.64645C1.24022 9.55268 1.36739 9.5 1.5 9.5H12.5C12.6326 9.5 12.7598 9.55268 12.8536 9.64645C12.9473 9.74022 13 9.86739 13 10C13 10.1326 12.9473 10.2598 12.8536 10.3536C12.7598 10.4473 12.6326 10.5 12.5 10.5Z"
                            fill="#1877F2"
                        />
                    </svg>