<svg width="13" height="11" viewBox="0 0 13 11" fill="none" xmlns="http://www.w3.org/2000/svg">
                            <path
                                fill-rule="evenodd"
                                clip-rule="evenodd"
                                d="M0.0721715 10.2139L6.02992 0.260482C6.07784 0.181221 6.14646 0.11546 6.22894 0.0697556C6.31142 0.0240511 6.40488 0 6.5 0C6.59512 0 6.68858 0.0240511 6.77106 0.0697556C6.85354 0.11546 6.92216 0.181221 6.97008 0.260482L12.9278 10.2139C12.9752 10.2936 13.0001 10.3838 13 10.4757C12.9999 10.5676 12.9748 10.6578 12.9272 10.7374C12.8796 10.8169 12.8112 10.8831 12.7288 10.9292C12.6465 10.9752 12.553 10.9997 12.4577 11H0.542251C0.447017 10.9997 0.353539 10.9752 0.271158 10.9292C0.188776 10.8831 0.120376 10.8169 0.0727929 10.7374C0.0252096 10.6578 0.000109387 10.5676 3.56725e-07 10.4757C-0.000108673 10.3838 0.0247773 10.2936 0.0721715 10.2139ZM5.86262 8.34925C5.77841 8.47082 5.73346 8.61376 5.73346 8.75998C5.72912 8.85818 5.74597 8.95618 5.78296 9.04777C5.81994 9.13936 5.87624 9.22254 5.94829 9.29205C6.02035 9.36155 6.10658 9.41586 6.20153 9.45153C6.29648 9.4872 6.39808 9.50346 6.49989 9.49928C6.65148 9.49928 6.79966 9.45592 6.9257 9.37468C7.05174 9.29345 7.14997 9.17798 7.20798 9.04289C7.26599 8.90781 7.28117 8.75916 7.2516 8.61575C7.22202 8.47234 7.14903 8.34061 7.04184 8.23722C6.93465 8.13383 6.79809 8.06341 6.64941 8.03489C6.50074 8.00636 6.34664 8.021 6.20659 8.07696C6.06654 8.13291 5.94684 8.22767 5.86262 8.34925ZM5.81776 3.91512L6.01193 7.6116H6.97508L7.16158 3.91512H5.81776Z"
                                fill="#E8AA0A"
                            />
                        </svg>