<svg  width="31" height="30" viewBox="0 0 31 30" fill="none" xmlns="http://www.w3.org/2000/svg">
                                    <g clip-path="url(#clip0_6889_853)">
                                        <path
                                            d="M17.4376 8.74999C17.4381 8.84458 17.4208 8.93835 17.3865 9.02592C17.3523 9.11349 17.3019 9.19314 17.2382 9.2603L12.2195 14.5L17.2382 19.7397C17.3677 19.875 17.4404 20.0586 17.4404 20.25C17.4404 20.4414 17.3677 20.625 17.2382 20.7603C17.1087 20.8956 16.9332 20.9717 16.7501 20.9717C16.567 20.9717 16.3914 20.8956 16.262 20.7603L10.762 15.0103C10.6975 14.9435 10.6464 14.864 10.6115 14.7764C10.5766 14.6888 10.5586 14.5949 10.5586 14.5C10.5586 14.4051 10.5766 14.3112 10.6115 14.2236C10.6464 14.136 10.6975 14.0565 10.762 13.9897L16.262 8.23968C16.3259 8.17231 16.4019 8.11884 16.4857 8.08235C16.5695 8.04586 16.6593 8.02707 16.7501 8.02707C16.8408 8.02707 16.9307 8.04586 17.0145 8.08235C17.0983 8.11884 17.1743 8.17231 17.2382 8.23968C17.3019 8.30684 17.3523 8.38649 17.3865 8.47406C17.4208 8.56163 17.4381 8.6554 17.4376 8.74999Z"
                                            fill="white"
                                        />
                                    </g>
                                    <path
                                        d="M12 0.5H18.7305C21.573 0.5 23.6547 0.501062 25.2475 0.715211C26.8259 0.927427 27.8493 1.34062 28.6196 2.11091C29.3899 2.88121 29.803 3.90455 30.0153 5.48299C30.2294 7.07582 30.2305 9.15744 30.2305 12V17.3652C30.2305 20.2078 30.2294 22.2894 30.0153 23.8822C29.803 25.4607 29.3899 26.484 28.6196 27.2543C27.8493 28.0246 26.8259 28.4378 25.2475 28.65C23.6547 28.8642 21.573 28.8652 18.7305 28.8652H12C9.15744 28.8652 7.07582 28.8642 5.48299 28.65C3.90455 28.4378 2.88121 28.0246 2.11091 27.2543C1.34062 26.484 0.927427 25.4607 0.715211 23.8822C0.501062 22.2894 0.5 20.2078 0.5 17.3652V12C0.5 9.15744 0.501062 7.07582 0.715211 5.48299C0.927427 3.90455 1.34062 2.88121 2.11091 2.11091C2.88121 1.34062 3.90455 0.927427 5.48299 0.715211C7.07582 0.501062 9.15744 0.5 12 0.5Z"
                                        fill="white"
                                        fill-opacity="0.65"
                                        stroke="url(#paint0_linear_6889_853)"
                                    />
                                    <defs>
                                        <linearGradient id="paint0_linear_6889_853" x1="-10.7298" y1="23.3135" x2="-10.7298" y2="52.6787" gradientUnits="userSpaceOnUse">
                                            <stop stop-color="#FCFCFC" stop-opacity="0.08" />
                                            <stop offset="1" stop-color="#BCBCBC" stop-opacity="0" />
                                        </linearGradient>
                                        <clipPath id="clip0_6889_853">
                                            <rect width="23" height="22" fill="white" transform="translate(3 26) rotate(-90)" />
                                        </clipPath>
                                    </defs>
                                </svg>