<svg width="29" height="29" viewBox="0 0 29 29" fill="none" xmlns="http://www.w3.org/2000/svg">
                        <rect width="29" height="29" rx="4" fill="#EFCC00" />
                        <path
                            fill-rule="evenodd"
                            clip-rule="evenodd"
                            d="M6.09993 20.928L14.3491 7.3552C14.4155 7.24712 14.5105 7.15745 14.6247 7.09512C14.7389 7.0328 14.8683 7 15 7C15.1317 7 15.2611 7.0328 15.3753 7.09512C15.4895 7.15745 15.5845 7.24712 15.6509 7.3552L23.9001 20.928C23.9657 21.0367 24.0002 21.1598 24 21.285C23.9998 21.4103 23.9651 21.5334 23.8992 21.6419C23.8333 21.7504 23.7386 21.8406 23.6246 21.9034C23.5105 21.9662 23.3811 21.9996 23.2492 22H6.75081C6.61895 21.9996 6.48952 21.9662 6.37545 21.9034C6.26138 21.8406 6.16667 21.7504 6.10079 21.6419C6.03491 21.5334 6.00015 21.4103 6 21.285C5.99985 21.1598 6.03431 21.0367 6.09993 20.928ZM14.1175 18.3853C14.0009 18.5511 13.9386 18.746 13.9386 18.9454C13.9326 19.0793 13.956 19.213 14.0072 19.3379C14.0584 19.4628 14.1363 19.5762 14.2361 19.671C14.3359 19.7657 14.4553 19.8398 14.5867 19.8884C14.7182 19.9371 14.8589 19.9593 14.9998 19.9536C15.2097 19.9536 15.4149 19.8944 15.5894 19.7837C15.7639 19.6729 15.9 19.5154 15.9803 19.3312C16.0606 19.147 16.0816 18.9443 16.0407 18.7487C15.9997 18.5532 15.8987 18.3736 15.7502 18.2326C15.6018 18.0916 15.4127 17.9956 15.2069 17.9567C15.001 17.9178 14.7876 17.9377 14.5937 18.014C14.3998 18.0903 14.2341 18.2196 14.1175 18.3853ZM14.0554 12.3388L14.3242 17.3795H15.6578L15.916 12.3388H14.0554Z"
                            fill="white"
                        />
                    </svg>