<svg style="flex-shrink: 0" width="12" height="16" viewBox="0 0 12 16" fill="none" xmlns="http://www.w3.org/2000/svg">
                    <path
                        d="M11.3334 2.66667C11.3334 1.2 10.1334 0 8.66675 0H3.33341C1.86675 0 0.666748 1.2 0.666748 2.66667V13.3333C0.666748 14.8 1.86675 16 3.33341 16H8.66675C10.1334 16 11.3334 14.8 11.3334 13.3333V2.66667ZM6.66675 14.6667H5.33342C4.93341 14.6667 4.66675 14.4 4.66675 14C4.66675 13.6 4.93341 13.3333 5.33342 13.3333H6.66675C7.06675 13.3333 7.33342 13.6 7.33342 14C7.33342 14.4 7.06675 14.6667 6.66675 14.6667ZM10.0001 11.3333C10.0001 11.7333 9.73341 12 9.33342 12H2.66675C2.26675 12 2.00008 11.7333 2.00008 11.3333V3.33333C2.00008 2.93333 2.26675 2.66667 2.66675 2.66667H9.33342C9.73341 2.66667 10.0001 2.93333 10.0001 3.33333V11.3333Z"
                        fill="#434F64"
                    />
                </svg>