<svg width="17" height="15" viewBox="0 0 17 15" fill="none" xmlns="http://www.w3.org/2000/svg">
                                <path
                                    d="M14.9744 12.5163H1.9956C1.52585 12.5158 1.07546 12.3291 0.743257 11.9969C0.411054 11.6648 0.224177 11.2145 0.223633 10.7447V2.12573C0.224177 1.65594 0.411041 1.20555 0.743232 0.873359C1.07542 0.541168 1.52581 0.354304 1.9956 0.35376H14.9744C15.4442 0.354304 15.8945 0.541181 16.2267 0.873384C16.5588 1.20559 16.7456 1.65598 16.746 2.12573V10.7447C16.7456 11.2144 16.5588 11.6648 16.2266 11.9969C15.8945 12.3291 15.4441 12.5158 14.9744 12.5163ZM1.9956 1.58686C1.85272 1.58697 1.71572 1.64378 1.61469 1.74481C1.51365 1.84585 1.45685 1.98285 1.45674 2.12573V10.7447C1.45695 10.8875 1.51381 11.0244 1.61483 11.1254C1.71585 11.2263 1.85279 11.2831 1.9956 11.2832H14.9744C15.1172 11.283 15.254 11.2262 15.3549 11.1252C15.4559 11.0243 15.5127 10.8875 15.5129 10.7447V2.12573C15.5128 1.98292 15.456 1.84598 15.3551 1.74496C15.2541 1.64394 15.1172 1.58708 14.9744 1.58686H1.9956Z"
                                    fill="white"
                                />
                                <path
                                    d="M11.3233 14.674H5.651C5.55116 14.6739 5.45285 14.6495 5.36451 14.603C5.27616 14.5565 5.20044 14.4892 5.14383 14.407C5.08723 14.3248 5.05144 14.23 5.03955 14.1309C5.02765 14.0318 5.04001 13.9312 5.07555 13.8379L5.89762 11.68C5.94206 11.5634 6.02087 11.4629 6.12362 11.392C6.22637 11.3211 6.34823 11.2831 6.47307 11.283H10.5012C10.626 11.2831 10.7479 11.3211 10.8507 11.392C10.9534 11.4629 11.0322 11.5634 11.0767 11.68L11.8987 13.8379C11.9343 13.9312 11.9466 14.0318 11.9347 14.1309C11.9228 14.23 11.887 14.3248 11.8304 14.407C11.7738 14.4892 11.6981 14.5565 11.6098 14.603C11.5214 14.6495 11.4231 14.6739 11.3233 14.674ZM6.54582 13.4409H10.4285L10.0762 12.5161H6.89849L6.54582 13.4409Z"
                                    fill="white"
                                />
                                <path
                                    d="M12.5764 14.674H4.39683C4.23331 14.674 4.07648 14.6091 3.96086 14.4934C3.84523 14.3778 3.78027 14.221 3.78027 14.0575C3.78027 13.8939 3.84523 13.7371 3.96086 13.6215C4.07648 13.5059 4.23331 13.4409 4.39683 13.4409H12.5764C12.7399 13.4409 12.8968 13.5059 13.0124 13.6215C13.128 13.7371 13.193 13.8939 13.193 14.0575C13.193 14.221 13.128 14.3778 13.0124 14.4934C12.8968 14.6091 12.7399 14.674 12.5764 14.674Z"
                                    fill="white"
                                />
                                <path
                                    d="M16.1307 10.4825H0.840185C0.676665 10.4825 0.519843 10.4175 0.404217 10.3019C0.288591 10.1863 0.223633 10.0295 0.223633 9.86594C0.223633 9.70242 0.288591 9.5456 0.404217 9.42997C0.519843 9.31435 0.676665 9.24939 0.840185 9.24939H16.1307C16.2942 9.24939 16.451 9.31435 16.5667 9.42997C16.6823 9.5456 16.7472 9.70242 16.7472 9.86594C16.7472 10.0295 16.6823 10.1863 16.5667 10.3019C16.451 10.4175 16.2942 10.4825 16.1307 10.4825Z"
                                    fill="white"
                                />
                            </svg>