<svg width="16" height="18" viewBox="0 0 16 18" fill="none" xmlns="http://www.w3.org/2000/svg">
                                <path
                                    d="M0.499895 12.8332L1.4999 14.3332C1.9999 15.1665 2.9999 15.4998 3.91656 15.1665L4.83323 14.8332L5.08323 15.7498C5.33323 16.6665 6.16656 17.3332 7.08323 17.3332H8.91656C9.83323 17.3332 10.6666 16.6665 10.9166 15.7498L11.1666 14.8332L11.9999 15.1665C12.9166 15.4998 13.9166 15.1665 14.4166 14.3332L15.4166 12.8332C15.9166 11.9998 15.8332 10.9998 15.2499 10.2498L14.0832 8.99984L15.2499 7.74984C15.9166 7.08317 15.9999 5.99984 15.4999 5.1665L14.4999 3.6665C13.9999 2.83317 12.9999 2.49984 12.0832 2.83317L11.1666 3.1665L10.9166 2.24984C10.6666 1.33317 9.83323 0.666504 8.91656 0.666504H7.08323C6.16656 0.666504 5.33323 1.33317 5.08323 2.24984L4.83323 3.08317L3.9999 2.74984C3.08323 2.4165 2.08323 2.74984 1.58323 3.58317L0.583229 5.08317C0.0832286 5.9165 0.166562 6.9165 0.749895 7.6665L1.91656 8.99984L0.749895 10.2498C0.0832287 10.9165 -0.000104617 11.9998 0.499895 12.8332ZM1.9999 11.4165L3.7499 9.58317C4.08323 9.24984 4.08323 8.74984 3.7499 8.4165L2.08323 6.58317C1.91656 6.4165 1.91656 6.24984 2.08323 6.08317L3.08323 4.58317C3.16656 4.4165 3.41656 4.33317 3.58323 4.4165L5.33323 4.99984C5.58323 5.08317 5.83323 5.08317 5.9999 4.9165C5.9999 4.83317 6.16656 4.6665 6.2499 4.4165L6.66656 2.6665C6.7499 2.49984 6.91656 2.33317 7.08323 2.33317H8.91656C9.08323 2.33317 9.2499 2.49984 9.33323 2.6665L9.7499 4.49984C9.83323 4.74984 9.91656 4.9165 10.1666 4.99984C10.3332 5.08317 10.5832 5.1665 10.8332 5.08317L12.5832 4.49984C12.7499 4.4165 12.9999 4.49984 13.0832 4.6665L14.0832 6.1665C14.1666 6.33317 14.1666 6.49984 13.9999 6.6665L12.2499 8.49984C11.9166 8.83317 11.9166 9.33317 12.2499 9.6665L13.9166 11.4998C14.0832 11.6665 14.0832 11.8332 13.9166 11.9998L12.9166 13.4998C12.8332 13.6665 12.5832 13.7498 12.4166 13.6665L10.6666 13.0832C10.4166 12.9998 10.1666 12.9998 9.9999 13.1665C9.7499 13.2498 9.66656 13.4998 9.58323 13.6665L9.16656 15.4165C9.08323 15.5832 8.91656 15.7498 8.7499 15.7498H6.91656C6.7499 15.7498 6.58323 15.5832 6.4999 15.4165L6.08323 13.5832C5.9999 13.3332 5.91656 13.1665 5.66656 13.0832C5.58323 12.9998 5.41656 12.9998 5.2499 12.9998C5.16656 12.9998 5.08323 12.9998 4.9999 13.0832L3.2499 13.6665C3.08323 13.7498 2.83323 13.6665 2.7499 13.4998L1.7499 11.9998C1.83323 11.7498 1.83323 11.4998 1.9999 11.4165Z"
                                    fill="#4A5162"
                                />
                                <path
                                    d="M7.99984 12.3332C9.83317 12.3332 11.3332 10.8332 11.3332 8.99984C11.3332 7.1665 9.83317 5.6665 7.99984 5.6665C6.1665 5.6665 4.6665 7.1665 4.6665 8.99984C4.6665 10.8332 6.1665 12.3332 7.99984 12.3332ZM7.99984 7.33317C8.9165 7.33317 9.6665 8.08317 9.6665 8.99984C9.6665 9.9165 8.9165 10.6665 7.99984 10.6665C7.08317 10.6665 6.33317 9.9165 6.33317 8.99984C6.33317 8.08317 7.08317 7.33317 7.99984 7.33317Z"
                                    fill="#4A5162"
                                />
                            </svg>