<svg width="12" height="12" viewBox="0 0 12 12" fill="none" xmlns="http://www.w3.org/2000/svg">
<path d="M2.49972 5.99967C2.77622 5.99967 2.99971 6.22371 2.99971 6.49966V10.4998C2.99971 10.7753 3.22374 10.9998 3.49969 10.9998H10.5C10.776 10.9998 10.9999 10.7753 10.9999 10.4998V3.49956C10.9999 3.22407 10.776 2.99957 10.5 2.99957H6.49979C6.22329 2.99957 5.9998 2.77554 5.9998 2.49959C5.9998 2.22355 6.22329 1.99951 6.49979 1.99951H10.5C11.327 1.99951 12 2.67254 12 3.49956V10.4998C12 11.3268 11.327 11.9999 10.5 11.9999H3.49969C2.67267 11.9999 1.99964 11.3268 1.99964 10.4998V6.49966C1.99964 6.22316 2.22322 5.99967 2.49972 5.99967Z" fill="white"/>
<path d="M7.31241 5.5445C7.34739 5.57948 7.37091 5.62397 7.38089 5.67195L7.73439 7.44007C7.75087 7.52201 7.72487 7.60652 7.66591 7.66603C7.61839 7.71355 7.55439 7.739 7.48884 7.739C7.47291 7.739 7.45634 7.73754 7.43986 7.73406L5.67228 7.38056C5.6233 7.37049 5.5788 7.34705 5.54429 7.31199L1.58816 3.35586L3.35574 1.58838L7.31241 5.5445Z" fill="white"/>
<path d="M0.366619 0.365651C0.854061 -0.121884 1.64712 -0.121884 2.13419 0.365651L2.82617 1.05763L1.0586 2.8252L0.366619 2.13313C0.130588 1.89765 0.000579119 1.58362 0.000579119 1.24962C0.000579119 0.915626 0.130588 0.60159 0.366619 0.365651Z" fill="white"/>
</svg>
