<svg width="15" height="15" viewBox="0 0 15 15" fill="none" xmlns="http://www.w3.org/2000/svg">
<path d="M7.5 0C3.35786 0 0 3.35786 0 7.5C0 11.6421 3.35786 15 7.5 15C11.6421 15 15 11.6421 15 7.5C15 3.35786 11.6421 0 7.5 0ZM11.3982 4.74422L10.0661 11.1035C10.05 11.1804 10.0148 11.2521 9.96381 11.3118C9.91279 11.3716 9.84756 11.4176 9.77413 11.4456C9.70069 11.4735 9.6214 11.4826 9.54354 11.472C9.46568 11.4613 9.39175 11.4313 9.32854 11.3846L7.39096 9.95309L6.21709 11.0605C6.20172 11.075 6.18363 11.0863 6.16385 11.0937C6.14407 11.1011 6.12301 11.1046 6.1019 11.1038C6.0808 11.103 6.06006 11.098 6.0409 11.089C6.02174 11.0801 6.00455 11.0675 5.99033 11.0519L5.96511 11.0242L6.16907 9.0503L9.84536 5.69139C9.86354 5.6748 9.87485 5.65201 9.87705 5.6275C9.87925 5.60299 9.87218 5.57855 9.85725 5.55899C9.84231 5.53943 9.82059 5.52618 9.79636 5.52186C9.77214 5.51753 9.74717 5.52244 9.72639 5.53562L5.02485 8.5113L3 7.83126C2.94616 7.81317 2.89924 7.77887 2.86566 7.73306C2.83209 7.68724 2.81352 7.63216 2.81249 7.57538C2.81147 7.51859 2.82804 7.46288 2.85993 7.41588C2.89182 7.36888 2.93747 7.3329 2.99063 7.31288L10.9131 4.32844C10.9742 4.30544 11.0404 4.29928 11.1047 4.31061C11.169 4.32193 11.2291 4.35033 11.2786 4.39282C11.3282 4.43531 11.3655 4.49034 11.3865 4.55216C11.4075 4.61397 11.4116 4.68031 11.3982 4.74422Z" fill="url(#paint0_linear_8527_965)"/>
<defs>
<linearGradient id="paint0_linear_8527_965" x1="5.4864e-08" y1="15" x2="14.7275" y2="0.272549" gradientUnits="userSpaceOnUse">
<stop stop-color="#2081C7"/>
<stop offset="1" stop-color="#38AFE2"/>
</linearGradient>
</defs>
</svg>
