<svg width="8" height="11" viewBox="0 0 8 11" fill="none" xmlns="http://www.w3.org/2000/svg">
<path d="M4.00001 4.97367C5.23538 4.97367 6.23684 3.97221 6.23684 2.73684C6.23684 1.50147 5.23538 0.5 4.00001 0.5C2.76464 0.5 1.76317 1.50147 1.76317 2.73684C1.76317 3.97221 2.76464 4.97367 4.00001 4.97367Z" fill="#1B9B48"/>
<path d="M4.00001 4.97367C5.23538 4.97367 6.23684 3.97221 6.23684 2.73684C6.23684 1.50147 5.23538 0.5 4.00001 0.5C2.76464 0.5 1.76317 1.50147 1.76317 2.73684C1.76317 3.97221 2.76464 4.97367 4.00001 4.97367Z" fill="white"/>
<path d="M4.00001 4.97367C5.23538 4.97367 6.23684 3.97221 6.23684 2.73684C6.23684 1.50147 5.23538 0.5 4.00001 0.5C2.76464 0.5 1.76317 1.50147 1.76317 2.73684C1.76317 3.97221 2.76464 4.97367 4.00001 4.97367Z" fill="url(#paint0_linear_1640_218)"/>
<path d="M4.0001 5.5C1.82004 5.5 0.0527344 7.26732 0.0527344 9.44736C0.0527344 10.0287 0.524023 10.5 1.10537 10.5H6.89484C7.47619 10.5 7.94748 10.0287 7.94748 9.44736C7.94746 7.26732 6.18016 5.5 4.0001 5.5Z" fill="#1B9B48"/>
<path d="M4.0001 5.5C1.82004 5.5 0.0527344 7.26732 0.0527344 9.44736C0.0527344 10.0287 0.524023 10.5 1.10537 10.5H6.89484C7.47619 10.5 7.94748 10.0287 7.94748 9.44736C7.94746 7.26732 6.18016 5.5 4.0001 5.5Z" fill="white"/>
<path d="M4.0001 5.5C1.82004 5.5 0.0527344 7.26732 0.0527344 9.44736C0.0527344 10.0287 0.524023 10.5 1.10537 10.5H6.89484C7.47619 10.5 7.94748 10.0287 7.94748 9.44736C7.94746 7.26732 6.18016 5.5 4.0001 5.5Z" fill="url(#paint1_linear_1640_218)"/>
<defs>
<linearGradient id="paint0_linear_1640_218" x1="4.22877" y1="-8.80682" x2="14.9132" y2="-3.79445" gradientUnits="userSpaceOnUse">
<stop stop-color="#7D4702"/>
<stop offset="0.572917" stop-color="#FDD265"/>
<stop offset="1" stop-color="#683E08"/>
</linearGradient>
<linearGradient id="paint1_linear_1640_218" x1="4.22877" y1="-8.80682" x2="14.9132" y2="-3.79445" gradientUnits="userSpaceOnUse">
<stop stop-color="#7D4702"/>
<stop offset="0.572917" stop-color="#FDD265"/>
<stop offset="1" stop-color="#683E08"/>
</linearGradient>
</defs>
</svg>
