<svg width="8" height="11" viewBox="0 0 8 11" fill="none" xmlns="http://www.w3.org/2000/svg">
<path d="M4.00001 4.97367C5.23538 4.97367 6.23684 3.97221 6.23684 2.73684C6.23684 1.50147 5.23538 0.5 4.00001 0.5C2.76464 0.5 1.76317 1.50147 1.76317 2.73684C1.76317 3.97221 2.76464 4.97367 4.00001 4.97367Z" fill="currentColor"/>
<path d="M4.00001 4.97367C5.23538 4.97367 6.23684 3.97221 6.23684 2.73684C6.23684 1.50147 5.23538 0.5 4.00001 0.5C2.76464 0.5 1.76317 1.50147 1.76317 2.73684C1.76317 3.97221 2.76464 4.97367 4.00001 4.97367Z" fill="currentColor"/>
<path d="M4.0001 5.5C1.82004 5.5 0.0527344 7.26732 0.0527344 9.44736C0.0527344 10.0287 0.524023 10.5 1.10537 10.5H6.89484C7.47619 10.5 7.94748 10.0287 7.94748 9.44736C7.94746 7.26732 6.18016 5.5 4.0001 5.5Z" fill="currentColor"/>
<path d="M4.0001 5.5C1.82004 5.5 0.0527344 7.26732 0.0527344 9.44736C0.0527344 10.0287 0.524023 10.5 1.10537 10.5H6.89484C7.47619 10.5 7.94748 10.0287 7.94748 9.44736C7.94746 7.26732 6.18016 5.5 4.0001 5.5Z" fill="currentColor"/>
</svg>
