<svg width="14" height="14" viewBox="0 0 14 14" fill="none" xmlns="http://www.w3.org/2000/svg">
<path d="M7.00016 0.333496C3.31683 0.333496 0.333496 3.31683 0.333496 7.00016C0.333496 10.6835 3.31683 13.6668 7.00016 13.6668C10.6835 13.6668 13.6668 10.6835 13.6668 7.00016C13.6668 3.31683 10.6835 0.333496 7.00016 0.333496ZM7.00016 2.3335C8.1035 2.3335 9.00016 3.23016 9.00016 4.3335C9.00016 5.44016 8.1035 6.3335 7.00016 6.3335C5.89683 6.3335 5.00016 5.44016 5.00016 4.3335C5.00016 3.23016 5.89683 2.3335 7.00016 2.3335ZM7.00016 11.8002C5.33016 11.8002 3.8635 10.9468 3.00016 9.6535C3.01683 8.33016 5.67016 7.60016 7.00016 7.60016C8.33016 7.60016 10.9802 8.33016 11.0002 9.6535C10.1368 10.9468 8.67016 11.8002 7.00016 11.8002Z" fill="#6C6C6C"/>
</svg>
