<svg width="14" height="14" viewBox="0 0 14 14" fill="none" xmlns="http://www.w3.org/2000/svg">
<path d="M2.75018 9.65035L2.74921 9.72784L2.79223 9.79229C3.69965 11.1517 5.24258 12.0502 7.00016 12.0502C8.75774 12.0502 10.3007 11.1517 11.2081 9.79229L11.2513 9.72755L11.2501 9.64972C11.2438 9.22881 11.0272 8.87498 10.7246 8.59183C10.4229 8.3096 10.0188 8.08031 9.58794 7.89996C8.72723 7.53972 7.69949 7.35016 7.00016 7.35016C6.30086 7.35016 5.2723 7.53971 4.41118 7.89995C3.9801 8.08028 3.57584 8.30958 3.2743 8.59188C2.97177 8.87511 2.75549 9.22917 2.75018 9.65035ZM0.583496 7.00016C0.583496 3.4549 3.4549 0.583496 7.00016 0.583496C10.5454 0.583496 13.4168 3.4549 13.4168 7.00016C13.4168 10.5454 10.5454 13.4168 7.00016 13.4168C3.4549 13.4168 0.583496 10.5454 0.583496 7.00016ZM9.25016 4.3335C9.25016 3.09209 8.24157 2.0835 7.00016 2.0835C5.75876 2.0835 4.75016 3.09209 4.75016 4.3335C4.75016 5.57851 5.75903 6.5835 7.00016 6.5835C8.2413 6.5835 9.25016 5.57851 9.25016 4.3335Z" fill="#6C6C6C"/>
<path d="M2.75018 9.65035L2.74921 9.72784L2.79223 9.79229C3.69965 11.1517 5.24258 12.0502 7.00016 12.0502C8.75774 12.0502 10.3007 11.1517 11.2081 9.79229L11.2513 9.72755L11.2501 9.64972C11.2438 9.22881 11.0272 8.87498 10.7246 8.59183C10.4229 8.3096 10.0188 8.08031 9.58794 7.89996C8.72723 7.53972 7.69949 7.35016 7.00016 7.35016C6.30086 7.35016 5.2723 7.53971 4.41118 7.89995C3.9801 8.08028 3.57584 8.30958 3.2743 8.59188C2.97177 8.87511 2.75549 9.22917 2.75018 9.65035ZM0.583496 7.00016C0.583496 3.4549 3.4549 0.583496 7.00016 0.583496C10.5454 0.583496 13.4168 3.4549 13.4168 7.00016C13.4168 10.5454 10.5454 13.4168 7.00016 13.4168C3.4549 13.4168 0.583496 10.5454 0.583496 7.00016ZM9.25016 4.3335C9.25016 3.09209 8.24157 2.0835 7.00016 2.0835C5.75876 2.0835 4.75016 3.09209 4.75016 4.3335C4.75016 5.57851 5.75903 6.5835 7.00016 6.5835C8.2413 6.5835 9.25016 5.57851 9.25016 4.3335Z" fill="url(#paint0_linear_2352_407)"/>
<path d="M2.75018 9.65035L2.74921 9.72784L2.79223 9.79229C3.69965 11.1517 5.24258 12.0502 7.00016 12.0502C8.75774 12.0502 10.3007 11.1517 11.2081 9.79229L11.2513 9.72755L11.2501 9.64972C11.2438 9.22881 11.0272 8.87498 10.7246 8.59183C10.4229 8.3096 10.0188 8.08031 9.58794 7.89996C8.72723 7.53972 7.69949 7.35016 7.00016 7.35016C6.30086 7.35016 5.2723 7.53971 4.41118 7.89995C3.9801 8.08028 3.57584 8.30958 3.2743 8.59188C2.97177 8.87511 2.75549 9.22917 2.75018 9.65035ZM0.583496 7.00016C0.583496 3.4549 3.4549 0.583496 7.00016 0.583496C10.5454 0.583496 13.4168 3.4549 13.4168 7.00016C13.4168 10.5454 10.5454 13.4168 7.00016 13.4168C3.4549 13.4168 0.583496 10.5454 0.583496 7.00016ZM9.25016 4.3335C9.25016 3.09209 8.24157 2.0835 7.00016 2.0835C5.75876 2.0835 4.75016 3.09209 4.75016 4.3335C4.75016 5.57851 5.75903 6.5835 7.00016 6.5835C8.2413 6.5835 9.25016 5.57851 9.25016 4.3335Z" stroke="url(#paint1_linear_2352_407)" stroke-width="0.5"/>
<defs>
<linearGradient id="paint0_linear_2352_407" x1="7.38635" y1="-12.0756" x2="23.6571" y2="-2.40704" gradientUnits="userSpaceOnUse">
<stop stop-color="#FFD59E"/>
<stop offset="0.572917" stop-color="#FFD056"/>
<stop offset="1" stop-color="#FFAB40"/>
</linearGradient>
<linearGradient id="paint1_linear_2352_407" x1="0.708676" y1="-0.866503" x2="15.146" y2="2.44855" gradientUnits="userSpaceOnUse">
<stop stop-color="#FFD08A"/>
<stop offset="0.463542" stop-color="#FFC06F"/>
<stop offset="1" stop-color="#683E08"/>
</linearGradient>
</defs>
</svg>
