<svg width="15" height="15" viewBox="0 0 15 15" fill="none" xmlns="http://www.w3.org/2000/svg">
<rect width="15" height="15" rx="2" fill="#6C6C6C"/>
<g opacity="0.8">
<path d="M2.98085 10.9034V6.83099H3.0163L5.84067 10.9034H6.71516V5.09658H5.73825V9.16499H5.7028L2.88237 5.09658H2V10.9034H2.98085Z" fill="white"/>
<path d="M2.98085 10.9034V6.83099H3.0163L5.84067 10.9034H6.71516V5.09658H5.73825V9.16499H5.7028L2.88237 5.09658H2V10.9034H2.98085Z" fill="white"/>
<path d="M10.3056 5C8.64724 5 7.6073 6.15493 7.6073 8.00201C7.6073 9.84909 8.64724 11 10.3056 11C11.9601 11 13 9.84909 13 8.00201C13 6.15493 11.9601 5 10.3056 5ZM10.3056 5.88531C11.318 5.88531 11.964 6.70624 11.964 8.00201C11.964 9.29376 11.318 10.1147 10.3056 10.1147C9.28932 10.1147 8.64724 9.29376 8.64724 8.00201C8.64724 6.70624 9.28932 5.88531 10.3056 5.88531Z" fill="white"/>
<path d="M10.3056 5C8.64724 5 7.6073 6.15493 7.6073 8.00201C7.6073 9.84909 8.64724 11 10.3056 11C11.9601 11 13 9.84909 13 8.00201C13 6.15493 11.9601 5 10.3056 5ZM10.3056 5.88531C11.318 5.88531 11.964 6.70624 11.964 8.00201C11.964 9.29376 11.318 10.1147 10.3056 10.1147C9.28932 10.1147 8.64724 9.29376 8.64724 8.00201C8.64724 6.70624 9.28932 5.88531 10.3056 5.88531Z" fill="white"/>
</g>
</svg>
