<svg width="16" height="12" viewBox="0 0 16 12" fill="none" xmlns="http://www.w3.org/2000/svg">
<path d="M13.8182 12H2.18182C0.978909 12 0 10.9905 0 9.75V2.25C0 1.0095 0.978909 0 2.18182 0H13.8182C15.0211 0 16 1.0095 16 2.25V9.75C16 10.9905 15.0211 12 13.8182 12ZM2.18182 1.5C1.78109 1.5 1.45455 1.83675 1.45455 2.25V9.75C1.45455 10.1632 1.78109 10.5 2.18182 10.5H13.8182C14.2189 10.5 14.5455 10.1632 14.5455 9.75V2.25C14.5455 1.83675 14.2189 1.5 13.8182 1.5H2.18182Z" fill="#6C6C6C"/>
<path d="M6.54545 8.25H3.63636C3.23418 8.25 2.90909 7.914 2.90909 7.5C2.90909 7.086 3.23418 6.75 3.63636 6.75H6.54545C6.94764 6.75 7.27273 7.086 7.27273 7.5C7.27273 7.914 6.94764 8.25 6.54545 8.25Z" fill="#6C6C6C"/>
<path d="M6.54545 5.25H3.63636C3.23418 5.25 2.90909 4.914 2.90909 4.5C2.90909 4.086 3.23418 3.75 3.63636 3.75H6.54545C6.94764 3.75 7.27273 4.086 7.27273 4.5C7.27273 4.914 6.94764 5.25 6.54545 5.25Z" fill="#6C6C6C"/>
<path d="M10.9091 6.375C11.7124 6.375 12.3636 5.70343 12.3636 4.875C12.3636 4.04657 11.7124 3.375 10.9091 3.375C10.1058 3.375 9.45455 4.04657 9.45455 4.875C9.45455 5.70343 10.1058 6.375 10.9091 6.375Z" fill="#6C6C6C"/>
<path d="M10.9091 7.017C9.77309 7.017 9.09091 7.55325 9.09091 8.08875C9.09091 8.3565 9.77309 8.625 10.9091 8.625C11.9753 8.625 12.7273 8.35725 12.7273 8.08875C12.7273 7.55325 12.0145 7.017 10.9091 7.017Z" fill="#6C6C6C"/>
</svg>
