<svg width="16" height="12" viewBox="0 0 16 12" fill="none" xmlns="http://www.w3.org/2000/svg">
<path d="M13.8182 11.75H2.18182C1.12418 11.75 0.25 10.8597 0.25 9.75V2.25C0.25 1.14026 1.12418 0.25 2.18182 0.25H13.8182C14.8758 0.25 15.75 1.14026 15.75 2.25V9.75C15.75 10.8597 14.8758 11.75 13.8182 11.75ZM2.18182 1.25C1.63582 1.25 1.20455 1.70599 1.20455 2.25V9.75C1.20455 10.294 1.63582 10.75 2.18182 10.75H13.8182C14.3642 10.75 14.7955 10.294 14.7955 9.75V2.25C14.7955 1.70599 14.3642 1.25 13.8182 1.25H2.18182ZM6.54545 8H3.63636C3.37961 8 3.15909 7.7834 3.15909 7.5C3.15909 7.2166 3.37961 7 3.63636 7H6.54545C6.80221 7 7.02273 7.2166 7.02273 7.5C7.02273 7.7834 6.80221 8 6.54545 8ZM6.54545 5H3.63636C3.37961 5 3.15909 4.7834 3.15909 4.5C3.15909 4.2166 3.37961 4 3.63636 4H6.54545C6.80221 4 7.02273 4.2166 7.02273 4.5C7.02273 4.7834 6.80221 5 6.54545 5ZM12.1136 4.875C12.1136 5.57266 11.5671 6.125 10.9091 6.125C10.251 6.125 9.70455 5.57266 9.70455 4.875C9.70455 4.17734 10.251 3.625 10.9091 3.625C11.5671 3.625 12.1136 4.17734 12.1136 4.875ZM9.36764 8.08731C9.35511 8.07767 9.3469 8.07012 9.3417 8.06473C9.35159 7.91312 9.45543 7.72555 9.70923 7.56233C9.97328 7.39252 10.3783 7.267 10.9091 7.267C11.4234 7.267 11.8294 7.392 12.0987 7.56308C12.3558 7.72646 12.4634 7.91204 12.476 8.05946C12.4699 8.06528 12.4606 8.07318 12.4469 8.08305C12.3899 8.12417 12.2905 8.17294 12.1434 8.21896C11.8521 8.31007 11.4238 8.375 10.9091 8.375C10.3579 8.375 9.93094 8.30953 9.65059 8.2193C9.50911 8.17377 9.41802 8.12605 9.36764 8.08731ZM12.4867 8.04747C12.4868 8.04747 12.4864 8.04813 12.4854 8.04944C12.4862 8.04812 12.4867 8.04747 12.4867 8.04747ZM9.33474 8.05667C9.33391 8.05552 9.33361 8.05494 9.33367 8.05493C9.33372 8.05493 9.33414 8.0555 9.33474 8.05667Z" fill="#6C6C6C"/>
<path d="M13.8182 11.75H2.18182C1.12418 11.75 0.25 10.8597 0.25 9.75V2.25C0.25 1.14026 1.12418 0.25 2.18182 0.25H13.8182C14.8758 0.25 15.75 1.14026 15.75 2.25V9.75C15.75 10.8597 14.8758 11.75 13.8182 11.75ZM2.18182 1.25C1.63582 1.25 1.20455 1.70599 1.20455 2.25V9.75C1.20455 10.294 1.63582 10.75 2.18182 10.75H13.8182C14.3642 10.75 14.7955 10.294 14.7955 9.75V2.25C14.7955 1.70599 14.3642 1.25 13.8182 1.25H2.18182ZM6.54545 8H3.63636C3.37961 8 3.15909 7.7834 3.15909 7.5C3.15909 7.2166 3.37961 7 3.63636 7H6.54545C6.80221 7 7.02273 7.2166 7.02273 7.5C7.02273 7.7834 6.80221 8 6.54545 8ZM6.54545 5H3.63636C3.37961 5 3.15909 4.7834 3.15909 4.5C3.15909 4.2166 3.37961 4 3.63636 4H6.54545C6.80221 4 7.02273 4.2166 7.02273 4.5C7.02273 4.7834 6.80221 5 6.54545 5ZM12.1136 4.875C12.1136 5.57266 11.5671 6.125 10.9091 6.125C10.251 6.125 9.70455 5.57266 9.70455 4.875C9.70455 4.17734 10.251 3.625 10.9091 3.625C11.5671 3.625 12.1136 4.17734 12.1136 4.875ZM9.36764 8.08731C9.35511 8.07767 9.3469 8.07012 9.3417 8.06473C9.35159 7.91312 9.45543 7.72555 9.70923 7.56233C9.97328 7.39252 10.3783 7.267 10.9091 7.267C11.4234 7.267 11.8294 7.392 12.0987 7.56308C12.3558 7.72646 12.4634 7.91204 12.476 8.05946C12.4699 8.06528 12.4606 8.07318 12.4469 8.08305C12.3899 8.12417 12.2905 8.17294 12.1434 8.21896C11.8521 8.31007 11.4238 8.375 10.9091 8.375C10.3579 8.375 9.93094 8.30953 9.65059 8.2193C9.50911 8.17377 9.41802 8.12605 9.36764 8.08731ZM12.4867 8.04747C12.4868 8.04747 12.4864 8.04813 12.4854 8.04944C12.4862 8.04812 12.4867 8.04747 12.4867 8.04747ZM9.33474 8.05667C9.33391 8.05552 9.33361 8.05494 9.33367 8.05493C9.33372 8.05493 9.33414 8.0555 9.33474 8.05667Z" fill="url(#paint0_linear_2352_380)"/>
<path d="M13.8182 11.75H2.18182C1.12418 11.75 0.25 10.8597 0.25 9.75V2.25C0.25 1.14026 1.12418 0.25 2.18182 0.25H13.8182C14.8758 0.25 15.75 1.14026 15.75 2.25V9.75C15.75 10.8597 14.8758 11.75 13.8182 11.75ZM2.18182 1.25C1.63582 1.25 1.20455 1.70599 1.20455 2.25V9.75C1.20455 10.294 1.63582 10.75 2.18182 10.75H13.8182C14.3642 10.75 14.7955 10.294 14.7955 9.75V2.25C14.7955 1.70599 14.3642 1.25 13.8182 1.25H2.18182ZM6.54545 8H3.63636C3.37961 8 3.15909 7.7834 3.15909 7.5C3.15909 7.2166 3.37961 7 3.63636 7H6.54545C6.80221 7 7.02273 7.2166 7.02273 7.5C7.02273 7.7834 6.80221 8 6.54545 8ZM6.54545 5H3.63636C3.37961 5 3.15909 4.7834 3.15909 4.5C3.15909 4.2166 3.37961 4 3.63636 4H6.54545C6.80221 4 7.02273 4.2166 7.02273 4.5C7.02273 4.7834 6.80221 5 6.54545 5ZM12.1136 4.875C12.1136 5.57266 11.5671 6.125 10.9091 6.125C10.251 6.125 9.70455 5.57266 9.70455 4.875C9.70455 4.17734 10.251 3.625 10.9091 3.625C11.5671 3.625 12.1136 4.17734 12.1136 4.875ZM9.36764 8.08731C9.35511 8.07767 9.3469 8.07012 9.3417 8.06473C9.35159 7.91312 9.45543 7.72555 9.70923 7.56233C9.97328 7.39252 10.3783 7.267 10.9091 7.267C11.4234 7.267 11.8294 7.392 12.0987 7.56308C12.3558 7.72646 12.4634 7.91204 12.476 8.05946C12.4699 8.06528 12.4606 8.07318 12.4469 8.08305C12.3899 8.12417 12.2905 8.17294 12.1434 8.21896C11.8521 8.31007 11.4238 8.375 10.9091 8.375C10.3579 8.375 9.93094 8.30953 9.65059 8.2193C9.50911 8.17377 9.41802 8.12605 9.36764 8.08731ZM12.4867 8.04747C12.4868 8.04747 12.4864 8.04813 12.4854 8.04944C12.4862 8.04812 12.4867 8.04747 12.4867 8.04747ZM9.33474 8.05667C9.33391 8.05552 9.33361 8.05494 9.33367 8.05493C9.33372 8.05493 9.33414 8.0555 9.33474 8.05667Z" stroke="url(#paint1_linear_2352_380)" stroke-width="0.5"/>
<defs>
<linearGradient id="paint0_linear_2352_380" x1="8.46343" y1="-11.1682" x2="24.694" y2="1.69139" gradientUnits="userSpaceOnUse">
<stop stop-color="#FFD59E"/>
<stop offset="0.572917" stop-color="#FFD056"/>
<stop offset="1" stop-color="#FFAB40"/>
</linearGradient>
<linearGradient id="paint1_linear_2352_380" x1="0.450216" y1="-1.08" x2="17.1255" y2="4.02522" gradientUnits="userSpaceOnUse">
<stop stop-color="#FFD08A"/>
<stop offset="0.463542" stop-color="#FFC06F"/>
<stop offset="1" stop-color="#683E08"/>
</linearGradient>
</defs>
</svg>
