<svg width="12" height="11" viewBox="0 0 12 11" fill="none" xmlns="http://www.w3.org/2000/svg">
<path d="M3.51705 5.90964H8.47793C8.47988 5.90964 8.48176 5.90964 8.48371 5.90964C8.7383 5.90964 8.94417 5.70559 8.94417 5.45445C8.94417 5.40185 8.93536 5.35071 8.91847 5.30372L8.3171 1.93787C8.27838 1.72034 8.08748 1.56185 7.86395 1.56185H4.13065C3.90703 1.56185 3.71612 1.72015 3.67718 1.93787L3.06339 5.37573C3.03983 5.50809 3.07654 5.64403 3.16414 5.74708C3.25126 5.84997 3.38083 5.90964 3.51705 5.90964Z" fill="#D3A501"/>
<path d="M3.51705 5.90964H8.47793C8.47988 5.90964 8.48176 5.90964 8.48371 5.90964C8.7383 5.90964 8.94417 5.70559 8.94417 5.45445C8.94417 5.40185 8.93536 5.35071 8.91847 5.30372L8.3171 1.93787C8.27838 1.72034 8.08748 1.56185 7.86395 1.56185H4.13065C3.90703 1.56185 3.71612 1.72015 3.67718 1.93787L3.06339 5.37573C3.03983 5.50809 3.07654 5.64403 3.16414 5.74708C3.25126 5.84997 3.38083 5.90964 3.51705 5.90964Z" fill="#474747"/>
<path d="M5.26069 6.52778C5.22226 6.31066 5.03123 6.15188 4.80773 6.15188H1.07421C0.850616 6.15188 0.659587 6.31066 0.620768 6.52778L0.00697931 9.96552C-0.0165801 10.0983 0.0201317 10.2344 0.107633 10.3372C0.194848 10.4403 0.324329 10.5 0.46045 10.5H5.42136C5.42385 10.5 5.42548 10.5 5.42739 10.5C5.68176 10.5 5.88773 10.2959 5.88773 10.0447C5.88773 9.99184 5.87863 9.94085 5.86174 9.89409L5.26069 6.52778Z" fill="#D3A501"/>
<path d="M5.26069 6.52778C5.22226 6.31066 5.03123 6.15188 4.80773 6.15188H1.07421C0.850616 6.15188 0.659587 6.31066 0.620768 6.52778L0.00697931 9.96552C-0.0165801 10.0983 0.0201317 10.2344 0.107633 10.3372C0.194848 10.4403 0.324329 10.5 0.46045 10.5H5.42136C5.42385 10.5 5.42548 10.5 5.42739 10.5C5.68176 10.5 5.88773 10.2959 5.88773 10.0447C5.88773 9.99184 5.87863 9.94085 5.86174 9.89409L5.26069 6.52778Z" fill="#474747"/>
<path d="M11.9741 9.89406L11.3729 6.52771C11.3342 6.31059 11.1435 6.15181 10.9196 6.15181H7.18636C6.96287 6.15181 6.77174 6.31059 6.73302 6.52771L6.11914 9.96546C6.09567 10.0983 6.13238 10.2343 6.22008 10.3372C6.3071 10.4403 6.43668 10.4999 6.5728 10.4999H11.5336C11.5363 10.4999 11.5378 10.4999 11.5395 10.4999C11.7941 10.4999 12 10.2959 12 10.0446C12 9.99184 11.9907 9.94085 11.9741 9.89406Z" fill="#D3A501"/>
<path d="M11.9741 9.89406L11.3729 6.52771C11.3342 6.31059 11.1435 6.15181 10.9196 6.15181H7.18636C6.96287 6.15181 6.77174 6.31059 6.73302 6.52771L6.11914 9.96546C6.09567 10.0983 6.13238 10.2343 6.22008 10.3372C6.3071 10.4403 6.43668 10.4999 6.5728 10.4999H11.5336C11.5363 10.4999 11.5378 10.4999 11.5395 10.4999C11.7941 10.4999 12 10.2959 12 10.0446C12 9.99184 11.9907 9.94085 11.9741 9.89406Z" fill="#474747"/>
<path d="M9.21469 2.4717H9.82852V3.0784C9.82852 3.32976 10.0344 3.53362 10.2888 3.53362C10.5432 3.53362 10.749 3.32976 10.749 3.0784V2.4717H11.363C11.6176 2.4717 11.8234 2.26783 11.8234 2.01661C11.8234 1.76535 11.6176 1.56177 11.363 1.56177H10.749V0.955092C10.749 0.703865 10.5432 0.5 10.2888 0.5C10.0344 0.5 9.82852 0.703865 9.82852 0.955092V1.56177H9.21469C8.96011 1.56177 8.75423 1.76535 8.75423 2.01661C8.75427 2.26783 8.96014 2.4717 9.21469 2.4717Z" fill="#D3A501"/>
<path d="M9.21469 2.4717H9.82852V3.0784C9.82852 3.32976 10.0344 3.53362 10.2888 3.53362C10.5432 3.53362 10.749 3.32976 10.749 3.0784V2.4717H11.363C11.6176 2.4717 11.8234 2.26783 11.8234 2.01661C11.8234 1.76535 11.6176 1.56177 11.363 1.56177H10.749V0.955092C10.749 0.703865 10.5432 0.5 10.2888 0.5C10.0344 0.5 9.82852 0.703865 9.82852 0.955092V1.56177H9.21469C8.96011 1.56177 8.75423 1.76535 8.75423 2.01661C8.75427 2.26783 8.96014 2.4717 9.21469 2.4717Z" fill="#474747"/>
</svg>
