<svg width="9" height="10" viewBox="0 0 9 10" fill="none" xmlns="http://www.w3.org/2000/svg">
<path d="M6.82133 1.14247C5.04934 0.0786052 2.78057 0.357583 1.31908 1.81908C-0.142417 3.28057 -0.421395 5.54934 0.642472 7.32133L6.82133 1.14247Z" fill="white"/>
<path d="M6.82133 1.14247C5.04934 0.0786052 2.78057 0.357583 1.31908 1.81908C-0.142417 3.28057 -0.421395 5.54934 0.642472 7.32133L6.82133 1.14247Z" fill="white"/>
<path d="M6.82133 1.14247C5.04934 0.0786052 2.78057 0.357583 1.31908 1.81908C-0.142417 3.28057 -0.421395 5.54934 0.642472 7.32133L6.82133 1.14247Z" fill="url(#paint0_linear_1640_230)"/>
<path d="M2.17867 8.85753C3.95066 9.92139 6.21943 9.64242 7.68092 8.18092C9.14242 6.71943 9.42139 4.45066 8.35753 2.67867L2.17867 8.85753Z" fill="white"/>
<path d="M2.17867 8.85753C3.95066 9.92139 6.21943 9.64242 7.68092 8.18092C9.14242 6.71943 9.42139 4.45066 8.35753 2.67867L2.17867 8.85753Z" fill="white"/>
<path d="M2.17867 8.85753C3.95066 9.92139 6.21943 9.64242 7.68092 8.18092C9.14242 6.71943 9.42139 4.45066 8.35753 2.67867L2.17867 8.85753Z" fill="url(#paint1_linear_1640_230)"/>
<defs>
<linearGradient id="paint0_linear_1640_230" x1="4.76068" y1="-7.87614" x2="15.7434" y2="-1.34986" gradientUnits="userSpaceOnUse">
<stop stop-color="#7D4702"/>
<stop offset="0.572917" stop-color="#FDD265"/>
<stop offset="1" stop-color="#683E08"/>
</linearGradient>
<linearGradient id="paint1_linear_1640_230" x1="4.76068" y1="-7.87614" x2="15.7434" y2="-1.34986" gradientUnits="userSpaceOnUse">
<stop stop-color="#7D4702"/>
<stop offset="0.572917" stop-color="#FDD265"/>
<stop offset="1" stop-color="#683E08"/>
</linearGradient>
</defs>
</svg>
