<svg width="9" height="10" viewBox="0 0 9 10" fill="none" xmlns="http://www.w3.org/2000/svg">
<path d="M6.82133 1.14247C5.04934 0.0786052 2.78057 0.357583 1.31908 1.81908C-0.142417 3.28057 -0.421395 5.54934 0.642472 7.32133L6.82133 1.14247Z" fill="black"/>
<path d="M6.82133 1.14247C5.04934 0.0786052 2.78057 0.357583 1.31908 1.81908C-0.142417 3.28057 -0.421395 5.54934 0.642472 7.32133L6.82133 1.14247Z" fill="#474747"/>
<path d="M2.17867 8.85753C3.95066 9.92139 6.21943 9.64242 7.68092 8.18092C9.14242 6.71943 9.42139 4.45066 8.35753 2.67867L2.17867 8.85753Z" fill="black"/>
<path d="M2.17867 8.85753C3.95066 9.92139 6.21943 9.64242 7.68092 8.18092C9.14242 6.71943 9.42139 4.45066 8.35753 2.67867L2.17867 8.85753Z" fill="#474747"/>
</svg>
