<svg width="10" height="11" viewBox="0 0 10 11" fill="none" xmlns="http://www.w3.org/2000/svg">
<path d="M9.88963 1.7338C9.74178 1.57076 9.50226 1.57033 9.3539 1.73269L6.47779 4.88365L5.64661 3.96934C5.49862 3.8067 5.25899 3.80655 5.11101 3.96934L1.73982 7.67769C1.59184 7.84032 1.59184 8.10422 1.73982 8.26685C1.81369 8.34824 1.91066 8.38893 2.00763 8.38893C2.10447 8.38893 2.20158 8.34824 2.27543 8.26685L5.37882 4.85325L6.20949 5.76685C6.35734 5.92948 6.59636 5.92963 6.74458 5.76753L9.8885 2.3231C10.0367 2.16074 10.0372 1.89685 9.88963 1.7338Z" fill="white"/>
<path d="M9.88963 1.7338C9.74178 1.57076 9.50226 1.57033 9.3539 1.73269L6.47779 4.88365L5.64661 3.96934C5.49862 3.8067 5.25899 3.80655 5.11101 3.96934L1.73982 7.67769C1.59184 7.84032 1.59184 8.10422 1.73982 8.26685C1.81369 8.34824 1.91066 8.38893 2.00763 8.38893C2.10447 8.38893 2.20158 8.34824 2.27543 8.26685L5.37882 4.85325L6.20949 5.76685C6.35734 5.92948 6.59636 5.92963 6.74458 5.76753L9.8885 2.3231C10.0367 2.16074 10.0372 1.89685 9.88963 1.7338Z" fill="white"/>
<path d="M9.88963 1.7338C9.74178 1.57076 9.50226 1.57033 9.3539 1.73269L6.47779 4.88365L5.64661 3.96934C5.49862 3.8067 5.25899 3.80655 5.11101 3.96934L1.73982 7.67769C1.59184 7.84032 1.59184 8.10422 1.73982 8.26685C1.81369 8.34824 1.91066 8.38893 2.00763 8.38893C2.10447 8.38893 2.20158 8.34824 2.27543 8.26685L5.37882 4.85325L6.20949 5.76685C6.35734 5.92948 6.59636 5.92963 6.74458 5.76753L9.8885 2.3231C10.0367 2.16074 10.0372 1.89685 9.88963 1.7338Z" fill="url(#paint0_linear_1640_214)"/>
<path d="M9.60851 9.66666H0.757571V0.916668C0.757571 0.686527 0.588002 0.5 0.378786 0.5C0.169569 0.5 0 0.686527 0 0.916668V10.0833C0 10.3135 0.169569 10.5 0.378786 10.5H9.60851C9.81772 10.5 9.98729 10.3135 9.98729 10.0833C9.98729 9.85319 9.81772 9.66666 9.60851 9.66666Z" fill="white"/>
<path d="M9.60851 9.66666H0.757571V0.916668C0.757571 0.686527 0.588002 0.5 0.378786 0.5C0.169569 0.5 0 0.686527 0 0.916668V10.0833C0 10.3135 0.169569 10.5 0.378786 10.5H9.60851C9.81772 10.5 9.98729 10.3135 9.98729 10.0833C9.98729 9.85319 9.81772 9.66666 9.60851 9.66666Z" fill="white"/>
<path d="M9.60851 9.66666H0.757571V0.916668C0.757571 0.686527 0.588002 0.5 0.378786 0.5C0.169569 0.5 0 0.686527 0 0.916668V10.0833C0 10.3135 0.169569 10.5 0.378786 10.5H9.60851C9.81772 10.5 9.98729 10.3135 9.98729 10.0833C9.98729 9.85319 9.81772 9.66666 9.60851 9.66666Z" fill="url(#paint1_linear_1640_214)"/>
<path d="M9.6212 1.59705H6.78033C6.57111 1.59705 6.40155 1.78358 6.40155 2.01372C6.40155 2.24386 6.57111 2.43039 6.78033 2.43039H9.24244V5.13886C9.24244 5.36885 9.41201 5.55552 9.62122 5.55552C9.83044 5.55552 9.99999 5.36885 9.99999 5.1387V2.01372C9.99999 1.78358 9.83042 1.59705 9.6212 1.59705Z" fill="white"/>
<path d="M9.6212 1.59705H6.78033C6.57111 1.59705 6.40155 1.78358 6.40155 2.01372C6.40155 2.24386 6.57111 2.43039 6.78033 2.43039H9.24244V5.13886C9.24244 5.36885 9.41201 5.55552 9.62122 5.55552C9.83044 5.55552 9.99999 5.36885 9.99999 5.1387V2.01372C9.99999 1.78358 9.83042 1.59705 9.6212 1.59705Z" fill="white"/>
<path d="M9.6212 1.59705H6.78033C6.57111 1.59705 6.40155 1.78358 6.40155 2.01372C6.40155 2.24386 6.57111 2.43039 6.78033 2.43039H9.24244V5.13886C9.24244 5.36885 9.41201 5.55552 9.62122 5.55552C9.83044 5.55552 9.99999 5.36885 9.99999 5.1387V2.01372C9.99999 1.78358 9.83042 1.59705 9.6212 1.59705Z" fill="url(#paint2_linear_1640_214)"/>
<defs>
<linearGradient id="paint0_linear_1640_214" x1="5.28964" y1="-8.80682" x2="17.4927" y2="-1.5554" gradientUnits="userSpaceOnUse">
<stop stop-color="#7D4702"/>
<stop offset="0.572917" stop-color="#FDD265"/>
<stop offset="1" stop-color="#683E08"/>
</linearGradient>
<linearGradient id="paint1_linear_1640_214" x1="5.28964" y1="-8.80682" x2="17.4927" y2="-1.5554" gradientUnits="userSpaceOnUse">
<stop stop-color="#7D4702"/>
<stop offset="0.572917" stop-color="#FDD265"/>
<stop offset="1" stop-color="#683E08"/>
</linearGradient>
<linearGradient id="paint2_linear_1640_214" x1="5.28964" y1="-8.80682" x2="17.4927" y2="-1.5554" gradientUnits="userSpaceOnUse">
<stop stop-color="#7D4702"/>
<stop offset="0.572917" stop-color="#FDD265"/>
<stop offset="1" stop-color="#683E08"/>
</linearGradient>
</defs>
</svg>
