<svg width="11" height="10" viewBox="0 0 11 10" fill="none" xmlns="http://www.w3.org/2000/svg">
<path d="M0.322239 9.3428H0.966717C1.14468 9.3428 1.28896 9.21082 1.28896 9.04804V5.80569H0.322239C0.144277 5.80569 0 5.93766 0 6.10044V9.04804C0 9.2108 0.144277 9.3428 0.322239 9.3428Z" fill="black"/>
<path d="M0.322239 9.3428H0.966717C1.14468 9.3428 1.28896 9.21082 1.28896 9.04804V5.80569H0.322239C0.144277 5.80569 0 5.93766 0 6.10044V9.04804C0 9.2108 0.144277 9.3428 0.322239 9.3428Z" fill="#474747"/>
<path d="M8.42119 0.5C6.99743 0.5 5.84328 1.55573 5.84328 2.85808C5.84328 4.16038 6.99743 5.21615 8.42119 5.21615C9.84495 5.21615 10.9991 4.16038 10.9991 2.85808C10.9991 1.55573 9.84495 0.5 8.42119 0.5ZM8.96122 3.91893C8.89142 3.95085 8.81825 3.97598 8.74339 3.995V4.07645C8.74339 4.23924 8.59911 4.37121 8.42115 4.37121C8.24319 4.37121 8.09891 4.23924 8.09891 4.07645V4.00422C7.96477 3.97333 7.83968 3.92139 7.7337 3.8487C7.59134 3.75104 7.56247 3.56628 7.66926 3.43604C7.77605 3.30583 7.97803 3.2794 8.12039 3.37709C8.24929 3.46552 8.4972 3.47208 8.67299 3.39167C8.74364 3.35934 8.78178 3.32043 8.78178 3.30025C8.78178 3.26498 8.78178 3.25954 8.7389 3.23861C8.65481 3.19756 8.50616 3.17233 8.36237 3.14794C8.17042 3.11536 7.97195 3.08168 7.79996 2.99771C7.5488 2.87509 7.41604 2.67393 7.41604 2.41598C7.41604 2.15773 7.58535 1.93218 7.88054 1.79718C7.95051 1.76517 8.02385 1.73984 8.09891 1.7208V1.63978C8.09891 1.47699 8.24319 1.34502 8.42115 1.34502C8.59911 1.34502 8.74339 1.47699 8.74339 1.63978V1.71195C8.87755 1.74286 9.00262 1.79484 9.10859 1.86753C9.25098 1.96521 9.27983 2.14996 9.17304 2.28019C9.06625 2.41041 8.86431 2.43682 8.7219 2.33914C8.59282 2.25058 8.34469 2.24401 8.16875 2.32444C8.09768 2.35694 8.06052 2.39509 8.06052 2.41596C8.06052 2.45125 8.06052 2.45667 8.1034 2.47762C8.18748 2.51867 8.33616 2.5439 8.47993 2.56829C8.67187 2.60087 8.87035 2.63455 9.04236 2.71852C9.29349 2.84114 9.42626 3.0423 9.42626 3.30025C9.42628 3.55825 9.25676 3.78376 8.96122 3.91893Z" fill="black"/>
<path d="M8.42119 0.5C6.99743 0.5 5.84328 1.55573 5.84328 2.85808C5.84328 4.16038 6.99743 5.21615 8.42119 5.21615C9.84495 5.21615 10.9991 4.16038 10.9991 2.85808C10.9991 1.55573 9.84495 0.5 8.42119 0.5ZM8.96122 3.91893C8.89142 3.95085 8.81825 3.97598 8.74339 3.995V4.07645C8.74339 4.23924 8.59911 4.37121 8.42115 4.37121C8.24319 4.37121 8.09891 4.23924 8.09891 4.07645V4.00422C7.96477 3.97333 7.83968 3.92139 7.7337 3.8487C7.59134 3.75104 7.56247 3.56628 7.66926 3.43604C7.77605 3.30583 7.97803 3.2794 8.12039 3.37709C8.24929 3.46552 8.4972 3.47208 8.67299 3.39167C8.74364 3.35934 8.78178 3.32043 8.78178 3.30025C8.78178 3.26498 8.78178 3.25954 8.7389 3.23861C8.65481 3.19756 8.50616 3.17233 8.36237 3.14794C8.17042 3.11536 7.97195 3.08168 7.79996 2.99771C7.5488 2.87509 7.41604 2.67393 7.41604 2.41598C7.41604 2.15773 7.58535 1.93218 7.88054 1.79718C7.95051 1.76517 8.02385 1.73984 8.09891 1.7208V1.63978C8.09891 1.47699 8.24319 1.34502 8.42115 1.34502C8.59911 1.34502 8.74339 1.47699 8.74339 1.63978V1.71195C8.87755 1.74286 9.00262 1.79484 9.10859 1.86753C9.25098 1.96521 9.27983 2.14996 9.17304 2.28019C9.06625 2.41041 8.86431 2.43682 8.7219 2.33914C8.59282 2.25058 8.34469 2.24401 8.16875 2.32444C8.09768 2.35694 8.06052 2.39509 8.06052 2.41596C8.06052 2.45125 8.06052 2.45667 8.1034 2.47762C8.18748 2.51867 8.33616 2.5439 8.47993 2.56829C8.67187 2.60087 8.87035 2.63455 9.04236 2.71852C9.29349 2.84114 9.42626 3.0423 9.42626 3.30025C9.42628 3.55825 9.25676 3.78376 8.96122 3.91893Z" fill="#474747"/>
<path d="M5.81752 9.5H5.88841C6.97113 9.48819 8.00872 9.20723 8.92392 8.7002L10.722 7.55066C11.0249 7.3561 11.0829 6.99061 10.8831 6.73123C10.6769 6.46003 10.2773 6.3952 9.98729 6.58385L8.26009 7.69214C7.70584 7.9869 7.02916 8.05175 6.41688 7.86308L4.42974 7.26175C4.26218 7.21461 4.17193 7.04363 4.22995 6.8904C4.28149 6.74302 4.44905 6.66048 4.61662 6.70175C4.62306 6.70175 6.84866 7.36201 6.84866 7.36201C7.22345 7.46477 7.55643 7.27079 7.6607 6.98472C7.77024 6.67226 7.58337 6.34212 7.24824 6.24193L4.21704 5.33407C3.55405 5.11329 2.66061 5.1589 1.93344 5.53085V8.83062L4.46194 9.35459C4.92513 9.44779 5.37962 9.5 5.81752 9.5Z" fill="black"/>
<path d="M5.81752 9.5H5.88841C6.97113 9.48819 8.00872 9.20723 8.92392 8.7002L10.722 7.55066C11.0249 7.3561 11.0829 6.99061 10.8831 6.73123C10.6769 6.46003 10.2773 6.3952 9.98729 6.58385L8.26009 7.69214C7.70584 7.9869 7.02916 8.05175 6.41688 7.86308L4.42974 7.26175C4.26218 7.21461 4.17193 7.04363 4.22995 6.8904C4.28149 6.74302 4.44905 6.66048 4.61662 6.70175C4.62306 6.70175 6.84866 7.36201 6.84866 7.36201C7.22345 7.46477 7.55643 7.27079 7.6607 6.98472C7.77024 6.67226 7.58337 6.34212 7.24824 6.24193L4.21704 5.33407C3.55405 5.11329 2.66061 5.1589 1.93344 5.53085V8.83062L4.46194 9.35459C4.92513 9.44779 5.37962 9.5 5.81752 9.5Z" fill="#474747"/>
</svg>
