<svg width="10" height="11" viewBox="0 0 10 11" fill="none" xmlns="http://www.w3.org/2000/svg">
<path d="M7.23923 3.19328C6.38373 3.19328 5.57486 3.04436 4.96166 2.77395C4.77814 2.69301 4.61679 2.60284 4.47849 2.50509V3.11019C4.47849 3.33996 4.74754 3.59578 5.19819 3.79451C5.73854 4.03279 6.46338 4.16402 7.23925 4.16402C8.01511 4.16402 8.73995 4.03279 9.2803 3.79451C9.73095 3.59578 10 3.33996 10 3.11019V2.50509C9.8617 2.60284 9.70034 2.69301 9.51682 2.77395C8.90359 3.04436 8.09474 3.19328 7.23923 3.19328Z" fill="black"/>
<path d="M7.23923 3.19328C6.38373 3.19328 5.57486 3.04436 4.96166 2.77395C4.77814 2.69301 4.61679 2.60284 4.47849 2.50509V3.11019C4.47849 3.33996 4.74754 3.59578 5.19819 3.79451C5.73854 4.03279 6.46338 4.16402 7.23925 4.16402C8.01511 4.16402 8.73995 4.03279 9.2803 3.79451C9.73095 3.59578 10 3.33996 10 3.11019V2.50509C9.8617 2.60284 9.70034 2.69301 9.51682 2.77395C8.90359 3.04436 8.09474 3.19328 7.23923 3.19328Z" fill="#474747"/>
<path d="M7.23919 8.83314C8.01505 8.83314 8.73989 8.70192 9.28023 8.46363C9.73088 8.2649 9.99993 8.00909 9.99993 7.77934V7.17422C9.86163 7.27196 9.70028 7.36213 9.51676 7.44307C8.90354 7.71349 8.0947 7.8624 7.23919 7.8624C6.89127 7.8624 6.55331 7.83798 6.22981 7.79025C6.21926 8.11529 6.16293 8.4289 6.06711 8.72497C6.43372 8.79601 6.83287 8.83314 7.23919 8.83314Z" fill="black"/>
<path d="M7.23919 8.83314C8.01505 8.83314 8.73989 8.70192 9.28023 8.46363C9.73088 8.2649 9.99993 8.00909 9.99993 7.77934V7.17422C9.86163 7.27196 9.70028 7.36213 9.51676 7.44307C8.90354 7.71349 8.0947 7.8624 7.23919 7.8624C6.89127 7.8624 6.55331 7.83798 6.22981 7.79025C6.21926 8.11529 6.16293 8.4289 6.06711 8.72497C6.43372 8.79601 6.83287 8.83314 7.23919 8.83314Z" fill="#474747"/>
<path d="M5.37486 5.42207C5.89112 5.61455 6.54963 5.7204 7.23924 5.7204C8.01509 5.7204 8.73993 5.58918 9.28028 5.35089C9.73093 5.15216 9.99998 4.89635 9.99998 4.66659V4.06147C9.86168 4.15922 9.70033 4.24941 9.51681 4.33033C8.90359 4.60075 8.09474 4.74966 7.23924 4.74966C6.38373 4.74966 5.57486 4.60075 4.96166 4.33033C4.77814 4.24939 4.61679 4.15922 4.47849 4.06147V4.70097C4.81678 4.88965 5.11973 5.13418 5.37486 5.42207Z" fill="black"/>
<path d="M5.37486 5.42207C5.89112 5.61455 6.54963 5.7204 7.23924 5.7204C8.01509 5.7204 8.73993 5.58918 9.28028 5.35089C9.73093 5.15216 9.99998 4.89635 9.99998 4.66659V4.06147C9.86168 4.15922 9.70033 4.24941 9.51681 4.33033C8.90359 4.60075 8.09474 4.74966 7.23924 4.74966C6.38373 4.74966 5.57486 4.60075 4.96166 4.33033C4.77814 4.24939 4.61679 4.15922 4.47849 4.06147V4.70097C4.81678 4.88965 5.11973 5.13418 5.37486 5.42207Z" fill="#474747"/>
<path d="M7.23919 7.27674C8.01505 7.27674 8.73989 7.14551 9.28024 6.90723C9.73089 6.7085 9.99994 6.45268 9.99994 6.22293V5.61781C9.86164 5.71556 9.70029 5.80573 9.51677 5.88667C8.90355 6.15709 8.0947 6.306 7.23919 6.306C6.76553 6.306 6.30251 6.25928 5.87979 6.17165C6.0362 6.48736 6.14505 6.83057 6.19696 7.19196C6.52736 7.24797 6.87676 7.27674 7.23919 7.27674Z" fill="black"/>
<path d="M7.23919 7.27674C8.01505 7.27674 8.73989 7.14551 9.28024 6.90723C9.73089 6.7085 9.99994 6.45268 9.99994 6.22293V5.61781C9.86164 5.71556 9.70029 5.80573 9.51677 5.88667C8.90355 6.15709 8.0947 6.306 7.23919 6.306C6.76553 6.306 6.30251 6.25928 5.87979 6.17165C6.0362 6.48736 6.14505 6.83057 6.19696 7.19196C6.52736 7.24797 6.87676 7.27674 7.23919 7.27674Z" fill="#474747"/>
<path d="M5.19817 2.23813C5.73852 2.47641 6.46336 2.60764 7.23923 2.60764C8.01509 2.60764 8.73993 2.47641 9.28028 2.23813C9.73093 2.03939 9.99998 1.78358 9.99998 1.55383C9.99998 1.32408 9.73093 1.06824 9.28028 0.869509C8.73993 0.631226 8.01507 0.5 7.23923 0.5C6.46338 0.5 5.73852 0.631226 5.19817 0.869509C4.74752 1.06824 4.47847 1.32406 4.47847 1.55383C4.47847 1.7836 4.74752 2.03939 5.19817 2.23813Z" fill="black"/>
<path d="M5.19817 2.23813C5.73852 2.47641 6.46336 2.60764 7.23923 2.60764C8.01509 2.60764 8.73993 2.47641 9.28028 2.23813C9.73093 2.03939 9.99998 1.78358 9.99998 1.55383C9.99998 1.32408 9.73093 1.06824 9.28028 0.869509C8.73993 0.631226 8.01507 0.5 7.23923 0.5C6.46338 0.5 5.73852 0.631226 5.19817 0.869509C4.74752 1.06824 4.47847 1.32406 4.47847 1.55383C4.47847 1.7836 4.74752 2.03939 5.19817 2.23813Z" fill="#474747"/>
<path d="M5.64591 7.67847C5.64591 6.12268 4.37953 4.85694 2.82295 4.85694C1.26638 4.85694 0 6.12268 0 7.67847C0 9.23426 1.26638 10.5 2.82295 10.5C4.37953 10.5 5.64591 9.23426 5.64591 7.67847ZM3.26306 9.23213H3.11593V9.71323H2.52998V9.23213H1.73961V8.64648H3.26306C3.45621 8.64648 3.61334 8.48943 3.61334 8.29637C3.61334 8.10332 3.45621 7.94627 3.26306 7.94627H2.55607C2.05364 7.94627 1.64488 7.53772 1.64488 7.03554C1.64488 6.54208 2.0396 6.13935 2.52998 6.12545V5.64369H3.11593V6.12479H3.74971V6.71044H2.55607C2.37673 6.71044 2.23083 6.85627 2.23083 7.03554C2.23083 7.21479 2.37673 7.36062 2.55607 7.36062H3.26306C3.7793 7.36062 4.19929 7.78039 4.19929 8.29637C4.19927 8.81236 3.77928 9.23213 3.26306 9.23213Z" fill="black"/>
<path d="M5.64591 7.67847C5.64591 6.12268 4.37953 4.85694 2.82295 4.85694C1.26638 4.85694 0 6.12268 0 7.67847C0 9.23426 1.26638 10.5 2.82295 10.5C4.37953 10.5 5.64591 9.23426 5.64591 7.67847ZM3.26306 9.23213H3.11593V9.71323H2.52998V9.23213H1.73961V8.64648H3.26306C3.45621 8.64648 3.61334 8.48943 3.61334 8.29637C3.61334 8.10332 3.45621 7.94627 3.26306 7.94627H2.55607C2.05364 7.94627 1.64488 7.53772 1.64488 7.03554C1.64488 6.54208 2.0396 6.13935 2.52998 6.12545V5.64369H3.11593V6.12479H3.74971V6.71044H2.55607C2.37673 6.71044 2.23083 6.85627 2.23083 7.03554C2.23083 7.21479 2.37673 7.36062 2.55607 7.36062H3.26306C3.7793 7.36062 4.19929 7.78039 4.19929 8.29637C4.19927 8.81236 3.77928 9.23213 3.26306 9.23213Z" fill="#474747"/>
</svg>
