<svg width="14" height="12" viewBox="0 0 14 12" fill="none" xmlns="http://www.w3.org/2000/svg">
<path d="M1.75 11C0.921196 11 0.25 10.3288 0.25 9.5V5.375H13.75V9.5C13.75 10.3288 13.0788 11 12.25 11H1.75ZM1.75 1H12.25C13.0788 1 13.75 1.6712 13.75 2.5V4H0.25V2.5C0.25 1.6712 0.921196 1 1.75 1Z" fill="#6C6C6C"/>
<path d="M1.75 11C0.921196 11 0.25 10.3288 0.25 9.5V5.375H13.75V9.5C13.75 10.3288 13.0788 11 12.25 11H1.75ZM1.75 1H12.25C13.0788 1 13.75 1.6712 13.75 2.5V4H0.25V2.5C0.25 1.6712 0.921196 1 1.75 1Z" fill="url(#paint0_linear_2352_392)"/>
<path d="M1.75 11C0.921196 11 0.25 10.3288 0.25 9.5V5.375H13.75V9.5C13.75 10.3288 13.0788 11 12.25 11H1.75ZM1.75 1H12.25C13.0788 1 13.75 1.6712 13.75 2.5V4H0.25V2.5C0.25 1.6712 0.921196 1 1.75 1Z" stroke="url(#paint1_linear_2352_392)" stroke-width="0.5"/>
<defs>
<linearGradient id="paint0_linear_2352_392" x1="7.4055" y1="-9.02216" x2="21.6072" y2="2.22997" gradientUnits="userSpaceOnUse">
<stop stop-color="#FFD59E"/>
<stop offset="0.572917" stop-color="#FFD056"/>
<stop offset="1" stop-color="#FFAB40"/>
</linearGradient>
<linearGradient id="paint1_linear_2352_392" x1="0.393939" y1="-0.194999" x2="14.9848" y2="4.27207" gradientUnits="userSpaceOnUse">
<stop stop-color="#FFD08A"/>
<stop offset="0.463542" stop-color="#FFC06F"/>
<stop offset="1" stop-color="#683E08"/>
</linearGradient>
</defs>
</svg>
