<svg width="14" height="16" viewBox="0 0 14 16" fill="none" xmlns="http://www.w3.org/2000/svg">
<path d="M11.25 2V2.25H11.5H12.25C12.9369 2.25 13.5 2.81307 13.5 3.5V14C13.5 14.6869 12.9369 15.25 12.25 15.25H1.75C1.05642 15.25 0.500049 14.6878 0.5 14.0001C0.5 14.0001 0.5 14 0.5 14L0.5075 3.50018V3.5C0.5075 2.81061 1.05802 2.25 1.75 2.25H2.5H2.75V2V0.75H3.75V2V2.25H4H10H10.25V2V0.75H11.25V2ZM12.25 14.25H12.5V14V5.75V5.5H12.25H1.75H1.5V5.75V14V14.25H1.75H12.25ZM3.5 8.5V7.5H4.5V8.5H3.5ZM6.5 8.5V7.5H7.5V8.5H6.5ZM9.5 8.5V7.5H10.5V8.5H9.5Z" fill="#6C6C6C"/>
<path d="M11.25 2V2.25H11.5H12.25C12.9369 2.25 13.5 2.81307 13.5 3.5V14C13.5 14.6869 12.9369 15.25 12.25 15.25H1.75C1.05642 15.25 0.500049 14.6878 0.5 14.0001C0.5 14.0001 0.5 14 0.5 14L0.5075 3.50018V3.5C0.5075 2.81061 1.05802 2.25 1.75 2.25H2.5H2.75V2V0.75H3.75V2V2.25H4H10H10.25V2V0.75H11.25V2ZM12.25 14.25H12.5V14V5.75V5.5H12.25H1.75H1.5V5.75V14V14.25H1.75H12.25ZM3.5 8.5V7.5H4.5V8.5H3.5ZM6.5 8.5V7.5H7.5V8.5H6.5ZM9.5 8.5V7.5H10.5V8.5H9.5Z" fill="url(#paint0_linear_2352_403)"/>
<path d="M11.25 2V2.25H11.5H12.25C12.9369 2.25 13.5 2.81307 13.5 3.5V14C13.5 14.6869 12.9369 15.25 12.25 15.25H1.75C1.05642 15.25 0.500049 14.6878 0.5 14.0001C0.5 14.0001 0.5 14 0.5 14L0.5075 3.50018V3.5C0.5075 2.81061 1.05802 2.25 1.75 2.25H2.5H2.75V2V0.75H3.75V2V2.25H4H10H10.25V2V0.75H11.25V2ZM12.25 14.25H12.5V14V5.75V5.5H12.25H1.75H1.5V5.75V14V14.25H1.75H12.25ZM3.5 8.5V7.5H4.5V8.5H3.5ZM6.5 8.5V7.5H7.5V8.5H6.5ZM9.5 8.5V7.5H10.5V8.5H9.5Z" stroke="url(#paint1_linear_2352_403)" stroke-width="0.5"/>
<defs>
<linearGradient id="paint0_linear_2352_403" x1="7.39102" y1="-13.4602" x2="24.7246" y2="-4.19012" gradientUnits="userSpaceOnUse">
<stop stop-color="#FFD59E"/>
<stop offset="0.572917" stop-color="#FFD056"/>
<stop offset="1" stop-color="#FFAB40"/>
</linearGradient>
<linearGradient id="paint1_linear_2352_403" x1="0.62987" y1="-0.849999" x2="15.3881" y2="2.19987" gradientUnits="userSpaceOnUse">
<stop stop-color="#FFD08A"/>
<stop offset="0.463542" stop-color="#FFC06F"/>
<stop offset="1" stop-color="#683E08"/>
</linearGradient>
</defs>
</svg>
