<svg width="37" height="37" viewBox="0 0 37 37" fill="none" xmlns="http://www.w3.org/2000/svg">
<mask id="path-1-inside-1_1987_2651" fill="white">
<path fill-rule="evenodd" clip-rule="evenodd" d="M37 6.56576C37 2.93959 34.0604 1.33032e-06 30.4342 1.04332e-06L6.56576 0C2.93959 -1.58505e-07 1.33032e-06 2.93959 1.04332e-06 6.56576L0 30.4342C-1.58505e-07 34.0604 2.93959 37 6.56576 37H30.4342C34.0604 37 37 34.0604 37 30.4342V6.56576ZM18.6864 24.5859C18.6864 27.7539 21.2635 30.331 24.4314 30.331C25.6208 30.331 26.7269 29.9677 27.6446 29.3463L30.4971 32.1989C30.7105 32.4123 30.9906 32.5195 31.2708 32.5195C31.551 32.5195 31.831 32.4123 32.0445 32.1989C32.4723 31.771 32.4723 31.0795 32.0445 30.6516L29.1919 27.7991C29.8133 26.8813 30.1765 25.7752 30.1765 24.5859C30.1765 21.418 27.5994 18.8409 24.4314 18.8409C21.2635 18.8409 18.6864 21.418 18.6864 24.5859ZM26.9406 27.0951C26.9651 27.0706 26.9905 27.0476 27.0166 27.0259C27.6185 26.3886 27.9879 25.5296 27.9879 24.5859C27.9879 22.6249 26.3924 21.0294 24.4314 21.0294C22.4705 21.0294 20.875 22.6249 20.875 24.5859C20.875 26.5469 22.4705 28.1424 24.4314 28.1424C25.3751 28.1424 26.2342 27.7729 26.8714 27.1711C26.8931 27.1449 26.9162 27.1196 26.9406 27.0951ZM9.11135 6.25655H21.6957C23.3591 6.25655 24.705 7.60253 24.705 9.26583V16.6633C24.6175 16.6523 24.519 16.6523 24.4314 16.6523C20.0543 16.6523 16.4978 20.2088 16.4978 24.5859C16.4978 26.3258 17.0559 27.9235 18.0189 29.2366H9.11135C7.44805 29.2366 6.10206 27.8907 6.10206 26.2274V9.26583C6.10206 7.60253 7.44805 6.25655 9.11135 6.25655ZM21.7147 13.3543C21.7147 14.2842 20.986 14.8711 19.7988 14.8711C18.8162 14.8711 18.1863 14.4787 17.9951 13.9577C17.9621 13.872 17.9423 13.7797 17.9423 13.6906C17.9423 13.4268 18.1237 13.252 18.3809 13.252C18.5854 13.252 18.7205 13.3312 18.8393 13.5422C18.9942 13.905 19.3668 14.0698 19.8219 14.0698C20.3561 14.0698 20.7188 13.8127 20.7188 13.4631C20.7188 13.1498 20.4946 12.9718 19.8977 12.8497L19.3932 12.7509C18.4435 12.5629 17.9786 12.1078 17.9786 11.3989C17.9786 10.5283 18.737 9.95122 19.7955 9.95122C20.6661 9.95122 21.3223 10.3173 21.5333 10.9372C21.5564 11.0031 21.5696 11.0724 21.5696 11.1581C21.5696 11.3955 21.3981 11.5571 21.1442 11.5571C20.92 11.5571 20.7815 11.4681 20.6693 11.2637C20.5111 10.9042 20.2044 10.7558 19.7955 10.7558C19.3042 10.7558 18.9778 10.9867 18.9778 11.3362C18.9778 11.6297 19.2052 11.811 19.7691 11.9231L20.2704 12.0254C21.2794 12.2265 21.7147 12.6321 21.7147 13.3543ZM9.25301 14.8547C9.51688 14.8547 9.66527 14.7228 9.75757 14.4062L10.0082 13.6643H11.7262L11.9768 14.4161C12.0659 14.7261 12.2142 14.8547 12.4945 14.8547C12.7847 14.8547 12.9924 14.6601 12.9924 14.3864C12.9924 14.2875 12.976 14.1984 12.9298 14.0698L11.6239 10.5283C11.4822 10.1392 11.2513 9.96775 10.8622 9.96775C10.4863 9.96775 10.2522 10.1458 10.1137 10.5316L8.8145 14.0698C8.77163 14.1919 8.74853 14.3039 8.74853 14.3864C8.74853 14.6733 8.94311 14.8547 9.25301 14.8547ZM10.2258 12.8926L10.8425 10.9438H10.8656L11.4953 12.8926H10.2258ZM13.9621 14.792H15.2811C16.7089 14.792 17.5497 13.905 17.5497 12.3947C17.5497 10.8844 16.7089 10.0336 15.2811 10.0336H13.9621C13.6488 10.0336 13.4641 10.2249 13.4641 10.5514V14.271C13.4641 14.6007 13.6488 14.792 13.9621 14.792ZM14.46 13.9676V10.8547H15.1624C16.0395 10.8547 16.5341 11.4021 16.5341 12.398C16.5341 13.4268 16.0527 13.9676 15.1624 13.9676H14.46ZM8.82214 17.6059C8.82214 17.3469 9.03217 17.1369 9.29117 17.1369H16.0445C16.3035 17.1369 16.5135 17.3469 16.5135 17.6059C16.5135 17.8649 16.3035 18.0748 16.0445 18.0748H9.29117C9.03217 18.0748 8.82214 17.8649 8.82214 17.6059ZM9.29117 19.9508C9.03217 19.9508 8.82214 20.1608 8.82214 20.4198C8.82214 20.6788 9.03217 20.8888 9.29117 20.8888H14.0748C14.3338 20.8888 14.5438 20.6788 14.5438 20.4198C14.5438 20.1608 14.3338 19.9508 14.0748 19.9508H9.29117ZM8.82214 23.2337C8.82214 22.9747 9.03217 22.7647 9.29117 22.7647H14.0748C14.3338 22.7647 14.5438 22.9747 14.5438 23.2337C14.5438 23.4927 14.3338 23.7026 14.0748 23.7026H9.29117C9.03217 23.7026 8.82214 23.4927 8.82214 23.2337Z"/>
</mask>
<g filter="url(#filter0_i_1987_2651)">
<path fill-rule="evenodd" clip-rule="evenodd" d="M37 6.56576C37 2.93959 34.0604 1.33032e-06 30.4342 1.04332e-06L6.56576 0C2.93959 -1.58505e-07 1.33032e-06 2.93959 1.04332e-06 6.56576L0 30.4342C-1.58505e-07 34.0604 2.93959 37 6.56576 37H30.4342C34.0604 37 37 34.0604 37 30.4342V6.56576ZM18.6864 24.5859C18.6864 27.7539 21.2635 30.331 24.4314 30.331C25.6208 30.331 26.7269 29.9677 27.6446 29.3463L30.4971 32.1989C30.7105 32.4123 30.9906 32.5195 31.2708 32.5195C31.551 32.5195 31.831 32.4123 32.0445 32.1989C32.4723 31.771 32.4723 31.0795 32.0445 30.6516L29.1919 27.7991C29.8133 26.8813 30.1765 25.7752 30.1765 24.5859C30.1765 21.418 27.5994 18.8409 24.4314 18.8409C21.2635 18.8409 18.6864 21.418 18.6864 24.5859ZM26.9406 27.0951C26.9651 27.0706 26.9905 27.0476 27.0166 27.0259C27.6185 26.3886 27.9879 25.5296 27.9879 24.5859C27.9879 22.6249 26.3924 21.0294 24.4314 21.0294C22.4705 21.0294 20.875 22.6249 20.875 24.5859C20.875 26.5469 22.4705 28.1424 24.4314 28.1424C25.3751 28.1424 26.2342 27.7729 26.8714 27.1711C26.8931 27.1449 26.9162 27.1196 26.9406 27.0951ZM9.11135 6.25655H21.6957C23.3591 6.25655 24.705 7.60253 24.705 9.26583V16.6633C24.6175 16.6523 24.519 16.6523 24.4314 16.6523C20.0543 16.6523 16.4978 20.2088 16.4978 24.5859C16.4978 26.3258 17.0559 27.9235 18.0189 29.2366H9.11135C7.44805 29.2366 6.10206 27.8907 6.10206 26.2274V9.26583C6.10206 7.60253 7.44805 6.25655 9.11135 6.25655ZM21.7147 13.3543C21.7147 14.2842 20.986 14.8711 19.7988 14.8711C18.8162 14.8711 18.1863 14.4787 17.9951 13.9577C17.9621 13.872 17.9423 13.7797 17.9423 13.6906C17.9423 13.4268 18.1237 13.252 18.3809 13.252C18.5854 13.252 18.7205 13.3312 18.8393 13.5422C18.9942 13.905 19.3668 14.0698 19.8219 14.0698C20.3561 14.0698 20.7188 13.8127 20.7188 13.4631C20.7188 13.1498 20.4946 12.9718 19.8977 12.8497L19.3932 12.7509C18.4435 12.5629 17.9786 12.1078 17.9786 11.3989C17.9786 10.5283 18.737 9.95122 19.7955 9.95122C20.6661 9.95122 21.3223 10.3173 21.5333 10.9372C21.5564 11.0031 21.5696 11.0724 21.5696 11.1581C21.5696 11.3955 21.3981 11.5571 21.1442 11.5571C20.92 11.5571 20.7815 11.4681 20.6693 11.2637C20.5111 10.9042 20.2044 10.7558 19.7955 10.7558C19.3042 10.7558 18.9778 10.9867 18.9778 11.3362C18.9778 11.6297 19.2052 11.811 19.7691 11.9231L20.2704 12.0254C21.2794 12.2265 21.7147 12.6321 21.7147 13.3543ZM9.25301 14.8547C9.51688 14.8547 9.66527 14.7228 9.75757 14.4062L10.0082 13.6643H11.7262L11.9768 14.4161C12.0659 14.7261 12.2142 14.8547 12.4945 14.8547C12.7847 14.8547 12.9924 14.6601 12.9924 14.3864C12.9924 14.2875 12.976 14.1984 12.9298 14.0698L11.6239 10.5283C11.4822 10.1392 11.2513 9.96775 10.8622 9.96775C10.4863 9.96775 10.2522 10.1458 10.1137 10.5316L8.8145 14.0698C8.77163 14.1919 8.74853 14.3039 8.74853 14.3864C8.74853 14.6733 8.94311 14.8547 9.25301 14.8547ZM10.2258 12.8926L10.8425 10.9438H10.8656L11.4953 12.8926H10.2258ZM13.9621 14.792H15.2811C16.7089 14.792 17.5497 13.905 17.5497 12.3947C17.5497 10.8844 16.7089 10.0336 15.2811 10.0336H13.9621C13.6488 10.0336 13.4641 10.2249 13.4641 10.5514V14.271C13.4641 14.6007 13.6488 14.792 13.9621 14.792ZM14.46 13.9676V10.8547H15.1624C16.0395 10.8547 16.5341 11.4021 16.5341 12.398C16.5341 13.4268 16.0527 13.9676 15.1624 13.9676H14.46ZM8.82214 17.6059C8.82214 17.3469 9.03217 17.1369 9.29117 17.1369H16.0445C16.3035 17.1369 16.5135 17.3469 16.5135 17.6059C16.5135 17.8649 16.3035 18.0748 16.0445 18.0748H9.29117C9.03217 18.0748 8.82214 17.8649 8.82214 17.6059ZM9.29117 19.9508C9.03217 19.9508 8.82214 20.1608 8.82214 20.4198C8.82214 20.6788 9.03217 20.8888 9.29117 20.8888H14.0748C14.3338 20.8888 14.5438 20.6788 14.5438 20.4198C14.5438 20.1608 14.3338 19.9508 14.0748 19.9508H9.29117ZM8.82214 23.2337C8.82214 22.9747 9.03217 22.7647 9.29117 22.7647H14.0748C14.3338 22.7647 14.5438 22.9747 14.5438 23.2337C14.5438 23.4927 14.3338 23.7026 14.0748 23.7026H9.29117C9.03217 23.7026 8.82214 23.4927 8.82214 23.2337Z" fill="#FF9715"/>
<path fill-rule="evenodd" clip-rule="evenodd" d="M37 6.56576C37 2.93959 34.0604 1.33032e-06 30.4342 1.04332e-06L6.56576 0C2.93959 -1.58505e-07 1.33032e-06 2.93959 1.04332e-06 6.56576L0 30.4342C-1.58505e-07 34.0604 2.93959 37 6.56576 37H30.4342C34.0604 37 37 34.0604 37 30.4342V6.56576ZM18.6864 24.5859C18.6864 27.7539 21.2635 30.331 24.4314 30.331C25.6208 30.331 26.7269 29.9677 27.6446 29.3463L30.4971 32.1989C30.7105 32.4123 30.9906 32.5195 31.2708 32.5195C31.551 32.5195 31.831 32.4123 32.0445 32.1989C32.4723 31.771 32.4723 31.0795 32.0445 30.6516L29.1919 27.7991C29.8133 26.8813 30.1765 25.7752 30.1765 24.5859C30.1765 21.418 27.5994 18.8409 24.4314 18.8409C21.2635 18.8409 18.6864 21.418 18.6864 24.5859ZM26.9406 27.0951C26.9651 27.0706 26.9905 27.0476 27.0166 27.0259C27.6185 26.3886 27.9879 25.5296 27.9879 24.5859C27.9879 22.6249 26.3924 21.0294 24.4314 21.0294C22.4705 21.0294 20.875 22.6249 20.875 24.5859C20.875 26.5469 22.4705 28.1424 24.4314 28.1424C25.3751 28.1424 26.2342 27.7729 26.8714 27.1711C26.8931 27.1449 26.9162 27.1196 26.9406 27.0951ZM9.11135 6.25655H21.6957C23.3591 6.25655 24.705 7.60253 24.705 9.26583V16.6633C24.6175 16.6523 24.519 16.6523 24.4314 16.6523C20.0543 16.6523 16.4978 20.2088 16.4978 24.5859C16.4978 26.3258 17.0559 27.9235 18.0189 29.2366H9.11135C7.44805 29.2366 6.10206 27.8907 6.10206 26.2274V9.26583C6.10206 7.60253 7.44805 6.25655 9.11135 6.25655ZM21.7147 13.3543C21.7147 14.2842 20.986 14.8711 19.7988 14.8711C18.8162 14.8711 18.1863 14.4787 17.9951 13.9577C17.9621 13.872 17.9423 13.7797 17.9423 13.6906C17.9423 13.4268 18.1237 13.252 18.3809 13.252C18.5854 13.252 18.7205 13.3312 18.8393 13.5422C18.9942 13.905 19.3668 14.0698 19.8219 14.0698C20.3561 14.0698 20.7188 13.8127 20.7188 13.4631C20.7188 13.1498 20.4946 12.9718 19.8977 12.8497L19.3932 12.7509C18.4435 12.5629 17.9786 12.1078 17.9786 11.3989C17.9786 10.5283 18.737 9.95122 19.7955 9.95122C20.6661 9.95122 21.3223 10.3173 21.5333 10.9372C21.5564 11.0031 21.5696 11.0724 21.5696 11.1581C21.5696 11.3955 21.3981 11.5571 21.1442 11.5571C20.92 11.5571 20.7815 11.4681 20.6693 11.2637C20.5111 10.9042 20.2044 10.7558 19.7955 10.7558C19.3042 10.7558 18.9778 10.9867 18.9778 11.3362C18.9778 11.6297 19.2052 11.811 19.7691 11.9231L20.2704 12.0254C21.2794 12.2265 21.7147 12.6321 21.7147 13.3543ZM9.25301 14.8547C9.51688 14.8547 9.66527 14.7228 9.75757 14.4062L10.0082 13.6643H11.7262L11.9768 14.4161C12.0659 14.7261 12.2142 14.8547 12.4945 14.8547C12.7847 14.8547 12.9924 14.6601 12.9924 14.3864C12.9924 14.2875 12.976 14.1984 12.9298 14.0698L11.6239 10.5283C11.4822 10.1392 11.2513 9.96775 10.8622 9.96775C10.4863 9.96775 10.2522 10.1458 10.1137 10.5316L8.8145 14.0698C8.77163 14.1919 8.74853 14.3039 8.74853 14.3864C8.74853 14.6733 8.94311 14.8547 9.25301 14.8547ZM10.2258 12.8926L10.8425 10.9438H10.8656L11.4953 12.8926H10.2258ZM13.9621 14.792H15.2811C16.7089 14.792 17.5497 13.905 17.5497 12.3947C17.5497 10.8844 16.7089 10.0336 15.2811 10.0336H13.9621C13.6488 10.0336 13.4641 10.2249 13.4641 10.5514V14.271C13.4641 14.6007 13.6488 14.792 13.9621 14.792ZM14.46 13.9676V10.8547H15.1624C16.0395 10.8547 16.5341 11.4021 16.5341 12.398C16.5341 13.4268 16.0527 13.9676 15.1624 13.9676H14.46ZM8.82214 17.6059C8.82214 17.3469 9.03217 17.1369 9.29117 17.1369H16.0445C16.3035 17.1369 16.5135 17.3469 16.5135 17.6059C16.5135 17.8649 16.3035 18.0748 16.0445 18.0748H9.29117C9.03217 18.0748 8.82214 17.8649 8.82214 17.6059ZM9.29117 19.9508C9.03217 19.9508 8.82214 20.1608 8.82214 20.4198C8.82214 20.6788 9.03217 20.8888 9.29117 20.8888H14.0748C14.3338 20.8888 14.5438 20.6788 14.5438 20.4198C14.5438 20.1608 14.3338 19.9508 14.0748 19.9508H9.29117ZM8.82214 23.2337C8.82214 22.9747 9.03217 22.7647 9.29117 22.7647H14.0748C14.3338 22.7647 14.5438 22.9747 14.5438 23.2337C14.5438 23.4927 14.3338 23.7026 14.0748 23.7026H9.29117C9.03217 23.7026 8.82214 23.4927 8.82214 23.2337Z" fill="url(#paint0_linear_1987_2651)"/>
</g>
<path fill-rule="evenodd" clip-rule="evenodd" d="M37 6.56576C37 2.93959 34.0604 1.33032e-06 30.4342 1.04332e-06L6.56576 0C2.93959 -1.58505e-07 1.33032e-06 2.93959 1.04332e-06 6.56576L0 30.4342C-1.58505e-07 34.0604 2.93959 37 6.56576 37H30.4342C34.0604 37 37 34.0604 37 30.4342V6.56576ZM18.6864 24.5859C18.6864 27.7539 21.2635 30.331 24.4314 30.331C25.6208 30.331 26.7269 29.9677 27.6446 29.3463L30.4971 32.1989C30.7105 32.4123 30.9906 32.5195 31.2708 32.5195C31.551 32.5195 31.831 32.4123 32.0445 32.1989C32.4723 31.771 32.4723 31.0795 32.0445 30.6516L29.1919 27.7991C29.8133 26.8813 30.1765 25.7752 30.1765 24.5859C30.1765 21.418 27.5994 18.8409 24.4314 18.8409C21.2635 18.8409 18.6864 21.418 18.6864 24.5859ZM26.9406 27.0951C26.9651 27.0706 26.9905 27.0476 27.0166 27.0259C27.6185 26.3886 27.9879 25.5296 27.9879 24.5859C27.9879 22.6249 26.3924 21.0294 24.4314 21.0294C22.4705 21.0294 20.875 22.6249 20.875 24.5859C20.875 26.5469 22.4705 28.1424 24.4314 28.1424C25.3751 28.1424 26.2342 27.7729 26.8714 27.1711C26.8931 27.1449 26.9162 27.1196 26.9406 27.0951ZM9.11135 6.25655H21.6957C23.3591 6.25655 24.705 7.60253 24.705 9.26583V16.6633C24.6175 16.6523 24.519 16.6523 24.4314 16.6523C20.0543 16.6523 16.4978 20.2088 16.4978 24.5859C16.4978 26.3258 17.0559 27.9235 18.0189 29.2366H9.11135C7.44805 29.2366 6.10206 27.8907 6.10206 26.2274V9.26583C6.10206 7.60253 7.44805 6.25655 9.11135 6.25655ZM21.7147 13.3543C21.7147 14.2842 20.986 14.8711 19.7988 14.8711C18.8162 14.8711 18.1863 14.4787 17.9951 13.9577C17.9621 13.872 17.9423 13.7797 17.9423 13.6906C17.9423 13.4268 18.1237 13.252 18.3809 13.252C18.5854 13.252 18.7205 13.3312 18.8393 13.5422C18.9942 13.905 19.3668 14.0698 19.8219 14.0698C20.3561 14.0698 20.7188 13.8127 20.7188 13.4631C20.7188 13.1498 20.4946 12.9718 19.8977 12.8497L19.3932 12.7509C18.4435 12.5629 17.9786 12.1078 17.9786 11.3989C17.9786 10.5283 18.737 9.95122 19.7955 9.95122C20.6661 9.95122 21.3223 10.3173 21.5333 10.9372C21.5564 11.0031 21.5696 11.0724 21.5696 11.1581C21.5696 11.3955 21.3981 11.5571 21.1442 11.5571C20.92 11.5571 20.7815 11.4681 20.6693 11.2637C20.5111 10.9042 20.2044 10.7558 19.7955 10.7558C19.3042 10.7558 18.9778 10.9867 18.9778 11.3362C18.9778 11.6297 19.2052 11.811 19.7691 11.9231L20.2704 12.0254C21.2794 12.2265 21.7147 12.6321 21.7147 13.3543ZM9.25301 14.8547C9.51688 14.8547 9.66527 14.7228 9.75757 14.4062L10.0082 13.6643H11.7262L11.9768 14.4161C12.0659 14.7261 12.2142 14.8547 12.4945 14.8547C12.7847 14.8547 12.9924 14.6601 12.9924 14.3864C12.9924 14.2875 12.976 14.1984 12.9298 14.0698L11.6239 10.5283C11.4822 10.1392 11.2513 9.96775 10.8622 9.96775C10.4863 9.96775 10.2522 10.1458 10.1137 10.5316L8.8145 14.0698C8.77163 14.1919 8.74853 14.3039 8.74853 14.3864C8.74853 14.6733 8.94311 14.8547 9.25301 14.8547ZM10.2258 12.8926L10.8425 10.9438H10.8656L11.4953 12.8926H10.2258ZM13.9621 14.792H15.2811C16.7089 14.792 17.5497 13.905 17.5497 12.3947C17.5497 10.8844 16.7089 10.0336 15.2811 10.0336H13.9621C13.6488 10.0336 13.4641 10.2249 13.4641 10.5514V14.271C13.4641 14.6007 13.6488 14.792 13.9621 14.792ZM14.46 13.9676V10.8547H15.1624C16.0395 10.8547 16.5341 11.4021 16.5341 12.398C16.5341 13.4268 16.0527 13.9676 15.1624 13.9676H14.46ZM8.82214 17.6059C8.82214 17.3469 9.03217 17.1369 9.29117 17.1369H16.0445C16.3035 17.1369 16.5135 17.3469 16.5135 17.6059C16.5135 17.8649 16.3035 18.0748 16.0445 18.0748H9.29117C9.03217 18.0748 8.82214 17.8649 8.82214 17.6059ZM9.29117 19.9508C9.03217 19.9508 8.82214 20.1608 8.82214 20.4198C8.82214 20.6788 9.03217 20.8888 9.29117 20.8888H14.0748C14.3338 20.8888 14.5438 20.6788 14.5438 20.4198C14.5438 20.1608 14.3338 19.9508 14.0748 19.9508H9.29117ZM8.82214 23.2337C8.82214 22.9747 9.03217 22.7647 9.29117 22.7647H14.0748C14.3338 22.7647 14.5438 22.9747 14.5438 23.2337C14.5438 23.4927 14.3338 23.7026 14.0748 23.7026H9.29117C9.03217 23.7026 8.82214 23.4927 8.82214 23.2337Z" stroke="url(#paint1_linear_1987_2651)" mask="url(#path-1-inside-1_1987_2651)"/>
<defs>
<filter id="filter0_i_1987_2651" x="0" y="-3" width="37" height="40" filterUnits="userSpaceOnUse" color-interpolation-filters="sRGB">
<feFlood flood-opacity="0" result="BackgroundImageFix"/>
<feBlend mode="normal" in="SourceGraphic" in2="BackgroundImageFix" result="shape"/>
<feColorMatrix in="SourceAlpha" type="matrix" values="0 0 0 0 0 0 0 0 0 0 0 0 0 0 0 0 0 0 127 0" result="hardAlpha"/>
<feOffset dy="-4"/>
<feGaussianBlur stdDeviation="1.5"/>
<feComposite in2="hardAlpha" operator="arithmetic" k2="-1" k3="1"/>
<feColorMatrix type="matrix" values="0 0 0 0 0 0 0 0 0 0 0 0 0 0 0 0 0 0 0.25 0"/>
<feBlend mode="normal" in2="shape" result="effect1_innerShadow_1987_2651"/>
</filter>
<linearGradient id="paint0_linear_1987_2651" x1="19.5717" y1="-34.4352" x2="64.7229" y2="-7.605" gradientUnits="userSpaceOnUse">
<stop stop-color="#7D4702"/>
<stop offset="0.572917" stop-color="#FDD265"/>
<stop offset="1" stop-color="#683E08"/>
</linearGradient>
<linearGradient id="paint1_linear_1987_2651" x1="1.04113" y1="-3.33" x2="41.1048" y2="5.86928" gradientUnits="userSpaceOnUse">
<stop stop-color="#FFD08A"/>
<stop offset="0.463542" stop-color="#FFC06F"/>
<stop offset="1" stop-color="#683E08"/>
</linearGradient>
</defs>
</svg>
