<svg width="11" height="11" viewBox="0 0 11 11" fill="none" xmlns="http://www.w3.org/2000/svg">
<path d="M9.3882 1.6113C7.23937 -0.537578 3.76097 -0.537922 1.61179 1.6113C-0.537103 3.76017 -0.537425 7.23853 1.61179 9.38773C3.76062 11.5366 7.23903 11.5369 9.3882 9.38773C11.5371 7.23885 11.5374 3.76049 9.3882 1.6113ZM9.15838 8.60389C8.90146 8.37415 8.62664 8.17083 8.33697 7.99562C8.52843 7.33425 8.64186 6.60646 8.66868 5.84993H10.2853C10.2122 6.86967 9.82042 7.82625 9.15838 8.60389ZM0.71465 5.84993H2.3313C2.35811 6.60646 2.47154 7.33425 2.663 7.99562C2.37333 8.17083 2.09851 8.37415 1.8416 8.60389C1.17956 7.82625 0.787766 6.86967 0.71465 5.84993ZM1.84162 2.39514C2.09853 2.62487 2.37335 2.82819 2.66302 3.0034C2.47156 3.66477 2.35813 4.39256 2.33132 5.1491H0.71465C0.787766 4.12938 1.17956 3.17279 1.84162 2.39514ZM5.14959 3.07583C4.5781 3.03496 4.02707 2.8942 3.51622 2.66199C3.81333 1.89693 4.36103 0.979334 5.14959 0.751935V3.07583ZM5.14959 3.77797V5.14912H3.03243C3.05668 4.50915 3.14736 3.89462 3.29816 3.33234C3.87869 3.58612 4.50303 3.73767 5.14959 3.77797ZM5.14959 5.84993V7.22108C4.50303 7.26137 3.87869 7.41293 3.29816 7.66671C3.14736 7.10443 3.05668 6.48989 3.03243 5.84993H5.14959ZM5.14959 7.92321V10.2471C4.36107 10.0197 3.81337 9.10219 3.51622 8.33705C4.02707 8.10485 4.5781 7.96409 5.14959 7.92321ZM5.8504 7.92321C6.42189 7.96409 6.97292 8.10485 7.48377 8.33705C7.18665 9.10213 6.63897 10.0197 5.8504 10.2471V7.92321ZM5.8504 7.22108V5.84993H7.96757C7.94331 6.48989 7.85264 7.10443 7.70183 7.66671C7.1213 7.41293 6.49696 7.26137 5.8504 7.22108ZM5.8504 5.14912V3.77797C6.49696 3.73767 7.1213 3.58612 7.70183 3.33234C7.85264 3.89462 7.94331 4.50915 7.96757 5.14912H5.8504ZM5.8504 3.07583V0.751957C6.63897 0.979355 7.18667 1.89696 7.48377 2.66201C6.97292 2.8942 6.42189 3.03496 5.8504 3.07583ZM7.42435 1.1018C7.8729 1.29822 8.29138 1.56456 8.66651 1.89502C8.48795 2.05246 8.29953 2.19522 8.10279 2.32288C7.92807 1.89028 7.70488 1.46987 7.42435 1.1018ZM2.89719 2.32288C2.70044 2.19522 2.51205 2.05246 2.33347 1.89502C2.7086 1.56456 3.12707 1.29822 3.57562 1.1018C3.29509 1.46992 3.0719 1.89032 2.89719 2.32288ZM2.89721 8.67616C3.0719 9.10874 3.29514 9.52917 3.57564 9.89724C3.12709 9.70082 2.70862 9.43448 2.33349 9.10402C2.51205 8.94658 2.70046 8.80383 2.89721 8.67616ZM8.10279 8.67616C8.29953 8.80383 8.48795 8.94658 8.66651 9.104C8.29138 9.43446 7.8729 9.7008 7.42435 9.89722C7.70486 9.52919 7.92807 9.10876 8.10279 8.67616ZM8.6687 5.14912C8.64189 4.39258 8.52846 3.66477 8.33699 3.00342C8.62667 2.82821 8.90146 2.6249 9.1584 2.39516C9.82044 3.17279 10.2122 4.12938 10.2853 5.14912H8.6687Z" fill="currentColor"/>
</svg>
