<svg width="21" height="21" viewBox="0 0 21 21" fill="none" xmlns="http://www.w3.org/2000/svg">
<rect x="21" width="21" height="21" rx="10.5" transform="rotate(90 21 0)" fill="#FFE6E6"/>
<path d="M6.89134 6.9895C7.19473 6.68612 7.68662 6.68612 7.99 6.9895L14.0326 13.0321C14.336 13.3355 14.336 13.8274 14.0326 14.1308C13.7292 14.4342 13.2374 14.4342 12.934 14.1308L6.89134 8.08816C6.58796 7.78478 6.58796 7.29289 6.89134 6.9895Z" fill="#FF0000"/>
<path d="M13.8893 7.13295C14.1927 7.43633 14.1927 7.92822 13.8893 8.23161L7.84671 14.2742C7.54332 14.5776 7.05143 14.5776 6.74805 14.2742C6.44466 13.9708 6.44466 13.479 6.74805 13.1756L12.7907 7.13295C13.0941 6.82956 13.586 6.82956 13.8893 7.13295Z" fill="#FF0000"/>
</svg>
